<?xml version="1.0" encoding="UTF-8" standalone="no"?>
<!DOCTYPE svg PUBLIC "-//W3C//DTD SVG 1.1//EN"
 "http://www.w3.org/Graphics/SVG/1.1/DTD/svg11.dtd">
<!-- Generated by graphviz version 2.43.0 (0)
 -->
<!-- Title: gwas_catalog_sumstats_susie_clumping Pages: 1 -->
<svg width="614pt" height="67pt"
 viewBox="0.00 0.00 614.00 67.00" xmlns="http://www.w3.org/2000/svg" xmlns:xlink="http://www.w3.org/1999/xlink">
<g id="graph0" class="graph" transform="scale(1 1) rotate(0) translate(4 63)">
<title>gwas_catalog_sumstats_susie_clumping</title>
<polygon fill="white" stroke="transparent" points="-4,4 -4,-63 610,-63 610,4 -4,4"/>
<text text-anchor="middle" x="303" y="-43.8" font-family="Times,serif" font-size="14.00">gwas_catalog_sumstats_susie_clumping</text>
<!-- create_cluster -->
<g id="node1" class="node">
<title>create_cluster</title>
<path fill="#ffffff" stroke="#000000" d="M80,-36C80,-36 12,-36 12,-36 6,-36 0,-30 0,-24 0,-24 0,-12 0,-12 0,-6 6,0 12,0 12,0 80,0 80,0 86,0 92,-6 92,-12 92,-12 92,-24 92,-24 92,-30 86,-36 80,-36"/>
<text text-anchor="middle" x="46" y="-14.3" font-family="Times,serif" font-size="14.00">create_cluster</text>
</g>
<!-- gwas_catalog_study_index -->
<g id="node3" class="node">
<title>gwas_catalog_study_index</title>
<path fill="#ffffff" stroke="#000000" d="M279,-36C279,-36 140,-36 140,-36 134,-36 128,-30 128,-24 128,-24 128,-12 128,-12 128,-6 134,0 140,0 140,0 279,0 279,0 285,0 291,-6 291,-12 291,-12 291,-24 291,-24 291,-30 285,-36 279,-36"/>
<text text-anchor="middle" x="209.5" y="-14.3" font-family="Times,serif" font-size="14.00">gwas_catalog_study_index</text>
</g>
<!-- create_cluster&#45;&gt;gwas_catalog_study_index -->
<g id="edge1" class="edge">
<title>create_cluster&#45;&gt;gwas_catalog_study_index</title>
<path fill="none" stroke="black" d="M92.42,-18C100.4,-18 108.95,-18 117.66,-18"/>
<polygon fill="black" stroke="black" points="117.94,-21.5 127.94,-18 117.94,-14.5 117.94,-21.5"/>
</g>
<!-- delete_cluster -->
<g id="node2" class="node">
<title>delete_cluster</title>
<path fill="#ffffff" stroke="#000000" d="M594,-36C594,-36 526,-36 526,-36 520,-36 514,-30 514,-24 514,-24 514,-12 514,-12 514,-6 520,0 526,0 526,0 594,0 594,0 600,0 606,-6 606,-12 606,-12 606,-24 606,-24 606,-30 600,-36 594,-36"/>
<text text-anchor="middle" x="560" y="-14.3" font-family="Times,serif" font-size="14.00">delete_cluster</text>
</g>
<!-- locus_breaker_clumping -->
<g id="node4" class="node">
<title>locus_breaker_clumping</title>
<path fill="#ffffff" stroke="#000000" d="M466,-36C466,-36 339,-36 339,-36 333,-36 327,-30 327,-24 327,-24 327,-12 327,-12 327,-6 333,0 339,0 339,0 466,0 466,0 472,0 478,-6 478,-12 478,-12 478,-24 478,-24 478,-30 472,-36 466,-36"/>
<text text-anchor="middle" x="402.5" y="-14.3" font-family="Times,serif" font-size="14.00">locus_breaker_clumping</text>
</g>
<!-- gwas_catalog_study_index&#45;&gt;locus_breaker_clumping -->
<g id="edge2" class="edge">
<title>gwas_catalog_study_index&#45;&gt;locus_breaker_clumping</title>
<path fill="none" stroke="black" d="M291.22,-18C299.62,-18 308.17,-18 316.61,-18"/>
<polygon fill="black" stroke="black" points="316.84,-21.5 326.84,-18 316.84,-14.5 316.84,-21.5"/>
</g>
<!-- locus_breaker_clumping&#45;&gt;delete_cluster -->
<g id="edge3" class="edge">
<title>locus_breaker_clumping&#45;&gt;delete_cluster</title>
<path fill="none" stroke="black" d="M478.06,-18C486.61,-18 495.21,-18 503.45,-18"/>
<polygon fill="black" stroke="black" points="503.66,-21.5 513.66,-18 503.66,-14.5 503.66,-21.5"/>
</g>
</g>
</svg>
