<?xml version="1.0" encoding="UTF-8" standalone="no"?>
<!DOCTYPE svg PUBLIC "-//W3C//DTD SVG 1.1//EN"
 "http://www.w3.org/Graphics/SVG/1.1/DTD/svg11.dtd">
<!-- Generated by graphviz version 12.2.1 (20241206.2353)
 -->
<!-- Title: gwas_catalog_sumstats_susie_clumping Pages: 1 -->
<svg width="611pt" height="69pt"
 viewBox="0.00 0.00 610.50 68.50" xmlns="http://www.w3.org/2000/svg" xmlns:xlink="http://www.w3.org/1999/xlink">
<g id="graph0" class="graph" transform="scale(1 1) rotate(0) translate(4 64.5)">
<title>gwas_catalog_sumstats_susie_clumping</title>
<polygon fill="white" stroke="none" points="-4,4 -4,-64.5 606.5,-64.5 606.5,4 -4,4"/>
<text text-anchor="middle" x="301.25" y="-43.2" font-family="Times,serif" font-size="14.00">gwas_catalog_sumstats_susie_clumping</text>
<!-- create_cluster -->
<g id="node1" class="node">
<title>create_cluster</title>
<path fill="#ffffff" stroke="#000000" d="M79,-36C79,-36 12,-36 12,-36 6,-36 0,-30 0,-24 0,-24 0,-12 0,-12 0,-6 6,0 12,0 12,0 79,0 79,0 85,0 91,-6 91,-12 91,-12 91,-24 91,-24 91,-30 85,-36 79,-36"/>
<text text-anchor="middle" x="45.5" y="-12.95" font-family="Times,serif" font-size="14.00">create_cluster</text>
</g>
<!-- gwas_catalog_study_index -->
<g id="node3" class="node">
<title>gwas_catalog_study_index</title>
<path fill="#ffffff" stroke="#000000" d="M277.25,-36C277.25,-36 139,-36 139,-36 133,-36 127,-30 127,-24 127,-24 127,-12 127,-12 127,-6 133,0 139,0 139,0 277.25,0 277.25,0 283.25,0 289.25,-6 289.25,-12 289.25,-12 289.25,-24 289.25,-24 289.25,-30 283.25,-36 277.25,-36"/>
<text text-anchor="middle" x="208.12" y="-12.95" font-family="Times,serif" font-size="14.00">gwas_catalog_study_index</text>
</g>
<!-- create_cluster_otg&#45;gwas&#45;catalog&#45;sumstat&#45;susie&#45;clumping&#45;&gt;gwas_catalog_study_index -->
<g id="edge1" class="edge">
<title>create_cluster_otg&#45;gwas&#45;catalog&#45;sumstat&#45;susie&#45;clumping&#45;&gt;gwas_catalog_study_index</title>
<path fill="none" stroke="black" d="M326,-18C334.77,-18 343.41,-18 351.78,-18"/>
<polygon fill="black" stroke="black" points="351.85,-21.5 361.85,-18 351.85,-14.5 351.85,-21.5"/>
</g>
<!-- delete_cluster_otg&#45;gwas&#45;catalog&#45;sumstat&#45;susie&#45;clumping -->
<g id="node2" class="node">
<title>delete_cluster</title>
<path fill="#ffffff" stroke="#000000" d="M590.5,-36C590.5,-36 523.5,-36 523.5,-36 517.5,-36 511.5,-30 511.5,-24 511.5,-24 511.5,-12 511.5,-12 511.5,-6 517.5,0 523.5,0 523.5,0 590.5,0 590.5,0 596.5,0 602.5,-6 602.5,-12 602.5,-12 602.5,-24 602.5,-24 602.5,-30 596.5,-36 590.5,-36"/>
<text text-anchor="middle" x="557" y="-12.95" font-family="Times,serif" font-size="14.00">delete_cluster</text>
</g>
<!-- locus_breaker_clumping -->
<g id="node4" class="node">
<title>locus_breaker_clumping</title>
<path fill="#ffffff" stroke="#000000" d="M463.5,-36C463.5,-36 337.25,-36 337.25,-36 331.25,-36 325.25,-30 325.25,-24 325.25,-24 325.25,-12 325.25,-12 325.25,-6 331.25,0 337.25,0 337.25,0 463.5,0 463.5,0 469.5,0 475.5,-6 475.5,-12 475.5,-12 475.5,-24 475.5,-24 475.5,-30 469.5,-36 463.5,-36"/>
<text text-anchor="middle" x="400.38" y="-12.95" font-family="Times,serif" font-size="14.00">locus_breaker_clumping</text>
</g>
<!-- gwas_catalog_study_index&#45;&gt;locus_breaker_clumping -->
<g id="edge2" class="edge">
<title>gwas_catalog_study_index&#45;&gt;locus_breaker_clumping</title>
<path fill="none" stroke="black" d="M525.22,-18C533.62,-18 542.17,-18 550.61,-18"/>
<polygon fill="black" stroke="black" points="550.84,-21.5 560.84,-18 550.84,-14.5 550.84,-21.5"/>
</g>
<!-- locus_breaker_clumping&#45;&gt;delete_cluster_otg&#45;gwas&#45;catalog&#45;sumstat&#45;susie&#45;clumping -->
<g id="edge3" class="edge">
<title>locus_breaker_clumping&#45;&gt;delete_cluster_otg&#45;gwas&#45;catalog&#45;sumstat&#45;susie&#45;clumping</title>
<path fill="none" stroke="black" d="M712.32,-18C720.42,-18 728.88,-18 737.56,-18"/>
<polygon fill="black" stroke="black" points="737.83,-21.5 747.83,-18 737.83,-14.5 737.83,-21.5"/>
</g>
</g>
</svg>
