<?xml version="1.0" encoding="UTF-8" standalone="no"?>
<!DOCTYPE svg PUBLIC "-//W3C//DTD SVG 1.1//EN"
 "http://www.w3.org/Graphics/SVG/1.1/DTD/svg11.dtd">
<!-- Generated by graphviz version 12.2.1 (20241206.2353)
 -->
<!-- Title: gwas_catalog_heritability_estimate Pages: 1 -->
<svg width="426pt" height="69pt"
 viewBox="0.00 0.00 426.25 68.50" xmlns="http://www.w3.org/2000/svg" xmlns:xlink="http://www.w3.org/1999/xlink">
<g id="graph0" class="graph" transform="scale(1 1) rotate(0) translate(4 64.5)">
<title>gwas_catalog_heritability_estimate</title>
<polygon fill="white" stroke="none" points="-4,4 -4,-64.5 422.25,-64.5 422.25,4 -4,4"/>
<text text-anchor="middle" x="209.12" y="-43.2" font-family="Times,serif" font-size="14.00">gwas_catalog_heritability_estimate</text>
<!-- heritability_estimate.batch_index -->
<g id="node1" class="node">
<title>heritability_estimate.batch_index</title>
<path fill="#ffffff" stroke="#000000" d="M185.5,-36C185.5,-36 12,-36 12,-36 6,-36 0,-30 0,-24 0,-24 0,-12 0,-12 0,-6 6,0 12,0 12,0 185.5,0 185.5,0 191.5,0 197.5,-6 197.5,-12 197.5,-12 197.5,-24 197.5,-24 197.5,-30 191.5,-36 185.5,-36"/>
<text text-anchor="middle" x="98.75" y="-12.95" font-family="Times,serif" font-size="14.00">heritability_estimate.batch_index</text>
</g>
<!-- heritability_estimate.batch_job -->
<g id="node2" class="node">
<title>heritability_estimate.batch_job</title>
<path fill="#ffffff" stroke="#000000" d="M406.25,-36C406.25,-36 245.5,-36 245.5,-36 239.5,-36 233.5,-30 233.5,-24 233.5,-24 233.5,-12 233.5,-12 233.5,-6 239.5,0 245.5,0 245.5,0 406.25,0 406.25,0 412.25,0 418.25,-6 418.25,-12 418.25,-12 418.25,-24 418.25,-24 418.25,-30 412.25,-36 406.25,-36"/>
<text text-anchor="middle" x="325.88" y="-12.95" font-family="Times,serif" font-size="14.00">heritability_estimate.batch_job</text>
</g>
<!-- heritability_estimate.batch_index&#45;&gt;heritability_estimate.batch_job -->
<g id="edge1" class="edge">
<title>heritability_estimate.batch_index&#45;&gt;heritability_estimate.batch_job</title>
<path fill="none" stroke="black" d="M197.84,-18C205.81,-18 213.88,-18 221.89,-18"/>
<polygon fill="black" stroke="black" points="221.63,-21.5 231.63,-18 221.63,-14.5 221.63,-21.5"/>
</g>
</g>
</svg>
