<?xml version="1.0" encoding="UTF-8" standalone="no"?>
<!DOCTYPE svg PUBLIC "-//W3C//DTD SVG 1.1//EN"
 "http://www.w3.org/Graphics/SVG/1.1/DTD/svg11.dtd">
<!-- Generated by graphviz version 2.43.0 (0)
 -->
<!-- Title: gwas_catalog_sumstats_pics Pages: 1 -->
<svg width="709pt" height="121pt"
 viewBox="0.00 0.00 709.00 121.00" xmlns="http://www.w3.org/2000/svg" xmlns:xlink="http://www.w3.org/1999/xlink">
<g id="graph0" class="graph" transform="scale(1 1) rotate(0) translate(4 117)">
<title>gwas_catalog_sumstats_pics</title>
<polygon fill="white" stroke="transparent" points="-4,4 -4,-117 705,-117 705,4 -4,4"/>
<text text-anchor="middle" x="350.5" y="-97.8" font-family="Times,serif" font-size="14.00">gwas_catalog_sumstats_pics</text>
<!-- create_cluster -->
<g id="node1" class="node">
<title>create_cluster</title>
<path fill="#ffffff" stroke="#000000" d="M80,-63C80,-63 12,-63 12,-63 6,-63 0,-57 0,-51 0,-51 0,-39 0,-39 0,-33 6,-27 12,-27 12,-27 80,-27 80,-27 86,-27 92,-33 92,-39 92,-39 92,-51 92,-51 92,-57 86,-63 80,-63"/>
<text text-anchor="middle" x="46" y="-41.3" font-family="Times,serif" font-size="14.00">create_cluster</text>
</g>
<!-- gwas_catalog_study_index -->
<g id="node3" class="node">
<title>gwas_catalog_study_index</title>
<path fill="#ffffff" stroke="#000000" d="M471,-90C471,-90 332,-90 332,-90 326,-90 320,-84 320,-78 320,-78 320,-66 320,-66 320,-60 326,-54 332,-54 332,-54 471,-54 471,-54 477,-54 483,-60 483,-66 483,-66 483,-78 483,-78 483,-84 477,-90 471,-90"/>
<text text-anchor="middle" x="401.5" y="-68.3" font-family="Times,serif" font-size="14.00">gwas_catalog_study_index</text>
</g>
<!-- create_cluster&#45;&gt;gwas_catalog_study_index -->
<g id="edge1" class="edge">
<title>create_cluster&#45;&gt;gwas_catalog_study_index</title>
<path fill="none" stroke="black" d="M92.13,-48.45C146.77,-52.62 240.13,-59.75 309.84,-65.08"/>
<polygon fill="black" stroke="black" points="309.71,-68.58 319.95,-65.85 310.25,-61.6 309.71,-68.58"/>
</g>
<!-- window_based_clumping -->
<g id="node6" class="node">
<title>window_based_clumping</title>
<path fill="#ffffff" stroke="#000000" d="M272,-40C272,-40 140,-40 140,-40 134,-40 128,-34 128,-28 128,-28 128,-16 128,-16 128,-10 134,-4 140,-4 140,-4 272,-4 272,-4 278,-4 284,-10 284,-16 284,-16 284,-28 284,-28 284,-34 278,-40 272,-40"/>
<text text-anchor="middle" x="206" y="-18.3" font-family="Times,serif" font-size="14.00">window_based_clumping</text>
</g>
<!-- create_cluster&#45;&gt;window_based_clumping -->
<g id="edge2" class="edge">
<title>create_cluster&#45;&gt;window_based_clumping</title>
<path fill="none" stroke="black" d="M92.28,-38.41C100.36,-37.23 109.02,-35.97 117.82,-34.69"/>
<polygon fill="black" stroke="black" points="118.4,-38.14 127.79,-33.24 117.39,-31.22 118.4,-38.14"/>
</g>
<!-- delete_cluster -->
<g id="node2" class="node">
<title>delete_cluster</title>
<path fill="#ffffff" stroke="#000000" d="M689,-63C689,-63 621,-63 621,-63 615,-63 609,-57 609,-51 609,-51 609,-39 609,-39 609,-33 615,-27 621,-27 621,-27 689,-27 689,-27 695,-27 701,-33 701,-39 701,-39 701,-51 701,-51 701,-57 695,-63 689,-63"/>
<text text-anchor="middle" x="655" y="-41.3" font-family="Times,serif" font-size="14.00">delete_cluster</text>
</g>
<!-- gwas_catalog_study_index&#45;&gt;delete_cluster -->
<g id="edge3" class="edge">
<title>gwas_catalog_study_index&#45;&gt;delete_cluster</title>
<path fill="none" stroke="black" d="M483.11,-63.35C520.87,-59.29 564.89,-54.57 598.8,-50.93"/>
<polygon fill="black" stroke="black" points="599.41,-54.38 608.98,-49.83 598.66,-47.42 599.41,-54.38"/>
</g>
<!-- ld_based_clumping -->
<g id="node4" class="node">
<title>ld_based_clumping</title>
<path fill="#ffffff" stroke="#000000" d="M451,-36C451,-36 352,-36 352,-36 346,-36 340,-30 340,-24 340,-24 340,-12 340,-12 340,-6 346,0 352,0 352,0 451,0 451,0 457,0 463,-6 463,-12 463,-12 463,-24 463,-24 463,-30 457,-36 451,-36"/>
<text text-anchor="middle" x="401.5" y="-14.3" font-family="Times,serif" font-size="14.00">ld_based_clumping</text>
</g>
<!-- pics -->
<g id="node5" class="node">
<title>pics</title>
<path fill="#ffffff" stroke="#000000" d="M561,-40C561,-40 531,-40 531,-40 525,-40 519,-34 519,-28 519,-28 519,-16 519,-16 519,-10 525,-4 531,-4 531,-4 561,-4 561,-4 567,-4 573,-10 573,-16 573,-16 573,-28 573,-28 573,-34 567,-40 561,-40"/>
<text text-anchor="middle" x="546" y="-18.3" font-family="Times,serif" font-size="14.00">pics</text>
</g>
<!-- ld_based_clumping&#45;&gt;pics -->
<g id="edge4" class="edge">
<title>ld_based_clumping&#45;&gt;pics</title>
<path fill="none" stroke="black" d="M463.35,-19.71C478.78,-20.14 494.88,-20.59 508.66,-20.98"/>
<polygon fill="black" stroke="black" points="508.6,-24.48 518.7,-21.26 508.8,-17.48 508.6,-24.48"/>
</g>
<!-- pics&#45;&gt;delete_cluster -->
<g id="edge5" class="edge">
<title>pics&#45;&gt;delete_cluster</title>
<path fill="none" stroke="black" d="M573.18,-27.63C581.08,-29.33 590.07,-31.26 599.12,-33.2"/>
<polygon fill="black" stroke="black" points="598.4,-36.63 608.91,-35.31 599.87,-29.78 598.4,-36.63"/>
</g>
<!-- window_based_clumping&#45;&gt;ld_based_clumping -->
<g id="edge6" class="edge">
<title>window_based_clumping&#45;&gt;ld_based_clumping</title>
<path fill="none" stroke="black" d="M284.03,-20.41C299.1,-20.1 314.84,-19.77 329.7,-19.46"/>
<polygon fill="black" stroke="black" points="329.9,-22.96 339.82,-19.25 329.75,-15.96 329.9,-22.96"/>
</g>
</g>
</svg>
