<?xml version="1.0" encoding="UTF-8" standalone="no"?>
<!DOCTYPE svg PUBLIC "-//W3C//DTD SVG 1.1//EN"
 "http://www.w3.org/Graphics/SVG/1.1/DTD/svg11.dtd">
<!-- Generated by graphviz version 2.43.0 (0)
 -->
<!-- Title: gwas_catalog_sumstats_susie_finemapping Pages: 1 -->
<svg width="365pt" height="67pt"
 viewBox="0.00 0.00 365.00 67.00" xmlns="http://www.w3.org/2000/svg" xmlns:xlink="http://www.w3.org/1999/xlink">
<g id="graph0" class="graph" transform="scale(1 1) rotate(0) translate(4 63)">
<title>gwas_catalog_sumstats_susie_finemapping</title>
<polygon fill="white" stroke="transparent" points="-4,4 -4,-63 361,-63 361,4 -4,4"/>
<text text-anchor="middle" x="178.5" y="-43.8" font-family="Times,serif" font-size="14.00">gwas_catalog_sumstats_susie_finemapping</text>
<!-- finemapping_batch_job -->
<g id="node1" class="node">
<title>finemapping_batch_job</title>
<path fill="#ffffff" stroke="#000000" d="M345,-36C345,-36 223,-36 223,-36 217,-36 211,-30 211,-24 211,-24 211,-12 211,-12 211,-6 217,0 223,0 223,0 345,0 345,0 351,0 357,-6 357,-12 357,-12 357,-24 357,-24 357,-30 351,-36 345,-36"/>
<text text-anchor="middle" x="284" y="-14.3" font-family="Times,serif" font-size="14.00">finemapping_batch_job</text>
</g>
<!-- generate_finemapping_index -->
<g id="node2" class="node">
<title>generate_finemapping_index</title>
<path fill="#ffffff" stroke="#000000" d="M163,-36C163,-36 12,-36 12,-36 6,-36 0,-30 0,-24 0,-24 0,-12 0,-12 0,-6 6,0 12,0 12,0 163,0 163,0 169,0 175,-6 175,-12 175,-12 175,-24 175,-24 175,-30 169,-36 163,-36"/>
<text text-anchor="middle" x="87.5" y="-14.3" font-family="Times,serif" font-size="14.00">generate_finemapping_index</text>
</g>
<!-- generate_finemapping_index&#45;&gt;finemapping_batch_job -->
<g id="edge1" class="edge">
<title>generate_finemapping_index&#45;&gt;finemapping_batch_job</title>
<path fill="none" stroke="black" d="M175.23,-18C183.72,-18 192.33,-18 200.78,-18"/>
<polygon fill="black" stroke="black" points="201,-21.5 211,-18 201,-14.5 201,-21.5"/>
</g>
</g>
</svg>
