<?xml version="1.0" encoding="UTF-8" standalone="no"?>
<!DOCTYPE svg PUBLIC "-//W3C//DTD SVG 1.1//EN"
 "http://www.w3.org/Graphics/SVG/1.1/DTD/svg11.dtd">
<!-- Generated by graphviz version 2.43.0 (0)
 -->
<!-- Title: gwas_catalog_sumstats_susie_clumping Pages: 1 -->
<svg width="1082pt" height="67pt"
 viewBox="0.00 0.00 1082.00 67.00" xmlns="http://www.w3.org/2000/svg" xmlns:xlink="http://www.w3.org/1999/xlink">
<g id="graph0" class="graph" transform="scale(1 1) rotate(0) translate(4 63)">
<title>gwas_catalog_sumstats_susie_clumping</title>
<polygon fill="white" stroke="transparent" points="-4,4 -4,-63 1078,-63 1078,4 -4,4"/>
<text text-anchor="middle" x="537" y="-43.8" font-family="Times,serif" font-size="14.00">gwas_catalog_sumstats_susie_clumping</text>
<!-- create_cluster_otg&#45;gwas&#45;catalog&#45;sumstat&#45;susie&#45;clumping -->
<g id="node1" class="node">
<title>create_cluster_otg&#45;gwas&#45;catalog&#45;sumstat&#45;susie&#45;clumping</title>
<path fill="#ffffff" stroke="#000000" d="M314,-36C314,-36 12,-36 12,-36 6,-36 0,-30 0,-24 0,-24 0,-12 0,-12 0,-6 6,0 12,0 12,0 314,0 314,0 320,0 326,-6 326,-12 326,-12 326,-24 326,-24 326,-30 320,-36 314,-36"/>
<text text-anchor="middle" x="163" y="-14.3" font-family="Times,serif" font-size="14.00">create_cluster_otg&#45;gwas&#45;catalog&#45;sumstat&#45;susie&#45;clumping</text>
</g>
<!-- gwas_catalog_study_index -->
<g id="node3" class="node">
<title>gwas_catalog_study_index</title>
<path fill="#ffffff" stroke="#000000" d="M513,-36C513,-36 374,-36 374,-36 368,-36 362,-30 362,-24 362,-24 362,-12 362,-12 362,-6 368,0 374,0 374,0 513,0 513,0 519,0 525,-6 525,-12 525,-12 525,-24 525,-24 525,-30 519,-36 513,-36"/>
<text text-anchor="middle" x="443.5" y="-14.3" font-family="Times,serif" font-size="14.00">gwas_catalog_study_index</text>
</g>
<!-- create_cluster_otg&#45;gwas&#45;catalog&#45;sumstat&#45;susie&#45;clumping&#45;&gt;gwas_catalog_study_index -->
<g id="edge1" class="edge">
<title>create_cluster_otg&#45;gwas&#45;catalog&#45;sumstat&#45;susie&#45;clumping&#45;&gt;gwas_catalog_study_index</title>
<path fill="none" stroke="black" d="M326,-18C334.77,-18 343.41,-18 351.78,-18"/>
<polygon fill="black" stroke="black" points="351.85,-21.5 361.85,-18 351.85,-14.5 351.85,-21.5"/>
</g>
<!-- delete_cluster_otg&#45;gwas&#45;catalog&#45;sumstat&#45;susie&#45;clumping -->
<g id="node2" class="node">
<title>delete_cluster_otg&#45;gwas&#45;catalog&#45;sumstat&#45;susie&#45;clumping</title>
<path fill="#ffffff" stroke="#000000" d="M1062,-36C1062,-36 760,-36 760,-36 754,-36 748,-30 748,-24 748,-24 748,-12 748,-12 748,-6 754,0 760,0 760,0 1062,0 1062,0 1068,0 1074,-6 1074,-12 1074,-12 1074,-24 1074,-24 1074,-30 1068,-36 1062,-36"/>
<text text-anchor="middle" x="911" y="-14.3" font-family="Times,serif" font-size="14.00">delete_cluster_otg&#45;gwas&#45;catalog&#45;sumstat&#45;susie&#45;clumping</text>
</g>
<!-- locus_breaker_clumping -->
<g id="node4" class="node">
<title>locus_breaker_clumping</title>
<path fill="#ffffff" stroke="#000000" d="M700,-36C700,-36 573,-36 573,-36 567,-36 561,-30 561,-24 561,-24 561,-12 561,-12 561,-6 567,0 573,0 573,0 700,0 700,0 706,0 712,-6 712,-12 712,-12 712,-24 712,-24 712,-30 706,-36 700,-36"/>
<text text-anchor="middle" x="636.5" y="-14.3" font-family="Times,serif" font-size="14.00">locus_breaker_clumping</text>
</g>
<!-- gwas_catalog_study_index&#45;&gt;locus_breaker_clumping -->
<g id="edge2" class="edge">
<title>gwas_catalog_study_index&#45;&gt;locus_breaker_clumping</title>
<path fill="none" stroke="black" d="M525.22,-18C533.62,-18 542.17,-18 550.61,-18"/>
<polygon fill="black" stroke="black" points="550.84,-21.5 560.84,-18 550.84,-14.5 550.84,-21.5"/>
</g>
<!-- locus_breaker_clumping&#45;&gt;delete_cluster_otg&#45;gwas&#45;catalog&#45;sumstat&#45;susie&#45;clumping -->
<g id="edge3" class="edge">
<title>locus_breaker_clumping&#45;&gt;delete_cluster_otg&#45;gwas&#45;catalog&#45;sumstat&#45;susie&#45;clumping</title>
<path fill="none" stroke="black" d="M712.32,-18C720.42,-18 728.88,-18 737.56,-18"/>
<polygon fill="black" stroke="black" points="737.83,-21.5 747.83,-18 737.83,-14.5 737.83,-21.5"/>
</g>
</g>
</svg>
