<?xml version="1.0" encoding="UTF-8" standalone="no"?>
<!DOCTYPE svg PUBLIC "-//W3C//DTD SVG 1.1//EN"
 "http://www.w3.org/Graphics/SVG/1.1/DTD/svg11.dtd">
<!-- Generated by graphviz version 2.43.0 (0)
 -->
<!-- Title: gwas_catalog_sumstats_pics Pages: 1 -->
<svg width="1055pt" height="121pt"
 viewBox="0.00 0.00 1055.00 121.00" xmlns="http://www.w3.org/2000/svg" xmlns:xlink="http://www.w3.org/1999/xlink">
<g id="graph0" class="graph" transform="scale(1 1) rotate(0) translate(4 117)">
<title>gwas_catalog_sumstats_pics</title>
<polygon fill="white" stroke="transparent" points="-4,4 -4,-117 1051,-117 1051,4 -4,4"/>
<text text-anchor="middle" x="523.5" y="-97.8" font-family="Times,serif" font-size="14.00">gwas_catalog_sumstats_pics</text>
<!-- create_cluster_otg&#45;gwascatalog&#45;sumstats&#45;pics -->
<g id="node1" class="node">
<title>create_cluster_otg&#45;gwascatalog&#45;sumstats&#45;pics</title>
<path fill="#ffffff" stroke="#000000" d="M253,-63C253,-63 12,-63 12,-63 6,-63 0,-57 0,-51 0,-51 0,-39 0,-39 0,-33 6,-27 12,-27 12,-27 253,-27 253,-27 259,-27 265,-33 265,-39 265,-39 265,-51 265,-51 265,-57 259,-63 253,-63"/>
<text text-anchor="middle" x="132.5" y="-41.3" font-family="Times,serif" font-size="14.00">create_cluster_otg&#45;gwascatalog&#45;sumstats&#45;pics</text>
</g>
<!-- gwas_catalog_study_index -->
<g id="node3" class="node">
<title>gwas_catalog_study_index</title>
<path fill="#ffffff" stroke="#000000" d="M644,-90C644,-90 505,-90 505,-90 499,-90 493,-84 493,-78 493,-78 493,-66 493,-66 493,-60 499,-54 505,-54 505,-54 644,-54 644,-54 650,-54 656,-60 656,-66 656,-66 656,-78 656,-78 656,-84 650,-90 644,-90"/>
<text text-anchor="middle" x="574.5" y="-68.3" font-family="Times,serif" font-size="14.00">gwas_catalog_study_index</text>
</g>
<!-- create_cluster_otg&#45;gwascatalog&#45;sumstats&#45;pics&#45;&gt;gwas_catalog_study_index -->
<g id="edge1" class="edge">
<title>create_cluster_otg&#45;gwascatalog&#45;sumstats&#45;pics&#45;&gt;gwas_catalog_study_index</title>
<path fill="none" stroke="black" d="M265.22,-53.08C335.37,-57.39 419.87,-62.57 482.66,-66.43"/>
<polygon fill="black" stroke="black" points="482.74,-69.94 492.93,-67.06 483.17,-62.95 482.74,-69.94"/>
</g>
<!-- window_based_clumping -->
<g id="node6" class="node">
<title>window_based_clumping</title>
<path fill="#ffffff" stroke="#000000" d="M445,-40C445,-40 313,-40 313,-40 307,-40 301,-34 301,-28 301,-28 301,-16 301,-16 301,-10 307,-4 313,-4 313,-4 445,-4 445,-4 451,-4 457,-10 457,-16 457,-16 457,-28 457,-28 457,-34 451,-40 445,-40"/>
<text text-anchor="middle" x="379" y="-18.3" font-family="Times,serif" font-size="14.00">window_based_clumping</text>
</g>
<!-- create_cluster_otg&#45;gwascatalog&#45;sumstats&#45;pics&#45;&gt;window_based_clumping -->
<g id="edge2" class="edge">
<title>create_cluster_otg&#45;gwascatalog&#45;sumstats&#45;pics&#45;&gt;window_based_clumping</title>
<path fill="none" stroke="black" d="M265.05,-32.62C273.73,-31.81 282.35,-31 290.72,-30.21"/>
<polygon fill="black" stroke="black" points="291.18,-33.68 300.81,-29.26 290.53,-26.71 291.18,-33.68"/>
</g>
<!-- delete_cluster_otg&#45;gwascatalog&#45;sumstats&#45;pics -->
<g id="node2" class="node">
<title>delete_cluster_otg&#45;gwascatalog&#45;sumstats&#45;pics</title>
<path fill="#ffffff" stroke="#000000" d="M1035,-63C1035,-63 794,-63 794,-63 788,-63 782,-57 782,-51 782,-51 782,-39 782,-39 782,-33 788,-27 794,-27 794,-27 1035,-27 1035,-27 1041,-27 1047,-33 1047,-39 1047,-39 1047,-51 1047,-51 1047,-57 1041,-63 1035,-63"/>
<text text-anchor="middle" x="914.5" y="-41.3" font-family="Times,serif" font-size="14.00">delete_cluster_otg&#45;gwascatalog&#45;sumstats&#45;pics</text>
</g>
<!-- gwas_catalog_study_index&#45;&gt;delete_cluster_otg&#45;gwascatalog&#45;sumstats&#45;pics -->
<g id="edge3" class="edge">
<title>gwas_catalog_study_index&#45;&gt;delete_cluster_otg&#45;gwascatalog&#45;sumstats&#45;pics</title>
<path fill="none" stroke="black" d="M656.03,-65.57C690.68,-62.8 732.24,-59.48 771.76,-56.32"/>
<polygon fill="black" stroke="black" points="772.07,-59.81 781.76,-55.52 771.51,-52.83 772.07,-59.81"/>
</g>
<!-- ld_based_clumping -->
<g id="node4" class="node">
<title>ld_based_clumping</title>
<path fill="#ffffff" stroke="#000000" d="M624,-36C624,-36 525,-36 525,-36 519,-36 513,-30 513,-24 513,-24 513,-12 513,-12 513,-6 519,0 525,0 525,0 624,0 624,0 630,0 636,-6 636,-12 636,-12 636,-24 636,-24 636,-30 630,-36 624,-36"/>
<text text-anchor="middle" x="574.5" y="-14.3" font-family="Times,serif" font-size="14.00">ld_based_clumping</text>
</g>
<!-- pics -->
<g id="node5" class="node">
<title>pics</title>
<path fill="#ffffff" stroke="#000000" d="M734,-40C734,-40 704,-40 704,-40 698,-40 692,-34 692,-28 692,-28 692,-16 692,-16 692,-10 698,-4 704,-4 704,-4 734,-4 734,-4 740,-4 746,-10 746,-16 746,-16 746,-28 746,-28 746,-34 740,-40 734,-40"/>
<text text-anchor="middle" x="719" y="-18.3" font-family="Times,serif" font-size="14.00">pics</text>
</g>
<!-- ld_based_clumping&#45;&gt;pics -->
<g id="edge4" class="edge">
<title>ld_based_clumping&#45;&gt;pics</title>
<path fill="none" stroke="black" d="M636.35,-19.71C651.78,-20.14 667.88,-20.59 681.66,-20.98"/>
<polygon fill="black" stroke="black" points="681.6,-24.48 691.7,-21.26 681.8,-17.48 681.6,-24.48"/>
</g>
<!-- pics&#45;&gt;delete_cluster_otg&#45;gwascatalog&#45;sumstats&#45;pics -->
<g id="edge5" class="edge">
<title>pics&#45;&gt;delete_cluster_otg&#45;gwascatalog&#45;sumstats&#45;pics</title>
<path fill="none" stroke="black" d="M746.1,-25.1C753.6,-25.99 762.35,-27.03 771.84,-28.16"/>
<polygon fill="black" stroke="black" points="771.63,-31.66 781.98,-29.37 772.46,-24.71 771.63,-31.66"/>
</g>
<!-- window_based_clumping&#45;&gt;ld_based_clumping -->
<g id="edge6" class="edge">
<title>window_based_clumping&#45;&gt;ld_based_clumping</title>
<path fill="none" stroke="black" d="M457.03,-20.41C472.1,-20.1 487.84,-19.77 502.7,-19.46"/>
<polygon fill="black" stroke="black" points="502.9,-22.96 512.82,-19.25 502.75,-15.96 502.9,-22.96"/>
</g>
</g>
</svg>
