<?xml version="1.0" encoding="UTF-8" standalone="no"?>
<!DOCTYPE svg PUBLIC "-//W3C//DTD SVG 1.1//EN"
 "http://www.w3.org/Graphics/SVG/1.1/DTD/svg11.dtd">
<!-- Generated by graphviz version 2.43.0 (0)
 -->
<!-- Title: gwas_catalog_top_hits Pages: 1 -->
<svg width="966pt" height="67pt"
 viewBox="0.00 0.00 966.00 67.00" xmlns="http://www.w3.org/2000/svg" xmlns:xlink="http://www.w3.org/1999/xlink">
<g id="graph0" class="graph" transform="scale(1 1) rotate(0) translate(4 63)">
<title>gwas_catalog_top_hits</title>
<polygon fill="white" stroke="transparent" points="-4,4 -4,-63 962,-63 962,4 -4,4"/>
<text text-anchor="middle" x="479" y="-43.8" font-family="Times,serif" font-size="14.00">gwas_catalog_top_hits</text>
<!-- create_cluster_otg&#45;tophit&#45;gwascatalog -->
<g id="node1" class="node">
<title>create_cluster_otg&#45;tophit&#45;gwascatalog</title>
<path fill="#ffffff" stroke="#000000" d="M211,-36C211,-36 12,-36 12,-36 6,-36 0,-30 0,-24 0,-24 0,-12 0,-12 0,-6 6,0 12,0 12,0 211,0 211,0 217,0 223,-6 223,-12 223,-12 223,-24 223,-24 223,-30 217,-36 211,-36"/>
<text text-anchor="middle" x="111.5" y="-14.3" font-family="Times,serif" font-size="14.00">create_cluster_otg&#45;tophit&#45;gwascatalog</text>
</g>
<!-- gwas_catalog_top_hit_ingestion -->
<g id="node3" class="node">
<title>gwas_catalog_top_hit_ingestion</title>
<path fill="#ffffff" stroke="#000000" d="M438,-36C438,-36 271,-36 271,-36 265,-36 259,-30 259,-24 259,-24 259,-12 259,-12 259,-6 265,0 271,0 271,0 438,0 438,0 444,0 450,-6 450,-12 450,-12 450,-24 450,-24 450,-30 444,-36 438,-36"/>
<text text-anchor="middle" x="354.5" y="-14.3" font-family="Times,serif" font-size="14.00">gwas_catalog_top_hit_ingestion</text>
</g>
<!-- create_cluster_otg&#45;tophit&#45;gwascatalog&#45;&gt;gwas_catalog_top_hit_ingestion -->
<g id="edge1" class="edge">
<title>create_cluster_otg&#45;tophit&#45;gwascatalog&#45;&gt;gwas_catalog_top_hit_ingestion</title>
<path fill="none" stroke="black" d="M223.13,-18C231.57,-18 240.08,-18 248.49,-18"/>
<polygon fill="black" stroke="black" points="248.68,-21.5 258.68,-18 248.68,-14.5 248.68,-21.5"/>
</g>
<!-- delete_cluster_otg&#45;tophit&#45;gwascatalog -->
<g id="node2" class="node">
<title>delete_cluster_otg&#45;tophit&#45;gwascatalog</title>
<path fill="#ffffff" stroke="#000000" d="M946,-36C946,-36 747,-36 747,-36 741,-36 735,-30 735,-24 735,-24 735,-12 735,-12 735,-6 741,0 747,0 747,0 946,0 946,0 952,0 958,-6 958,-12 958,-12 958,-24 958,-24 958,-30 952,-36 946,-36"/>
<text text-anchor="middle" x="846.5" y="-14.3" font-family="Times,serif" font-size="14.00">delete_cluster_otg&#45;tophit&#45;gwascatalog</text>
</g>
<!-- ld_based_clumping -->
<g id="node4" class="node">
<title>ld_based_clumping</title>
<path fill="#ffffff" stroke="#000000" d="M597,-36C597,-36 498,-36 498,-36 492,-36 486,-30 486,-24 486,-24 486,-12 486,-12 486,-6 492,0 498,0 498,0 597,0 597,0 603,0 609,-6 609,-12 609,-12 609,-24 609,-24 609,-30 603,-36 597,-36"/>
<text text-anchor="middle" x="547.5" y="-14.3" font-family="Times,serif" font-size="14.00">ld_based_clumping</text>
</g>
<!-- gwas_catalog_top_hit_ingestion&#45;&gt;ld_based_clumping -->
<g id="edge2" class="edge">
<title>gwas_catalog_top_hit_ingestion&#45;&gt;ld_based_clumping</title>
<path fill="none" stroke="black" d="M450.16,-18C458.76,-18 467.38,-18 475.72,-18"/>
<polygon fill="black" stroke="black" points="475.74,-21.5 485.74,-18 475.74,-14.5 475.74,-21.5"/>
</g>
<!-- pics -->
<g id="node5" class="node">
<title>pics</title>
<path fill="#ffffff" stroke="#000000" d="M687,-36C687,-36 657,-36 657,-36 651,-36 645,-30 645,-24 645,-24 645,-12 645,-12 645,-6 651,0 657,0 657,0 687,0 687,0 693,0 699,-6 699,-12 699,-12 699,-24 699,-24 699,-30 693,-36 687,-36"/>
<text text-anchor="middle" x="672" y="-14.3" font-family="Times,serif" font-size="14.00">pics</text>
</g>
<!-- ld_based_clumping&#45;&gt;pics -->
<g id="edge3" class="edge">
<title>ld_based_clumping&#45;&gt;pics</title>
<path fill="none" stroke="black" d="M609.03,-18C617.83,-18 626.66,-18 634.77,-18"/>
<polygon fill="black" stroke="black" points="634.97,-21.5 644.97,-18 634.97,-14.5 634.97,-21.5"/>
</g>
<!-- pics&#45;&gt;delete_cluster_otg&#45;tophit&#45;gwascatalog -->
<g id="edge4" class="edge">
<title>pics&#45;&gt;delete_cluster_otg&#45;tophit&#45;gwascatalog</title>
<path fill="none" stroke="black" d="M699.2,-18C706.75,-18 715.53,-18 724.96,-18"/>
<polygon fill="black" stroke="black" points="724.99,-21.5 734.99,-18 724.99,-14.5 724.99,-21.5"/>
</g>
</g>
</svg>
