<?xml version="1.0" encoding="UTF-8" standalone="no"?>
<!DOCTYPE svg PUBLIC "-//W3C//DTD SVG 1.1//EN"
 "http://www.w3.org/Graphics/SVG/1.1/DTD/svg11.dtd">
<!-- Generated by graphviz version 14.0.0 (20250921.2048)
 -->
<!-- Title: gwas_catalog_sumstats_pics Pages: 1 -->
<svg width="706pt" height="123pt"
 viewBox="0.00 0.00 706.00 123.00" xmlns="http://www.w3.org/2000/svg" xmlns:xlink="http://www.w3.org/1999/xlink">
<g id="graph0" class="graph" transform="scale(1 1) rotate(0) translate(4 118.5)">
<title>gwas_catalog_sumstats_pics</title>
<polygon fill="white" stroke="none" points="-4,4 -4,-118.5 701.75,-118.5 701.75,4 -4,4"/>
<text xml:space="preserve" text-anchor="middle" x="348.88" y="-97.2" font-family="Times,serif" font-size="14.00">gwas_catalog_sumstats_pics</text>
<!-- create_cluster -->
<g id="node1" class="node">
<title>create_cluster</title>
<path fill="#ffffff" stroke="#000000" d="M79,-63C79,-63 12,-63 12,-63 6,-63 0,-57 0,-51 0,-51 0,-39 0,-39 0,-33 6,-27 12,-27 12,-27 79,-27 79,-27 85,-27 91,-33 91,-39 91,-39 91,-51 91,-51 91,-57 85,-63 79,-63"/>
<text xml:space="preserve" text-anchor="middle" x="45.5" y="-39.95" font-family="Times,serif" font-size="14.00">create_cluster</text>
</g>
<!-- gwas_catalog_study_index -->
<g id="node3" class="node">
<title>gwas_catalog_study_index</title>
<path fill="#ffffff" stroke="#000000" d="M468.75,-90C468.75,-90 330.5,-90 330.5,-90 324.5,-90 318.5,-84 318.5,-78 318.5,-78 318.5,-66 318.5,-66 318.5,-60 324.5,-54 330.5,-54 330.5,-54 468.75,-54 468.75,-54 474.75,-54 480.75,-60 480.75,-66 480.75,-66 480.75,-78 480.75,-78 480.75,-84 474.75,-90 468.75,-90"/>
<text xml:space="preserve" text-anchor="middle" x="399.62" y="-66.95" font-family="Times,serif" font-size="14.00">gwas_catalog_study_index</text>
</g>
<!-- create_cluster&#45;&gt;gwas_catalog_study_index -->
<g id="edge1" class="edge">
<title>create_cluster&#45;&gt;gwas_catalog_study_index</title>
<path fill="none" stroke="black" d="M91.45,-48.45C145.46,-52.59 237.44,-59.64 306.7,-64.95"/>
<polygon fill="black" stroke="black" points="306.3,-68.43 316.54,-65.71 306.83,-61.45 306.3,-68.43"/>
</g>
<!-- window_based_clumping -->
<g id="node6" class="node">
<title>window_based_clumping</title>
<path fill="#ffffff" stroke="#000000" d="M270.5,-40C270.5,-40 139,-40 139,-40 133,-40 127,-34 127,-28 127,-28 127,-16 127,-16 127,-10 133,-4 139,-4 139,-4 270.5,-4 270.5,-4 276.5,-4 282.5,-10 282.5,-16 282.5,-16 282.5,-28 282.5,-28 282.5,-34 276.5,-40 270.5,-40"/>
<text xml:space="preserve" text-anchor="middle" x="204.75" y="-16.95" font-family="Times,serif" font-size="14.00">window_based_clumping</text>
</g>
<!-- create_cluster&#45;&gt;window_based_clumping -->
<g id="edge2" class="edge">
<title>create_cluster&#45;&gt;window_based_clumping</title>
<path fill="none" stroke="black" d="M91.14,-38.47C98.76,-37.36 106.9,-36.17 115.19,-34.95"/>
<polygon fill="black" stroke="black" points="115.67,-38.42 125.06,-33.51 114.66,-31.49 115.67,-38.42"/>
</g>
<!-- delete_cluster -->
<g id="node2" class="node">
<title>delete_cluster</title>
<path fill="#ffffff" stroke="#000000" d="M685.75,-63C685.75,-63 618.75,-63 618.75,-63 612.75,-63 606.75,-57 606.75,-51 606.75,-51 606.75,-39 606.75,-39 606.75,-33 612.75,-27 618.75,-27 618.75,-27 685.75,-27 685.75,-27 691.75,-27 697.75,-33 697.75,-39 697.75,-39 697.75,-51 697.75,-51 697.75,-57 691.75,-63 685.75,-63"/>
<text xml:space="preserve" text-anchor="middle" x="652.25" y="-39.95" font-family="Times,serif" font-size="14.00">delete_cluster</text>
</g>
<!-- gwas_catalog_study_index&#45;&gt;delete_cluster -->
<g id="edge3" class="edge">
<title>gwas_catalog_study_index&#45;&gt;delete_cluster</title>
<path fill="none" stroke="black" d="M480.96,-63.35C518.26,-59.33 561.7,-54.65 595.37,-51.02"/>
<polygon fill="black" stroke="black" points="595.31,-54.55 604.88,-50 594.56,-47.59 595.31,-54.55"/>
</g>
<!-- ld_based_clumping -->
<g id="node4" class="node">
<title>ld_based_clumping</title>
<path fill="#ffffff" stroke="#000000" d="M448.88,-36C448.88,-36 350.38,-36 350.38,-36 344.38,-36 338.38,-30 338.38,-24 338.38,-24 338.38,-12 338.38,-12 338.38,-6 344.38,0 350.38,0 350.38,0 448.88,0 448.88,0 454.88,0 460.88,-6 460.88,-12 460.88,-12 460.88,-24 460.88,-24 460.88,-30 454.88,-36 448.88,-36"/>
<text xml:space="preserve" text-anchor="middle" x="399.62" y="-12.95" font-family="Times,serif" font-size="14.00">ld_based_clumping</text>
</g>
<!-- pics -->
<g id="node5" class="node">
<title>pics</title>
<path fill="#ffffff" stroke="#000000" d="M558.75,-40C558.75,-40 528.75,-40 528.75,-40 522.75,-40 516.75,-34 516.75,-28 516.75,-28 516.75,-16 516.75,-16 516.75,-10 522.75,-4 528.75,-4 528.75,-4 558.75,-4 558.75,-4 564.75,-4 570.75,-10 570.75,-16 570.75,-16 570.75,-28 570.75,-28 570.75,-34 564.75,-40 558.75,-40"/>
<text xml:space="preserve" text-anchor="middle" x="543.75" y="-16.95" font-family="Times,serif" font-size="14.00">pics</text>
</g>
<!-- ld_based_clumping&#45;&gt;pics -->
<g id="edge4" class="edge">
<title>ld_based_clumping&#45;&gt;pics</title>
<path fill="none" stroke="black" d="M461.31,-19.71C476.25,-20.13 491.81,-20.57 505.28,-20.95"/>
<polygon fill="black" stroke="black" points="504.91,-24.44 515,-21.22 505.11,-17.44 504.91,-24.44"/>
</g>
<!-- pics&#45;&gt;delete_cluster -->
<g id="edge5" class="edge">
<title>pics&#45;&gt;delete_cluster</title>
<path fill="none" stroke="black" d="M571.08,-27.69C578.53,-29.29 586.94,-31.11 595.43,-32.94"/>
<polygon fill="black" stroke="black" points="594.58,-36.34 605.09,-35.03 596.06,-29.5 594.58,-36.34"/>
</g>
<!-- window_based_clumping&#45;&gt;ld_based_clumping -->
<g id="edge6" class="edge">
<title>window_based_clumping&#45;&gt;ld_based_clumping</title>
<path fill="none" stroke="black" d="M282.81,-20.4C297.3,-20.1 312.4,-19.79 326.72,-19.49"/>
<polygon fill="black" stroke="black" points="326.58,-23 336.5,-19.29 326.43,-16 326.58,-23"/>
</g>
</g>
</svg>
