<?xml version="1.0" encoding="UTF-8" standalone="no"?>
<!DOCTYPE svg PUBLIC "-//W3C//DTD SVG 1.1//EN"
 "http://www.w3.org/Graphics/SVG/1.1/DTD/svg11.dtd">
<!-- Generated by graphviz version 12.2.1 (20241206.2353)
 -->
<!-- Title: gwas_catalog_top_hits Pages: 1 -->
<svg width="701pt" height="69pt"
 viewBox="0.00 0.00 701.25 68.50" xmlns="http://www.w3.org/2000/svg" xmlns:xlink="http://www.w3.org/1999/xlink">
<g id="graph0" class="graph" transform="scale(1 1) rotate(0) translate(4 64.5)">
<title>gwas_catalog_top_hits</title>
<polygon fill="white" stroke="none" points="-4,4 -4,-64.5 697.25,-64.5 697.25,4 -4,4"/>
<text text-anchor="middle" x="346.62" y="-43.2" font-family="Times,serif" font-size="14.00">gwas_catalog_top_hits</text>
<!-- create_cluster -->
<g id="node1" class="node">
<title>create_cluster</title>
<path fill="#ffffff" stroke="#000000" d="M79,-36C79,-36 12,-36 12,-36 6,-36 0,-30 0,-24 0,-24 0,-12 0,-12 0,-6 6,0 12,0 12,0 79,0 79,0 85,0 91,-6 91,-12 91,-12 91,-24 91,-24 91,-30 85,-36 79,-36"/>
<text text-anchor="middle" x="45.5" y="-12.95" font-family="Times,serif" font-size="14.00">create_cluster</text>
</g>
<!-- gwas_catalog_top_hit_ingestion -->
<g id="node3" class="node">
<title>gwas_catalog_top_hit_ingestion</title>
<path fill="#ffffff" stroke="#000000" d="M305.75,-36C305.75,-36 139,-36 139,-36 133,-36 127,-30 127,-24 127,-24 127,-12 127,-12 127,-6 133,0 139,0 139,0 305.75,0 305.75,0 311.75,0 317.75,-6 317.75,-12 317.75,-12 317.75,-24 317.75,-24 317.75,-30 311.75,-36 305.75,-36"/>
<text text-anchor="middle" x="222.38" y="-12.95" font-family="Times,serif" font-size="14.00">gwas_catalog_top_hit_ingestion</text>
</g>
<!-- create_cluster_otg&#45;tophit&#45;gwascatalog&#45;&gt;gwas_catalog_top_hit_ingestion -->
<g id="edge1" class="edge">
<title>create_cluster_otg&#45;tophit&#45;gwascatalog&#45;&gt;gwas_catalog_top_hit_ingestion</title>
<path fill="none" stroke="black" d="M223.13,-18C231.57,-18 240.08,-18 248.49,-18"/>
<polygon fill="black" stroke="black" points="248.68,-21.5 258.68,-18 248.68,-14.5 248.68,-21.5"/>
</g>
<!-- delete_cluster_otg&#45;tophit&#45;gwascatalog -->
<g id="node2" class="node">
<title>delete_cluster</title>
<path fill="#ffffff" stroke="#000000" d="M681.25,-36C681.25,-36 614.25,-36 614.25,-36 608.25,-36 602.25,-30 602.25,-24 602.25,-24 602.25,-12 602.25,-12 602.25,-6 608.25,0 614.25,0 614.25,0 681.25,0 681.25,0 687.25,0 693.25,-6 693.25,-12 693.25,-12 693.25,-24 693.25,-24 693.25,-30 687.25,-36 681.25,-36"/>
<text text-anchor="middle" x="647.75" y="-12.95" font-family="Times,serif" font-size="14.00">delete_cluster</text>
</g>
<!-- ld_based_clumping -->
<g id="node4" class="node">
<title>ld_based_clumping</title>
<path fill="#ffffff" stroke="#000000" d="M464.25,-36C464.25,-36 365.75,-36 365.75,-36 359.75,-36 353.75,-30 353.75,-24 353.75,-24 353.75,-12 353.75,-12 353.75,-6 359.75,0 365.75,0 365.75,0 464.25,0 464.25,0 470.25,0 476.25,-6 476.25,-12 476.25,-12 476.25,-24 476.25,-24 476.25,-30 470.25,-36 464.25,-36"/>
<text text-anchor="middle" x="415" y="-12.95" font-family="Times,serif" font-size="14.00">ld_based_clumping</text>
</g>
<!-- gwas_catalog_top_hit_ingestion&#45;&gt;ld_based_clumping -->
<g id="edge2" class="edge">
<title>gwas_catalog_top_hit_ingestion&#45;&gt;ld_based_clumping</title>
<path fill="none" stroke="black" d="M450.16,-18C458.76,-18 467.38,-18 475.72,-18"/>
<polygon fill="black" stroke="black" points="475.74,-21.5 485.74,-18 475.74,-14.5 475.74,-21.5"/>
</g>
<!-- pics -->
<g id="node5" class="node">
<title>pics</title>
<path fill="#ffffff" stroke="#000000" d="M554.25,-36C554.25,-36 524.25,-36 524.25,-36 518.25,-36 512.25,-30 512.25,-24 512.25,-24 512.25,-12 512.25,-12 512.25,-6 518.25,0 524.25,0 524.25,0 554.25,0 554.25,0 560.25,0 566.25,-6 566.25,-12 566.25,-12 566.25,-24 566.25,-24 566.25,-30 560.25,-36 554.25,-36"/>
<text text-anchor="middle" x="539.25" y="-12.95" font-family="Times,serif" font-size="14.00">pics</text>
</g>
<!-- ld_based_clumping&#45;&gt;pics -->
<g id="edge3" class="edge">
<title>ld_based_clumping&#45;&gt;pics</title>
<path fill="none" stroke="black" d="M609.03,-18C617.83,-18 626.66,-18 634.77,-18"/>
<polygon fill="black" stroke="black" points="634.97,-21.5 644.97,-18 634.97,-14.5 634.97,-21.5"/>
</g>
<!-- pics&#45;&gt;delete_cluster_otg&#45;tophit&#45;gwascatalog -->
<g id="edge4" class="edge">
<title>pics&#45;&gt;delete_cluster_otg&#45;tophit&#45;gwascatalog</title>
<path fill="none" stroke="black" d="M699.2,-18C706.75,-18 715.53,-18 724.96,-18"/>
<polygon fill="black" stroke="black" points="724.99,-21.5 734.99,-18 724.99,-14.5 724.99,-21.5"/>
</g>
</g>
</svg>
