<?xml version="1.0" encoding="UTF-8" standalone="no"?>
<!DOCTYPE svg PUBLIC "-//W3C//DTD SVG 1.1//EN"
 "http://www.w3.org/Graphics/SVG/1.1/DTD/svg11.dtd">
<!-- Generated by graphviz version 2.43.0 (0)
 -->
<!-- Title: gwas_catalog_top_hits Pages: 1 -->
<svg width="704pt" height="67pt"
 viewBox="0.00 0.00 704.00 67.00" xmlns="http://www.w3.org/2000/svg" xmlns:xlink="http://www.w3.org/1999/xlink">
<g id="graph0" class="graph" transform="scale(1 1) rotate(0) translate(4 63)">
<title>gwas_catalog_top_hits</title>
<polygon fill="white" stroke="transparent" points="-4,4 -4,-63 700,-63 700,4 -4,4"/>
<text text-anchor="middle" x="348" y="-43.8" font-family="Times,serif" font-size="14.00">gwas_catalog_top_hits</text>
<!-- create_cluster -->
<g id="node1" class="node">
<title>create_cluster</title>
<path fill="#ffffff" stroke="#000000" d="M80,-36C80,-36 12,-36 12,-36 6,-36 0,-30 0,-24 0,-24 0,-12 0,-12 0,-6 6,0 12,0 12,0 80,0 80,0 86,0 92,-6 92,-12 92,-12 92,-24 92,-24 92,-30 86,-36 80,-36"/>
<text text-anchor="middle" x="46" y="-14.3" font-family="Times,serif" font-size="14.00">create_cluster</text>
</g>
<!-- gwas_catalog_top_hit_ingestion -->
<g id="node3" class="node">
<title>gwas_catalog_top_hit_ingestion</title>
<path fill="#ffffff" stroke="#000000" d="M307,-36C307,-36 140,-36 140,-36 134,-36 128,-30 128,-24 128,-24 128,-12 128,-12 128,-6 134,0 140,0 140,0 307,0 307,0 313,0 319,-6 319,-12 319,-12 319,-24 319,-24 319,-30 313,-36 307,-36"/>
<text text-anchor="middle" x="223.5" y="-14.3" font-family="Times,serif" font-size="14.00">gwas_catalog_top_hit_ingestion</text>
</g>
<!-- create_cluster&#45;&gt;gwas_catalog_top_hit_ingestion -->
<g id="edge1" class="edge">
<title>create_cluster&#45;&gt;gwas_catalog_top_hit_ingestion</title>
<path fill="none" stroke="black" d="M92.2,-18C100.24,-18 108.91,-18 117.83,-18"/>
<polygon fill="black" stroke="black" points="117.97,-21.5 127.97,-18 117.97,-14.5 117.97,-21.5"/>
</g>
<!-- delete_cluster -->
<g id="node2" class="node">
<title>delete_cluster</title>
<path fill="#ffffff" stroke="#000000" d="M684,-36C684,-36 616,-36 616,-36 610,-36 604,-30 604,-24 604,-24 604,-12 604,-12 604,-6 610,0 616,0 616,0 684,0 684,0 690,0 696,-6 696,-12 696,-12 696,-24 696,-24 696,-30 690,-36 684,-36"/>
<text text-anchor="middle" x="650" y="-14.3" font-family="Times,serif" font-size="14.00">delete_cluster</text>
</g>
<!-- ld_based_clumping -->
<g id="node4" class="node">
<title>ld_based_clumping</title>
<path fill="#ffffff" stroke="#000000" d="M466,-36C466,-36 367,-36 367,-36 361,-36 355,-30 355,-24 355,-24 355,-12 355,-12 355,-6 361,0 367,0 367,0 466,0 466,0 472,0 478,-6 478,-12 478,-12 478,-24 478,-24 478,-30 472,-36 466,-36"/>
<text text-anchor="middle" x="416.5" y="-14.3" font-family="Times,serif" font-size="14.00">ld_based_clumping</text>
</g>
<!-- gwas_catalog_top_hit_ingestion&#45;&gt;ld_based_clumping -->
<g id="edge2" class="edge">
<title>gwas_catalog_top_hit_ingestion&#45;&gt;ld_based_clumping</title>
<path fill="none" stroke="black" d="M319.16,-18C327.76,-18 336.38,-18 344.72,-18"/>
<polygon fill="black" stroke="black" points="344.74,-21.5 354.74,-18 344.74,-14.5 344.74,-21.5"/>
</g>
<!-- pics -->
<g id="node5" class="node">
<title>pics</title>
<path fill="#ffffff" stroke="#000000" d="M556,-36C556,-36 526,-36 526,-36 520,-36 514,-30 514,-24 514,-24 514,-12 514,-12 514,-6 520,0 526,0 526,0 556,0 556,0 562,0 568,-6 568,-12 568,-12 568,-24 568,-24 568,-30 562,-36 556,-36"/>
<text text-anchor="middle" x="541" y="-14.3" font-family="Times,serif" font-size="14.00">pics</text>
</g>
<!-- ld_based_clumping&#45;&gt;pics -->
<g id="edge3" class="edge">
<title>ld_based_clumping&#45;&gt;pics</title>
<path fill="none" stroke="black" d="M478.03,-18C486.83,-18 495.66,-18 503.77,-18"/>
<polygon fill="black" stroke="black" points="503.97,-21.5 513.97,-18 503.97,-14.5 503.97,-21.5"/>
</g>
<!-- pics&#45;&gt;delete_cluster -->
<g id="edge4" class="edge">
<title>pics&#45;&gt;delete_cluster</title>
<path fill="none" stroke="black" d="M568.18,-18C576,-18 584.88,-18 593.83,-18"/>
<polygon fill="black" stroke="black" points="593.91,-21.5 603.91,-18 593.91,-14.5 593.91,-21.5"/>
</g>
</g>
</svg>
