<?xml version="1.0" encoding="UTF-8" standalone="no"?>
<!DOCTYPE svg PUBLIC "-//W3C//DTD SVG 1.1//EN"
 "http://www.w3.org/Graphics/SVG/1.1/DTD/svg11.dtd">
<!-- Generated by graphviz version 12.2.1 (20241206.2353)
 -->
<!-- Title: gwas_catalog_sumstats_susie_finemapping Pages: 1 -->
<svg width="363pt" height="69pt"
 viewBox="0.00 0.00 363.25 68.50" xmlns="http://www.w3.org/2000/svg" xmlns:xlink="http://www.w3.org/1999/xlink">
<g id="graph0" class="graph" transform="scale(1 1) rotate(0) translate(4 64.5)">
<title>gwas_catalog_sumstats_susie_finemapping</title>
<polygon fill="white" stroke="none" points="-4,4 -4,-64.5 359.25,-64.5 359.25,4 -4,4"/>
<text text-anchor="middle" x="177.62" y="-43.2" font-family="Times,serif" font-size="14.00">gwas_catalog_sumstats_susie_finemapping</text>
<!-- finemapping_batch_job -->
<g id="node1" class="node">
<title>finemapping_batch_job</title>
<path fill="#ffffff" stroke="#000000" d="M343.25,-36C343.25,-36 222.25,-36 222.25,-36 216.25,-36 210.25,-30 210.25,-24 210.25,-24 210.25,-12 210.25,-12 210.25,-6 216.25,0 222.25,0 222.25,0 343.25,0 343.25,0 349.25,0 355.25,-6 355.25,-12 355.25,-12 355.25,-24 355.25,-24 355.25,-30 349.25,-36 343.25,-36"/>
<text text-anchor="middle" x="282.75" y="-12.95" font-family="Times,serif" font-size="14.00">finemapping_batch_job</text>
</g>
<!-- generate_finemapping_index -->
<g id="node2" class="node">
<title>generate_finemapping_index</title>
<path fill="#ffffff" stroke="#000000" d="M162.25,-36C162.25,-36 12,-36 12,-36 6,-36 0,-30 0,-24 0,-24 0,-12 0,-12 0,-6 6,0 12,0 12,0 162.25,0 162.25,0 168.25,0 174.25,-6 174.25,-12 174.25,-12 174.25,-24 174.25,-24 174.25,-30 168.25,-36 162.25,-36"/>
<text text-anchor="middle" x="87.12" y="-12.95" font-family="Times,serif" font-size="14.00">generate_finemapping_index</text>
</g>
<!-- generate_finemapping_index&#45;&gt;finemapping_batch_job -->
<g id="edge1" class="edge">
<title>generate_finemapping_index&#45;&gt;finemapping_batch_job</title>
<path fill="none" stroke="black" d="M174.74,-18C182.66,-18 190.67,-18 198.55,-18"/>
<polygon fill="black" stroke="black" points="198.48,-21.5 208.48,-18 198.48,-14.5 198.48,-21.5"/>
</g>
</g>
</svg>
