<?xml version="1.0" encoding="UTF-8" standalone="no"?>
<!DOCTYPE svg PUBLIC "-//W3C//DTD SVG 1.1//EN"
 "http://www.w3.org/Graphics/SVG/1.1/DTD/svg11.dtd">
<!-- Generated by graphviz version 2.43.0 (0)
 -->
<!-- Title: gwas_catalog_sumstats_susie_finemapping Pages: 1 -->
<svg width="312pt" height="67pt"
 viewBox="0.00 0.00 312.00 67.00" xmlns="http://www.w3.org/2000/svg" xmlns:xlink="http://www.w3.org/1999/xlink">
<g id="graph0" class="graph" transform="scale(1 1) rotate(0) translate(4 63)">
<title>gwas_catalog_sumstats_susie_finemapping</title>
<polygon fill="white" stroke="transparent" points="-4,4 -4,-63 308,-63 308,4 -4,4"/>
<text text-anchor="middle" x="152" y="-43.8" font-family="Times,serif" font-size="14.00">gwas_catalog_sumstats_susie_finemapping</text>
<!-- finemapping_batch_job -->
<g id="node1" class="node">
<title>finemapping_batch_job</title>
<path fill="#ffffff" stroke="#000000" d="M292,-36C292,-36 170,-36 170,-36 164,-36 158,-30 158,-24 158,-24 158,-12 158,-12 158,-6 164,0 170,0 170,0 292,0 292,0 298,0 304,-6 304,-12 304,-12 304,-24 304,-24 304,-30 298,-36 292,-36"/>
<text text-anchor="middle" x="231" y="-14.3" font-family="Times,serif" font-size="14.00">finemapping_batch_job</text>
</g>
<!-- generate_manifests -->
<g id="node2" class="node">
<title>generate_manifests</title>
<path fill="#ffffff" stroke="#000000" d="M110,-36C110,-36 12,-36 12,-36 6,-36 0,-30 0,-24 0,-24 0,-12 0,-12 0,-6 6,0 12,0 12,0 110,0 110,0 116,0 122,-6 122,-12 122,-12 122,-24 122,-24 122,-30 116,-36 110,-36"/>
<text text-anchor="middle" x="61" y="-14.3" font-family="Times,serif" font-size="14.00">generate_manifests</text>
</g>
<!-- generate_manifests&#45;&gt;finemapping_batch_job -->
<g id="edge1" class="edge">
<title>generate_manifests&#45;&gt;finemapping_batch_job</title>
<path fill="none" stroke="black" d="M122.18,-18C130.5,-18 139.16,-18 147.8,-18"/>
<polygon fill="black" stroke="black" points="147.91,-21.5 157.91,-18 147.91,-14.5 147.91,-21.5"/>
</g>
</g>
</svg>
