<?xml version="1.0" encoding="UTF-8" standalone="no"?>
<!DOCTYPE svg PUBLIC "-//W3C//DTD SVG 1.1//EN"
 "http://www.w3.org/Graphics/SVG/1.1/DTD/svg11.dtd">
<!-- Generated by graphviz version 2.43.0 (0)
 -->
<!-- Title: ukb_ppp_eur_harmonisation Pages: 1 -->
<svg width="652pt" height="67pt"
 viewBox="0.00 0.00 652.00 67.00" xmlns="http://www.w3.org/2000/svg" xmlns:xlink="http://www.w3.org/1999/xlink">
<g id="graph0" class="graph" transform="scale(1 1) rotate(0) translate(4 63)">
<title>ukb_ppp_eur_harmonisation</title>
<polygon fill="white" stroke="transparent" points="-4,4 -4,-63 648,-63 648,4 -4,4"/>
<text text-anchor="middle" x="322" y="-43.8" font-family="Times,serif" font-size="14.00">ukb_ppp_eur_harmonisation</text>
<!-- create_cluster -->
<g id="node1" class="node">
<title>create_cluster</title>
<path fill="#ffffff" stroke="#000000" d="M80,-36C80,-36 12,-36 12,-36 6,-36 0,-30 0,-24 0,-24 0,-12 0,-12 0,-6 6,0 12,0 12,0 80,0 80,0 86,0 92,-6 92,-12 92,-12 92,-24 92,-24 92,-30 86,-36 80,-36"/>
<text text-anchor="middle" x="46" y="-14.3" font-family="Times,serif" font-size="14.00">create_cluster</text>
</g>
<!-- ukb_ppp_eur_sumstat_preprocess -->
<g id="node4" class="node">
<title>ukb_ppp_eur_sumstat_preprocess</title>
<path fill="#ffffff" stroke="#000000" d="M317,-36C317,-36 140,-36 140,-36 134,-36 128,-30 128,-24 128,-24 128,-12 128,-12 128,-6 134,0 140,0 140,0 317,0 317,0 323,0 329,-6 329,-12 329,-12 329,-24 329,-24 329,-30 323,-36 317,-36"/>
<text text-anchor="middle" x="228.5" y="-14.3" font-family="Times,serif" font-size="14.00">ukb_ppp_eur_sumstat_preprocess</text>
</g>
<!-- create_cluster&#45;&gt;ukb_ppp_eur_sumstat_preprocess -->
<g id="edge1" class="edge">
<title>create_cluster&#45;&gt;ukb_ppp_eur_sumstat_preprocess</title>
<path fill="none" stroke="black" d="M92.08,-18C100.12,-18 108.81,-18 117.77,-18"/>
<polygon fill="black" stroke="black" points="117.97,-21.5 127.97,-18 117.97,-14.5 117.97,-21.5"/>
</g>
<!-- delete_cluster -->
<g id="node2" class="node">
<title>delete_cluster</title>
<path fill="#ffffff" stroke="#000000" d="M632,-36C632,-36 564,-36 564,-36 558,-36 552,-30 552,-24 552,-24 552,-12 552,-12 552,-6 558,0 564,0 564,0 632,0 632,0 638,0 644,-6 644,-12 644,-12 644,-24 644,-24 644,-30 638,-36 632,-36"/>
<text text-anchor="middle" x="598" y="-14.3" font-family="Times,serif" font-size="14.00">delete_cluster</text>
</g>
<!-- locus_breaker_clumping -->
<g id="node3" class="node">
<title>locus_breaker_clumping</title>
<path fill="#ffffff" stroke="#000000" d="M504,-36C504,-36 377,-36 377,-36 371,-36 365,-30 365,-24 365,-24 365,-12 365,-12 365,-6 371,0 377,0 377,0 504,0 504,0 510,0 516,-6 516,-12 516,-12 516,-24 516,-24 516,-30 510,-36 504,-36"/>
<text text-anchor="middle" x="440.5" y="-14.3" font-family="Times,serif" font-size="14.00">locus_breaker_clumping</text>
</g>
<!-- locus_breaker_clumping&#45;&gt;delete_cluster -->
<g id="edge2" class="edge">
<title>locus_breaker_clumping&#45;&gt;delete_cluster</title>
<path fill="none" stroke="black" d="M516.06,-18C524.61,-18 533.21,-18 541.45,-18"/>
<polygon fill="black" stroke="black" points="541.66,-21.5 551.66,-18 541.66,-14.5 541.66,-21.5"/>
</g>
<!-- ukb_ppp_eur_sumstat_preprocess&#45;&gt;locus_breaker_clumping -->
<g id="edge3" class="edge">
<title>ukb_ppp_eur_sumstat_preprocess&#45;&gt;locus_breaker_clumping</title>
<path fill="none" stroke="black" d="M329.27,-18C337.77,-18 346.32,-18 354.69,-18"/>
<polygon fill="black" stroke="black" points="354.8,-21.5 364.8,-18 354.8,-14.5 354.8,-21.5"/>
</g>
</g>
</svg>
