<?xml version="1.0" encoding="UTF-8" standalone="no"?>
<!DOCTYPE svg PUBLIC "-//W3C//DTD SVG 1.1//EN"
 "http://www.w3.org/Graphics/SVG/1.1/DTD/svg11.dtd">
<!-- Generated by graphviz version 12.2.1 (20241206.2353)
 -->
<!-- Title: ukb_ppp_eur_harmonisation Pages: 1 -->
<svg width="649pt" height="69pt"
 viewBox="0.00 0.00 648.75 68.50" xmlns="http://www.w3.org/2000/svg" xmlns:xlink="http://www.w3.org/1999/xlink">
<g id="graph0" class="graph" transform="scale(1 1) rotate(0) translate(4 64.5)">
<title>ukb_ppp_eur_harmonisation</title>
<polygon fill="white" stroke="none" points="-4,4 -4,-64.5 644.75,-64.5 644.75,4 -4,4"/>
<text text-anchor="middle" x="320.38" y="-43.2" font-family="Times,serif" font-size="14.00">ukb_ppp_eur_harmonisation</text>
<!-- create_cluster -->
<g id="node1" class="node">
<title>create_cluster</title>
<path fill="#ffffff" stroke="#000000" d="M79,-36C79,-36 12,-36 12,-36 6,-36 0,-30 0,-24 0,-24 0,-12 0,-12 0,-6 6,0 12,0 12,0 79,0 79,0 85,0 91,-6 91,-12 91,-12 91,-24 91,-24 91,-30 85,-36 79,-36"/>
<text text-anchor="middle" x="45.5" y="-12.95" font-family="Times,serif" font-size="14.00">create_cluster</text>
</g>
<!-- ukb_ppp_eur_sumstat_preprocess -->
<g id="node4" class="node">
<title>ukb_ppp_eur_sumstat_preprocess</title>
<path fill="#ffffff" stroke="#000000" d="M315.5,-36C315.5,-36 139,-36 139,-36 133,-36 127,-30 127,-24 127,-24 127,-12 127,-12 127,-6 133,0 139,0 139,0 315.5,0 315.5,0 321.5,0 327.5,-6 327.5,-12 327.5,-12 327.5,-24 327.5,-24 327.5,-30 321.5,-36 315.5,-36"/>
<text text-anchor="middle" x="227.25" y="-12.95" font-family="Times,serif" font-size="14.00">ukb_ppp_eur_sumstat_preprocess</text>
</g>
<!-- create_cluster_otg&#45;ukb&#45;ppp&#45;eur&#45;&gt;ukb_ppp_eur_sumstat_preprocess -->
<g id="edge1" class="edge">
<title>create_cluster_otg&#45;ukb&#45;ppp&#45;eur&#45;&gt;ukb_ppp_eur_sumstat_preprocess</title>
<path fill="none" stroke="black" d="M187.24,-18C195.65,-18 204.23,-18 212.78,-18"/>
<polygon fill="black" stroke="black" points="212.79,-21.5 222.79,-18 212.79,-14.5 212.79,-21.5"/>
</g>
<!-- delete_cluster_otg&#45;ukb&#45;ppp&#45;eur -->
<g id="node2" class="node">
<title>delete_cluster</title>
<path fill="#ffffff" stroke="#000000" d="M628.75,-36C628.75,-36 561.75,-36 561.75,-36 555.75,-36 549.75,-30 549.75,-24 549.75,-24 549.75,-12 549.75,-12 549.75,-6 555.75,0 561.75,0 561.75,0 628.75,0 628.75,0 634.75,0 640.75,-6 640.75,-12 640.75,-12 640.75,-24 640.75,-24 640.75,-30 634.75,-36 628.75,-36"/>
<text text-anchor="middle" x="595.25" y="-12.95" font-family="Times,serif" font-size="14.00">delete_cluster</text>
</g>
<!-- locus_breaker_clumping -->
<g id="node3" class="node">
<title>locus_breaker_clumping</title>
<path fill="#ffffff" stroke="#000000" d="M501.75,-36C501.75,-36 375.5,-36 375.5,-36 369.5,-36 363.5,-30 363.5,-24 363.5,-24 363.5,-12 363.5,-12 363.5,-6 369.5,0 375.5,0 375.5,0 501.75,0 501.75,0 507.75,0 513.75,-6 513.75,-12 513.75,-12 513.75,-24 513.75,-24 513.75,-30 507.75,-36 501.75,-36"/>
<text text-anchor="middle" x="438.62" y="-12.95" font-family="Times,serif" font-size="14.00">locus_breaker_clumping</text>
</g>
<!-- locus_breaker_clumping&#45;&gt;delete_cluster_otg&#45;ukb&#45;ppp&#45;eur -->
<g id="edge2" class="edge">
<title>locus_breaker_clumping&#45;&gt;delete_cluster_otg&#45;ukb&#45;ppp&#45;eur</title>
<path fill="none" stroke="black" d="M611.22,-18C619.51,-18 628.06,-18 636.62,-18"/>
<polygon fill="black" stroke="black" points="636.65,-21.5 646.65,-18 636.65,-14.5 636.65,-21.5"/>
</g>
<!-- ukb_ppp_eur_sumstat_preprocess&#45;&gt;locus_breaker_clumping -->
<g id="edge3" class="edge">
<title>ukb_ppp_eur_sumstat_preprocess&#45;&gt;locus_breaker_clumping</title>
<path fill="none" stroke="black" d="M424.27,-18C432.77,-18 441.32,-18 449.69,-18"/>
<polygon fill="black" stroke="black" points="449.8,-21.5 459.8,-18 449.8,-14.5 449.8,-21.5"/>
</g>
</g>
</svg>
