<?xml version="1.0" encoding="UTF-8" standalone="no"?>
<!DOCTYPE svg PUBLIC "-//W3C//DTD SVG 1.1//EN"
 "http://www.w3.org/Graphics/SVG/1.1/DTD/svg11.dtd">
<!-- Generated by graphviz version 2.43.0 (0)
 -->
<!-- Title: ukb_ppp_eur_harmonisation Pages: 1 -->
<svg width="842pt" height="67pt"
 viewBox="0.00 0.00 842.00 67.00" xmlns="http://www.w3.org/2000/svg" xmlns:xlink="http://www.w3.org/1999/xlink">
<g id="graph0" class="graph" transform="scale(1 1) rotate(0) translate(4 63)">
<title>ukb_ppp_eur_harmonisation</title>
<polygon fill="white" stroke="transparent" points="-4,4 -4,-63 838,-63 838,4 -4,4"/>
<text text-anchor="middle" x="417" y="-43.8" font-family="Times,serif" font-size="14.00">ukb_ppp_eur_harmonisation</text>
<!-- create_cluster_otg&#45;ukb&#45;ppp&#45;eur -->
<g id="node1" class="node">
<title>create_cluster_otg&#45;ukb&#45;ppp&#45;eur</title>
<path fill="#ffffff" stroke="#000000" d="M175,-36C175,-36 12,-36 12,-36 6,-36 0,-30 0,-24 0,-24 0,-12 0,-12 0,-6 6,0 12,0 12,0 175,0 175,0 181,0 187,-6 187,-12 187,-12 187,-24 187,-24 187,-30 181,-36 175,-36"/>
<text text-anchor="middle" x="93.5" y="-14.3" font-family="Times,serif" font-size="14.00">create_cluster_otg&#45;ukb&#45;ppp&#45;eur</text>
</g>
<!-- ukb_ppp_eur_sumstat_preprocess -->
<g id="node4" class="node">
<title>ukb_ppp_eur_sumstat_preprocess</title>
<path fill="#ffffff" stroke="#000000" d="M412,-36C412,-36 235,-36 235,-36 229,-36 223,-30 223,-24 223,-24 223,-12 223,-12 223,-6 229,0 235,0 235,0 412,0 412,0 418,0 424,-6 424,-12 424,-12 424,-24 424,-24 424,-30 418,-36 412,-36"/>
<text text-anchor="middle" x="323.5" y="-14.3" font-family="Times,serif" font-size="14.00">ukb_ppp_eur_sumstat_preprocess</text>
</g>
<!-- create_cluster_otg&#45;ukb&#45;ppp&#45;eur&#45;&gt;ukb_ppp_eur_sumstat_preprocess -->
<g id="edge1" class="edge">
<title>create_cluster_otg&#45;ukb&#45;ppp&#45;eur&#45;&gt;ukb_ppp_eur_sumstat_preprocess</title>
<path fill="none" stroke="black" d="M187.24,-18C195.65,-18 204.23,-18 212.78,-18"/>
<polygon fill="black" stroke="black" points="212.79,-21.5 222.79,-18 212.79,-14.5 212.79,-21.5"/>
</g>
<!-- delete_cluster_otg&#45;ukb&#45;ppp&#45;eur -->
<g id="node2" class="node">
<title>delete_cluster_otg&#45;ukb&#45;ppp&#45;eur</title>
<path fill="#ffffff" stroke="#000000" d="M822,-36C822,-36 659,-36 659,-36 653,-36 647,-30 647,-24 647,-24 647,-12 647,-12 647,-6 653,0 659,0 659,0 822,0 822,0 828,0 834,-6 834,-12 834,-12 834,-24 834,-24 834,-30 828,-36 822,-36"/>
<text text-anchor="middle" x="740.5" y="-14.3" font-family="Times,serif" font-size="14.00">delete_cluster_otg&#45;ukb&#45;ppp&#45;eur</text>
</g>
<!-- locus_breaker_clumping -->
<g id="node3" class="node">
<title>locus_breaker_clumping</title>
<path fill="#ffffff" stroke="#000000" d="M599,-36C599,-36 472,-36 472,-36 466,-36 460,-30 460,-24 460,-24 460,-12 460,-12 460,-6 466,0 472,0 472,0 599,0 599,0 605,0 611,-6 611,-12 611,-12 611,-24 611,-24 611,-30 605,-36 599,-36"/>
<text text-anchor="middle" x="535.5" y="-14.3" font-family="Times,serif" font-size="14.00">locus_breaker_clumping</text>
</g>
<!-- locus_breaker_clumping&#45;&gt;delete_cluster_otg&#45;ukb&#45;ppp&#45;eur -->
<g id="edge2" class="edge">
<title>locus_breaker_clumping&#45;&gt;delete_cluster_otg&#45;ukb&#45;ppp&#45;eur</title>
<path fill="none" stroke="black" d="M611.22,-18C619.51,-18 628.06,-18 636.62,-18"/>
<polygon fill="black" stroke="black" points="636.65,-21.5 646.65,-18 636.65,-14.5 636.65,-21.5"/>
</g>
<!-- ukb_ppp_eur_sumstat_preprocess&#45;&gt;locus_breaker_clumping -->
<g id="edge3" class="edge">
<title>ukb_ppp_eur_sumstat_preprocess&#45;&gt;locus_breaker_clumping</title>
<path fill="none" stroke="black" d="M424.27,-18C432.77,-18 441.32,-18 449.69,-18"/>
<polygon fill="black" stroke="black" points="449.8,-21.5 459.8,-18 449.8,-14.5 449.8,-21.5"/>
</g>
</g>
</svg>
