<?xml version="1.0" encoding="UTF-8" standalone="no"?>
<!DOCTYPE svg PUBLIC "-//W3C//DTD SVG 1.1//EN"
 "http://www.w3.org/Graphics/SVG/1.1/DTD/svg11.dtd">
<!-- Generated by graphviz version 2.43.0 (0)
 -->
<!-- Title: foldx_ingestion Pages: 1 -->
<svg width="651pt" height="67pt"
 viewBox="0.00 0.00 651.00 67.00" xmlns="http://www.w3.org/2000/svg" xmlns:xlink="http://www.w3.org/1999/xlink">
<g id="graph0" class="graph" transform="scale(1 1) rotate(0) translate(4 63)">
<title>foldx_ingestion</title>
<polygon fill="white" stroke="transparent" points="-4,4 -4,-63 647,-63 647,4 -4,4"/>
<text text-anchor="middle" x="321.5" y="-43.8" font-family="Times,serif" font-size="14.00">foldx_ingestion</text>
<!-- create_cluster_foldx&#45;ingestion -->
<g id="node1" class="node">
<title>create_cluster_foldx&#45;ingestion</title>
<path fill="#ffffff" stroke="#000000" d="M169,-36C169,-36 12,-36 12,-36 6,-36 0,-30 0,-24 0,-24 0,-12 0,-12 0,-6 6,0 12,0 12,0 169,0 169,0 175,0 181,-6 181,-12 181,-12 181,-24 181,-24 181,-30 175,-36 169,-36"/>
<text text-anchor="middle" x="90.5" y="-14.3" font-family="Times,serif" font-size="14.00">create_cluster_foldx&#45;ingestion</text>
</g>
<!-- foldx_variant_annotation_ingestion -->
<g id="node3" class="node">
<title>foldx_variant_annotation_ingestion</title>
<path fill="#ffffff" stroke="#000000" d="M414,-36C414,-36 229,-36 229,-36 223,-36 217,-30 217,-24 217,-24 217,-12 217,-12 217,-6 223,0 229,0 229,0 414,0 414,0 420,0 426,-6 426,-12 426,-12 426,-24 426,-24 426,-30 420,-36 414,-36"/>
<text text-anchor="middle" x="321.5" y="-14.3" font-family="Times,serif" font-size="14.00">foldx_variant_annotation_ingestion</text>
</g>
<!-- create_cluster_foldx&#45;ingestion&#45;&gt;foldx_variant_annotation_ingestion -->
<g id="edge1" class="edge">
<title>create_cluster_foldx&#45;ingestion&#45;&gt;foldx_variant_annotation_ingestion</title>
<path fill="none" stroke="black" d="M181.02,-18C189.5,-18 198.16,-18 206.82,-18"/>
<polygon fill="black" stroke="black" points="206.98,-21.5 216.98,-18 206.98,-14.5 206.98,-21.5"/>
</g>
<!-- delete_cluster_foldx&#45;ingestion -->
<g id="node2" class="node">
<title>delete_cluster_foldx&#45;ingestion</title>
<path fill="#ffffff" stroke="#000000" d="M631,-36C631,-36 474,-36 474,-36 468,-36 462,-30 462,-24 462,-24 462,-12 462,-12 462,-6 468,0 474,0 474,0 631,0 631,0 637,0 643,-6 643,-12 643,-12 643,-24 643,-24 643,-30 637,-36 631,-36"/>
<text text-anchor="middle" x="552.5" y="-14.3" font-family="Times,serif" font-size="14.00">delete_cluster_foldx&#45;ingestion</text>
</g>
<!-- foldx_variant_annotation_ingestion&#45;&gt;delete_cluster_foldx&#45;ingestion -->
<g id="edge2" class="edge">
<title>foldx_variant_annotation_ingestion&#45;&gt;delete_cluster_foldx&#45;ingestion</title>
<path fill="none" stroke="black" d="M426.28,-18C434.69,-18 443.18,-18 451.57,-18"/>
<polygon fill="black" stroke="black" points="451.73,-21.5 461.73,-18 451.73,-14.5 451.73,-21.5"/>
</g>
</g>
</svg>
