<?xml version="1.0" encoding="UTF-8" standalone="no"?>
<!DOCTYPE svg PUBLIC "-//W3C//DTD SVG 1.1//EN"
 "http://www.w3.org/Graphics/SVG/1.1/DTD/svg11.dtd">
<!-- Generated by graphviz version 12.2.1 (20241206.2353)
 -->
<!-- Title: foldx_ingestion Pages: 1 -->
<svg width="471pt" height="69pt"
 viewBox="0.00 0.00 470.75 68.50" xmlns="http://www.w3.org/2000/svg" xmlns:xlink="http://www.w3.org/1999/xlink">
<g id="graph0" class="graph" transform="scale(1 1) rotate(0) translate(4 64.5)">
<title>foldx_ingestion</title>
<polygon fill="white" stroke="none" points="-4,4 -4,-64.5 466.75,-64.5 466.75,4 -4,4"/>
<text text-anchor="middle" x="231.38" y="-43.2" font-family="Times,serif" font-size="14.00">foldx_ingestion</text>
<!-- create_cluster -->
<g id="node1" class="node">
<title>create_cluster</title>
<path fill="#ffffff" stroke="#000000" d="M79,-36C79,-36 12,-36 12,-36 6,-36 0,-30 0,-24 0,-24 0,-12 0,-12 0,-6 6,0 12,0 12,0 79,0 79,0 85,0 91,-6 91,-12 91,-12 91,-24 91,-24 91,-30 85,-36 79,-36"/>
<text text-anchor="middle" x="45.5" y="-12.95" font-family="Times,serif" font-size="14.00">create_cluster</text>
</g>
<!-- foldx_variant_annotation_ingestion -->
<g id="node3" class="node">
<title>foldx_variant_annotation_ingestion</title>
<path fill="#ffffff" stroke="#000000" d="M323.75,-36C323.75,-36 139,-36 139,-36 133,-36 127,-30 127,-24 127,-24 127,-12 127,-12 127,-6 133,0 139,0 139,0 323.75,0 323.75,0 329.75,0 335.75,-6 335.75,-12 335.75,-12 335.75,-24 335.75,-24 335.75,-30 329.75,-36 323.75,-36"/>
<text text-anchor="middle" x="231.38" y="-12.95" font-family="Times,serif" font-size="14.00">foldx_variant_annotation_ingestion</text>
</g>
<!-- create_cluster_foldx&#45;ingestion&#45;&gt;foldx_variant_annotation_ingestion -->
<g id="edge1" class="edge">
<title>create_cluster_foldx&#45;ingestion&#45;&gt;foldx_variant_annotation_ingestion</title>
<path fill="none" stroke="black" d="M181.02,-18C189.5,-18 198.16,-18 206.82,-18"/>
<polygon fill="black" stroke="black" points="206.98,-21.5 216.98,-18 206.98,-14.5 206.98,-21.5"/>
</g>
<!-- delete_cluster_foldx&#45;ingestion -->
<g id="node2" class="node">
<title>delete_cluster</title>
<path fill="#ffffff" stroke="#000000" d="M450.75,-36C450.75,-36 383.75,-36 383.75,-36 377.75,-36 371.75,-30 371.75,-24 371.75,-24 371.75,-12 371.75,-12 371.75,-6 377.75,0 383.75,0 383.75,0 450.75,0 450.75,0 456.75,0 462.75,-6 462.75,-12 462.75,-12 462.75,-24 462.75,-24 462.75,-30 456.75,-36 450.75,-36"/>
<text text-anchor="middle" x="417.25" y="-12.95" font-family="Times,serif" font-size="14.00">delete_cluster</text>
</g>
<!-- foldx_variant_annotation_ingestion&#45;&gt;delete_cluster_foldx&#45;ingestion -->
<g id="edge2" class="edge">
<title>foldx_variant_annotation_ingestion&#45;&gt;delete_cluster_foldx&#45;ingestion</title>
<path fill="none" stroke="black" d="M426.28,-18C434.69,-18 443.18,-18 451.57,-18"/>
<polygon fill="black" stroke="black" points="451.73,-21.5 461.73,-18 451.73,-14.5 451.73,-21.5"/>
</g>
</g>
</svg>
