<?xml version="1.0" encoding="UTF-8" standalone="no"?>
<!DOCTYPE svg PUBLIC "-//W3C//DTD SVG 1.1//EN"
 "http://www.w3.org/Graphics/SVG/1.1/DTD/svg11.dtd">
<!-- Generated by graphviz version 2.43.0 (0)
 -->
<!-- Title: foldx_ingestion Pages: 1 -->
<svg width="473pt" height="67pt"
 viewBox="0.00 0.00 473.00 67.00" xmlns="http://www.w3.org/2000/svg" xmlns:xlink="http://www.w3.org/1999/xlink">
<g id="graph0" class="graph" transform="scale(1 1) rotate(0) translate(4 63)">
<title>foldx_ingestion</title>
<polygon fill="white" stroke="transparent" points="-4,4 -4,-63 469,-63 469,4 -4,4"/>
<text text-anchor="middle" x="232.5" y="-43.8" font-family="Times,serif" font-size="14.00">foldx_ingestion</text>
<!-- create_cluster -->
<g id="node1" class="node">
<title>create_cluster</title>
<path fill="#ffffff" stroke="#000000" d="M80,-36C80,-36 12,-36 12,-36 6,-36 0,-30 0,-24 0,-24 0,-12 0,-12 0,-6 6,0 12,0 12,0 80,0 80,0 86,0 92,-6 92,-12 92,-12 92,-24 92,-24 92,-30 86,-36 80,-36"/>
<text text-anchor="middle" x="46" y="-14.3" font-family="Times,serif" font-size="14.00">create_cluster</text>
</g>
<!-- foldx_variant_annotation_ingestion -->
<g id="node3" class="node">
<title>foldx_variant_annotation_ingestion</title>
<path fill="#ffffff" stroke="#000000" d="M325,-36C325,-36 140,-36 140,-36 134,-36 128,-30 128,-24 128,-24 128,-12 128,-12 128,-6 134,0 140,0 140,0 325,0 325,0 331,0 337,-6 337,-12 337,-12 337,-24 337,-24 337,-30 331,-36 325,-36"/>
<text text-anchor="middle" x="232.5" y="-14.3" font-family="Times,serif" font-size="14.00">foldx_variant_annotation_ingestion</text>
</g>
<!-- create_cluster&#45;&gt;foldx_variant_annotation_ingestion -->
<g id="edge1" class="edge">
<title>create_cluster&#45;&gt;foldx_variant_annotation_ingestion</title>
<path fill="none" stroke="black" d="M92.13,-18C100.12,-18 108.74,-18 117.66,-18"/>
<polygon fill="black" stroke="black" points="117.82,-21.5 127.82,-18 117.82,-14.5 117.82,-21.5"/>
</g>
<!-- delete_cluster -->
<g id="node2" class="node">
<title>delete_cluster</title>
<path fill="#ffffff" stroke="#000000" d="M453,-36C453,-36 385,-36 385,-36 379,-36 373,-30 373,-24 373,-24 373,-12 373,-12 373,-6 379,0 385,0 385,0 453,0 453,0 459,0 465,-6 465,-12 465,-12 465,-24 465,-24 465,-30 459,-36 453,-36"/>
<text text-anchor="middle" x="419" y="-14.3" font-family="Times,serif" font-size="14.00">delete_cluster</text>
</g>
<!-- foldx_variant_annotation_ingestion&#45;&gt;delete_cluster -->
<g id="edge2" class="edge">
<title>foldx_variant_annotation_ingestion&#45;&gt;delete_cluster</title>
<path fill="none" stroke="black" d="M337.08,-18C345.85,-18 354.49,-18 362.67,-18"/>
<polygon fill="black" stroke="black" points="362.76,-21.5 372.76,-18 362.76,-14.5 362.76,-21.5"/>
</g>
</g>
</svg>
