<?xml version="1.0" encoding="UTF-8" standalone="no"?>
<!DOCTYPE svg PUBLIC "-//W3C//DTD SVG 1.1//EN"
 "http://www.w3.org/Graphics/SVG/1.1/DTD/svg11.dtd">
<!-- Generated by graphviz version 2.43.0 (0)
 -->
<!-- Title: lof_curation_ingestion Pages: 1 -->
<svg width="651pt" height="67pt"
 viewBox="0.00 0.00 651.00 67.00" xmlns="http://www.w3.org/2000/svg" xmlns:xlink="http://www.w3.org/1999/xlink">
<g id="graph0" class="graph" transform="scale(1 1) rotate(0) translate(4 63)">
<title>lof_curation_ingestion</title>
<polygon fill="white" stroke="transparent" points="-4,4 -4,-63 647,-63 647,4 -4,4"/>
<text text-anchor="middle" x="321.5" y="-43.8" font-family="Times,serif" font-size="14.00">lof_curation_ingestion</text>
<!-- create_cluster_lof&#45;curation&#45;ingestion -->
<g id="node1" class="node">
<title>create_cluster_lof&#45;curation&#45;ingestion</title>
<path fill="#ffffff" stroke="#000000" d="M204,-36C204,-36 12,-36 12,-36 6,-36 0,-30 0,-24 0,-24 0,-12 0,-12 0,-6 6,0 12,0 12,0 204,0 204,0 210,0 216,-6 216,-12 216,-12 216,-24 216,-24 216,-30 210,-36 204,-36"/>
<text text-anchor="middle" x="108" y="-14.3" font-family="Times,serif" font-size="14.00">create_cluster_lof&#45;curation&#45;ingestion</text>
</g>
<!-- lof_curation_ingestion -->
<g id="node3" class="node">
<title>lof_curation_ingestion</title>
<path fill="#ffffff" stroke="#000000" d="M379,-36C379,-36 264,-36 264,-36 258,-36 252,-30 252,-24 252,-24 252,-12 252,-12 252,-6 258,0 264,0 264,0 379,0 379,0 385,0 391,-6 391,-12 391,-12 391,-24 391,-24 391,-30 385,-36 379,-36"/>
<text text-anchor="middle" x="321.5" y="-14.3" font-family="Times,serif" font-size="14.00">lof_curation_ingestion</text>
</g>
<!-- create_cluster_lof&#45;curation&#45;ingestion&#45;&gt;lof_curation_ingestion -->
<g id="edge1" class="edge">
<title>create_cluster_lof&#45;curation&#45;ingestion&#45;&gt;lof_curation_ingestion</title>
<path fill="none" stroke="black" d="M216.3,-18C224.88,-18 233.44,-18 241.77,-18"/>
<polygon fill="black" stroke="black" points="241.79,-21.5 251.79,-18 241.79,-14.5 241.79,-21.5"/>
</g>
<!-- delete_cluster_lof&#45;curation&#45;ingestion -->
<g id="node2" class="node">
<title>delete_cluster_lof&#45;curation&#45;ingestion</title>
<path fill="#ffffff" stroke="#000000" d="M631,-36C631,-36 439,-36 439,-36 433,-36 427,-30 427,-24 427,-24 427,-12 427,-12 427,-6 433,0 439,0 439,0 631,0 631,0 637,0 643,-6 643,-12 643,-12 643,-24 643,-24 643,-30 637,-36 631,-36"/>
<text text-anchor="middle" x="535" y="-14.3" font-family="Times,serif" font-size="14.00">delete_cluster_lof&#45;curation&#45;ingestion</text>
</g>
<!-- lof_curation_ingestion&#45;&gt;delete_cluster_lof&#45;curation&#45;ingestion -->
<g id="edge2" class="edge">
<title>lof_curation_ingestion&#45;&gt;delete_cluster_lof&#45;curation&#45;ingestion</title>
<path fill="none" stroke="black" d="M391.17,-18C399.4,-18 407.98,-18 416.67,-18"/>
<polygon fill="black" stroke="black" points="416.9,-21.5 426.9,-18 416.9,-14.5 416.9,-21.5"/>
</g>
</g>
</svg>
