<?xml version="1.0" encoding="UTF-8" standalone="no"?>
<!DOCTYPE svg PUBLIC "-//W3C//DTD SVG 1.1//EN"
 "http://www.w3.org/Graphics/SVG/1.1/DTD/svg11.dtd">
<!-- Generated by graphviz version 2.43.0 (0)
 -->
<!-- Title: lof_curation_ingestion Pages: 1 -->
<svg width="403pt" height="67pt"
 viewBox="0.00 0.00 403.00 67.00" xmlns="http://www.w3.org/2000/svg" xmlns:xlink="http://www.w3.org/1999/xlink">
<g id="graph0" class="graph" transform="scale(1 1) rotate(0) translate(4 63)">
<title>lof_curation_ingestion</title>
<polygon fill="white" stroke="transparent" points="-4,4 -4,-63 399,-63 399,4 -4,4"/>
<text text-anchor="middle" x="197.5" y="-43.8" font-family="Times,serif" font-size="14.00">lof_curation_ingestion</text>
<!-- create_cluster -->
<g id="node1" class="node">
<title>create_cluster</title>
<path fill="#ffffff" stroke="#000000" d="M80,-36C80,-36 12,-36 12,-36 6,-36 0,-30 0,-24 0,-24 0,-12 0,-12 0,-6 6,0 12,0 12,0 80,0 80,0 86,0 92,-6 92,-12 92,-12 92,-24 92,-24 92,-30 86,-36 80,-36"/>
<text text-anchor="middle" x="46" y="-14.3" font-family="Times,serif" font-size="14.00">create_cluster</text>
</g>
<!-- lof_curation_ingestion -->
<g id="node3" class="node">
<title>lof_curation_ingestion</title>
<path fill="#ffffff" stroke="#000000" d="M255,-36C255,-36 140,-36 140,-36 134,-36 128,-30 128,-24 128,-24 128,-12 128,-12 128,-6 134,0 140,0 140,0 255,0 255,0 261,0 267,-6 267,-12 267,-12 267,-24 267,-24 267,-30 261,-36 255,-36"/>
<text text-anchor="middle" x="197.5" y="-14.3" font-family="Times,serif" font-size="14.00">lof_curation_ingestion</text>
</g>
<!-- create_cluster&#45;&gt;lof_curation_ingestion -->
<g id="edge1" class="edge">
<title>create_cluster&#45;&gt;lof_curation_ingestion</title>
<path fill="none" stroke="black" d="M92.26,-18C100.35,-18 108.99,-18 117.71,-18"/>
<polygon fill="black" stroke="black" points="117.94,-21.5 127.94,-18 117.94,-14.5 117.94,-21.5"/>
</g>
<!-- delete_cluster -->
<g id="node2" class="node">
<title>delete_cluster</title>
<path fill="#ffffff" stroke="#000000" d="M383,-36C383,-36 315,-36 315,-36 309,-36 303,-30 303,-24 303,-24 303,-12 303,-12 303,-6 309,0 315,0 315,0 383,0 383,0 389,0 395,-6 395,-12 395,-12 395,-24 395,-24 395,-30 389,-36 383,-36"/>
<text text-anchor="middle" x="349" y="-14.3" font-family="Times,serif" font-size="14.00">delete_cluster</text>
</g>
<!-- lof_curation_ingestion&#45;&gt;delete_cluster -->
<g id="edge2" class="edge">
<title>lof_curation_ingestion&#45;&gt;delete_cluster</title>
<path fill="none" stroke="black" d="M267.12,-18C275.75,-18 284.48,-18 292.86,-18"/>
<polygon fill="black" stroke="black" points="292.87,-21.5 302.87,-18 292.87,-14.5 292.87,-21.5"/>
</g>
</g>
</svg>
