<?xml version="1.0" encoding="UTF-8" standalone="no"?>
<!DOCTYPE svg PUBLIC "-//W3C//DTD SVG 1.1//EN"
 "http://www.w3.org/Graphics/SVG/1.1/DTD/svg11.dtd">
<!-- Generated by graphviz version 2.43.0 (0)
 -->
<!-- Title: decode_ingestion Pages: 1 -->
<svg width="1472pt" height="163pt"
 viewBox="0.00 0.00 1472.00 163.00" xmlns="http://www.w3.org/2000/svg" xmlns:xlink="http://www.w3.org/1999/xlink">
<g id="graph0" class="graph" transform="scale(1 1) rotate(0) translate(4 159)">
<title>decode_ingestion</title>
<polygon fill="white" stroke="transparent" points="-4,4 -4,-159 1468,-159 1468,4 -4,4"/>
<text text-anchor="middle" x="732" y="-139.8" font-family="Times,serif" font-size="14.00">decode_ingestion</text>
<!-- create_cluster_otg&#45;decode -->
<g id="node1" class="node">
<title>create_cluster_otg&#45;decode</title>
<path fill="#ffffff" stroke="#000000" d="M146,-84C146,-84 12,-84 12,-84 6,-84 0,-78 0,-72 0,-72 0,-60 0,-60 0,-54 6,-48 12,-48 12,-48 146,-48 146,-48 152,-48 158,-54 158,-60 158,-60 158,-72 158,-72 158,-78 152,-84 146,-84"/>
<text text-anchor="middle" x="79" y="-62.3" font-family="Times,serif" font-size="14.00">create_cluster_otg&#45;decode</text>
</g>
<!-- molecular_complex -->
<g id="node3" class="node">
<title>molecular_complex</title>
<path fill="#ffffff" stroke="#000000" d="M323.5,-111C323.5,-111 222.5,-111 222.5,-111 216.5,-111 210.5,-105 210.5,-99 210.5,-99 210.5,-87 210.5,-87 210.5,-81 216.5,-75 222.5,-75 222.5,-75 323.5,-75 323.5,-75 329.5,-75 335.5,-81 335.5,-87 335.5,-87 335.5,-99 335.5,-99 335.5,-105 329.5,-111 323.5,-111"/>
<text text-anchor="middle" x="273" y="-89.3" font-family="Times,serif" font-size="14.00">molecular_complex</text>
</g>
<!-- create_cluster_otg&#45;decode&#45;&gt;molecular_complex -->
<g id="edge1" class="edge">
<title>create_cluster_otg&#45;decode&#45;&gt;molecular_complex</title>
<path fill="none" stroke="black" d="M158.09,-76.98C172.13,-78.96 186.69,-81 200.53,-82.95"/>
<polygon fill="black" stroke="black" points="200.07,-86.42 210.46,-84.35 201.04,-79.49 200.07,-86.42"/>
</g>
<!-- smp_manifest_generation -->
<g id="node13" class="node">
<title>smp_manifest_generation</title>
<path fill="#ffffff" stroke="#000000" d="M340,-57C340,-57 206,-57 206,-57 200,-57 194,-51 194,-45 194,-45 194,-33 194,-33 194,-27 200,-21 206,-21 206,-21 340,-21 340,-21 346,-21 352,-27 352,-33 352,-33 352,-45 352,-45 352,-51 346,-57 340,-57"/>
<text text-anchor="middle" x="273" y="-35.3" font-family="Times,serif" font-size="14.00">smp_manifest_generation</text>
</g>
<!-- create_cluster_otg&#45;decode&#45;&gt;smp_manifest_generation -->
<g id="edge2" class="edge">
<title>create_cluster_otg&#45;decode&#45;&gt;smp_manifest_generation</title>
<path fill="none" stroke="black" d="M158.09,-55.02C166.6,-53.82 175.3,-52.6 183.92,-51.39"/>
<polygon fill="black" stroke="black" points="184.56,-54.83 193.98,-49.97 183.59,-47.9 184.56,-54.83"/>
</g>
<!-- delete_cluster_otg&#45;decode -->
<g id="node2" class="node">
<title>delete_cluster_otg&#45;decode</title>
<path fill="#ffffff" stroke="#000000" d="M1452,-63C1452,-63 1318,-63 1318,-63 1312,-63 1306,-57 1306,-51 1306,-51 1306,-39 1306,-39 1306,-33 1312,-27 1318,-27 1318,-27 1452,-27 1452,-27 1458,-27 1464,-33 1464,-39 1464,-39 1464,-51 1464,-51 1464,-57 1458,-63 1452,-63"/>
<text text-anchor="middle" x="1385" y="-41.3" font-family="Times,serif" font-size="14.00">delete_cluster_otg&#45;decode</text>
</g>
<!-- raw_harmonisation -->
<g id="node4" class="node">
<title>raw_harmonisation</title>
<path fill="#ffffff" stroke="#000000" d="M689,-111C689,-111 591,-111 591,-111 585,-111 579,-105 579,-99 579,-99 579,-87 579,-87 579,-81 585,-75 591,-75 591,-75 689,-75 689,-75 695,-75 701,-81 701,-87 701,-87 701,-99 701,-99 701,-105 695,-111 689,-111"/>
<text text-anchor="middle" x="640" y="-89.3" font-family="Times,serif" font-size="14.00">raw_harmonisation</text>
</g>
<!-- molecular_complex&#45;&gt;raw_harmonisation -->
<g id="edge3" class="edge">
<title>molecular_complex&#45;&gt;raw_harmonisation</title>
<path fill="none" stroke="black" d="M335.66,-110.36C352.49,-114.34 370.83,-117.99 388,-120 456.42,-127.99 474.76,-129.41 543,-120 553.4,-118.57 564.25,-116.3 574.77,-113.67"/>
<polygon fill="black" stroke="black" points="575.94,-116.98 584.72,-111.05 574.16,-110.21 575.94,-116.98"/>
</g>
<!-- raw_manifest_generation -->
<g id="node6" class="node">
<title>raw_manifest_generation</title>
<path fill="#ffffff" stroke="#000000" d="M531,-111C531,-111 400,-111 400,-111 394,-111 388,-105 388,-99 388,-99 388,-87 388,-87 388,-81 394,-75 400,-75 400,-75 531,-75 531,-75 537,-75 543,-81 543,-87 543,-87 543,-99 543,-99 543,-105 537,-111 531,-111"/>
<text text-anchor="middle" x="465.5" y="-89.3" font-family="Times,serif" font-size="14.00">raw_manifest_generation</text>
</g>
<!-- molecular_complex&#45;&gt;raw_manifest_generation -->
<g id="edge4" class="edge">
<title>molecular_complex&#45;&gt;raw_manifest_generation</title>
<path fill="none" stroke="black" d="M335.59,-93C348.97,-93 363.37,-93 377.53,-93"/>
<polygon fill="black" stroke="black" points="377.77,-96.5 387.77,-93 377.77,-89.5 377.77,-96.5"/>
</g>
<!-- smp_harmonisation -->
<g id="node11" class="node">
<title>smp_harmonisation</title>
<path fill="#ffffff" stroke="#000000" d="M516,-57C516,-57 415,-57 415,-57 409,-57 403,-51 403,-45 403,-45 403,-33 403,-33 403,-27 409,-21 415,-21 415,-21 516,-21 516,-21 522,-21 528,-27 528,-33 528,-33 528,-45 528,-45 528,-51 522,-57 516,-57"/>
<text text-anchor="middle" x="465.5" y="-35.3" font-family="Times,serif" font-size="14.00">smp_harmonisation</text>
</g>
<!-- molecular_complex&#45;&gt;smp_harmonisation -->
<g id="edge5" class="edge">
<title>molecular_complex&#45;&gt;smp_harmonisation</title>
<path fill="none" stroke="black" d="M335.59,-75.54C353.92,-70.35 374.15,-64.61 393.05,-59.25"/>
<polygon fill="black" stroke="black" points="394.13,-62.58 402.8,-56.49 392.22,-55.85 394.13,-62.58"/>
</g>
<!-- raw_qc -->
<g id="node9" class="node">
<title>raw_qc</title>
<path fill="#ffffff" stroke="#000000" d="M787.5,-132C787.5,-132 755.5,-132 755.5,-132 749.5,-132 743.5,-126 743.5,-120 743.5,-120 743.5,-108 743.5,-108 743.5,-102 749.5,-96 755.5,-96 755.5,-96 787.5,-96 787.5,-96 793.5,-96 799.5,-102 799.5,-108 799.5,-108 799.5,-120 799.5,-120 799.5,-126 793.5,-132 787.5,-132"/>
<text text-anchor="middle" x="771.5" y="-110.3" font-family="Times,serif" font-size="14.00">raw_qc</text>
</g>
<!-- raw_harmonisation&#45;&gt;raw_qc -->
<g id="edge6" class="edge">
<title>raw_harmonisation&#45;&gt;raw_qc</title>
<path fill="none" stroke="black" d="M701.2,-102.76C712.18,-104.54 723.34,-106.35 733.4,-107.98"/>
<polygon fill="black" stroke="black" points="733,-111.46 743.43,-109.61 734.12,-104.55 733,-111.46"/>
</g>
<!-- raw_wbc -->
<g id="node10" class="node">
<title>raw_wbc</title>
<path fill="#ffffff" stroke="#000000" d="M896,-90C896,-90 854,-90 854,-90 848,-90 842,-84 842,-78 842,-78 842,-66 842,-66 842,-60 848,-54 854,-54 854,-54 896,-54 896,-54 902,-54 908,-60 908,-66 908,-66 908,-78 908,-78 908,-84 902,-90 896,-90"/>
<text text-anchor="middle" x="875" y="-68.3" font-family="Times,serif" font-size="14.00">raw_wbc</text>
</g>
<!-- raw_harmonisation&#45;&gt;raw_wbc -->
<g id="edge7" class="edge">
<title>raw_harmonisation&#45;&gt;raw_wbc</title>
<path fill="none" stroke="black" d="M701,-87.59C741.87,-83.91 794.97,-79.12 831.51,-75.83"/>
<polygon fill="black" stroke="black" points="832.17,-79.28 841.81,-74.9 831.54,-72.31 832.17,-79.28"/>
</g>
<!-- raw_ldc -->
<g id="node5" class="node">
<title>raw_ldc</title>
<path fill="#ffffff" stroke="#000000" d="M996,-90C996,-90 960,-90 960,-90 954,-90 948,-84 948,-78 948,-78 948,-66 948,-66 948,-60 954,-54 960,-54 960,-54 996,-54 996,-54 1002,-54 1008,-60 1008,-66 1008,-66 1008,-78 1008,-78 1008,-84 1002,-90 996,-90"/>
<text text-anchor="middle" x="978" y="-68.3" font-family="Times,serif" font-size="14.00">raw_ldc</text>
</g>
<!-- raw_pics -->
<g id="node7" class="node">
<title>raw_pics</title>
<path fill="#ffffff" stroke="#000000" d="M1101,-90C1101,-90 1060,-90 1060,-90 1054,-90 1048,-84 1048,-78 1048,-78 1048,-66 1048,-66 1048,-60 1054,-54 1060,-54 1060,-54 1101,-54 1101,-54 1107,-54 1113,-60 1113,-66 1113,-66 1113,-78 1113,-78 1113,-84 1107,-90 1101,-90"/>
<text text-anchor="middle" x="1080.5" y="-68.3" font-family="Times,serif" font-size="14.00">raw_pics</text>
</g>
<!-- raw_ldc&#45;&gt;raw_pics -->
<g id="edge8" class="edge">
<title>raw_ldc&#45;&gt;raw_pics</title>
<path fill="none" stroke="black" d="M1008.07,-72C1017.28,-72 1027.65,-72 1037.57,-72"/>
<polygon fill="black" stroke="black" points="1037.68,-75.5 1047.68,-72 1037.68,-68.5 1037.68,-75.5"/>
</g>
<!-- raw_manifest_generation&#45;&gt;raw_harmonisation -->
<g id="edge9" class="edge">
<title>raw_manifest_generation&#45;&gt;raw_harmonisation</title>
<path fill="none" stroke="black" d="M543.17,-93C551.67,-93 560.31,-93 568.73,-93"/>
<polygon fill="black" stroke="black" points="568.88,-96.5 578.88,-93 568.88,-89.5 568.88,-96.5"/>
</g>
<!-- raw_pqtl_to_study -->
<g id="node8" class="node">
<title>raw_pqtl_to_study</title>
<path fill="#ffffff" stroke="#000000" d="M1256.5,-90C1256.5,-90 1162.5,-90 1162.5,-90 1156.5,-90 1150.5,-84 1150.5,-78 1150.5,-78 1150.5,-66 1150.5,-66 1150.5,-60 1156.5,-54 1162.5,-54 1162.5,-54 1256.5,-54 1256.5,-54 1262.5,-54 1268.5,-60 1268.5,-66 1268.5,-66 1268.5,-78 1268.5,-78 1268.5,-84 1262.5,-90 1256.5,-90"/>
<text text-anchor="middle" x="1209.5" y="-68.3" font-family="Times,serif" font-size="14.00">raw_pqtl_to_study</text>
</g>
<!-- raw_pics&#45;&gt;raw_pqtl_to_study -->
<g id="edge10" class="edge">
<title>raw_pics&#45;&gt;raw_pqtl_to_study</title>
<path fill="none" stroke="black" d="M1113.22,-72C1121.53,-72 1130.82,-72 1140.24,-72"/>
<polygon fill="black" stroke="black" points="1140.49,-75.5 1150.49,-72 1140.49,-68.5 1140.49,-75.5"/>
</g>
<!-- raw_pqtl_to_study&#45;&gt;delete_cluster_otg&#45;decode -->
<g id="edge11" class="edge">
<title>raw_pqtl_to_study&#45;&gt;delete_cluster_otg&#45;decode</title>
<path fill="none" stroke="black" d="M1268.76,-62.93C1277.5,-61.57 1286.69,-60.14 1295.89,-58.71"/>
<polygon fill="black" stroke="black" points="1296.52,-62.16 1305.86,-57.16 1295.44,-55.24 1296.52,-62.16"/>
</g>
<!-- raw_qc&#45;&gt;raw_wbc -->
<g id="edge12" class="edge">
<title>raw_qc&#45;&gt;raw_wbc</title>
<path fill="none" stroke="black" d="M799.7,-102.74C809.69,-98.61 821.25,-93.83 832.23,-89.29"/>
<polygon fill="black" stroke="black" points="833.77,-92.44 841.67,-85.38 831.09,-85.97 833.77,-92.44"/>
</g>
<!-- raw_wbc&#45;&gt;raw_ldc -->
<g id="edge13" class="edge">
<title>raw_wbc&#45;&gt;raw_ldc</title>
<path fill="none" stroke="black" d="M908.23,-72C917.56,-72 927.85,-72 937.56,-72"/>
<polygon fill="black" stroke="black" points="937.81,-75.5 947.81,-72 937.81,-68.5 937.81,-75.5"/>
</g>
<!-- smp_harmonisation&#45;&gt;raw_harmonisation -->
<g id="edge14" class="edge">
<title>smp_harmonisation&#45;&gt;raw_harmonisation</title>
<path fill="none" stroke="black" d="M524.42,-57.13C539.58,-61.88 556.05,-67.03 571.65,-71.92"/>
<polygon fill="black" stroke="black" points="570.64,-75.27 581.23,-74.92 572.74,-68.59 570.64,-75.27"/>
</g>
<!-- smp_qc -->
<g id="node16" class="node">
<title>smp_qc</title>
<path fill="#ffffff" stroke="#000000" d="M657.5,-57C657.5,-57 622.5,-57 622.5,-57 616.5,-57 610.5,-51 610.5,-45 610.5,-45 610.5,-33 610.5,-33 610.5,-27 616.5,-21 622.5,-21 622.5,-21 657.5,-21 657.5,-21 663.5,-21 669.5,-27 669.5,-33 669.5,-33 669.5,-45 669.5,-45 669.5,-51 663.5,-57 657.5,-57"/>
<text text-anchor="middle" x="640" y="-35.3" font-family="Times,serif" font-size="14.00">smp_qc</text>
</g>
<!-- smp_harmonisation&#45;&gt;smp_qc -->
<g id="edge15" class="edge">
<title>smp_harmonisation&#45;&gt;smp_qc</title>
<path fill="none" stroke="black" d="M528.29,-39C552.27,-39 579.01,-39 600.2,-39"/>
<polygon fill="black" stroke="black" points="600.42,-42.5 610.42,-39 600.42,-35.5 600.42,-42.5"/>
</g>
<!-- smp_wbc -->
<g id="node17" class="node">
<title>smp_wbc</title>
<path fill="#ffffff" stroke="#000000" d="M794,-36C794,-36 749,-36 749,-36 743,-36 737,-30 737,-24 737,-24 737,-12 737,-12 737,-6 743,0 749,0 749,0 794,0 794,0 800,0 806,-6 806,-12 806,-12 806,-24 806,-24 806,-30 800,-36 794,-36"/>
<text text-anchor="middle" x="771.5" y="-14.3" font-family="Times,serif" font-size="14.00">smp_wbc</text>
</g>
<!-- smp_harmonisation&#45;&gt;smp_wbc -->
<g id="edge16" class="edge">
<title>smp_harmonisation&#45;&gt;smp_wbc</title>
<path fill="none" stroke="black" d="M528.21,-21.43C544.59,-17.53 562.34,-13.97 579,-12 632.85,-5.63 646.83,-9.67 701,-12 709.34,-12.36 718.24,-12.96 726.77,-13.65"/>
<polygon fill="black" stroke="black" points="726.69,-17.15 736.96,-14.52 727.29,-10.18 726.69,-17.15"/>
</g>
<!-- smp_ldc -->
<g id="node12" class="node">
<title>smp_ldc</title>
<path fill="#ffffff" stroke="#000000" d="M894.5,-36C894.5,-36 855.5,-36 855.5,-36 849.5,-36 843.5,-30 843.5,-24 843.5,-24 843.5,-12 843.5,-12 843.5,-6 849.5,0 855.5,0 855.5,0 894.5,0 894.5,0 900.5,0 906.5,-6 906.5,-12 906.5,-12 906.5,-24 906.5,-24 906.5,-30 900.5,-36 894.5,-36"/>
<text text-anchor="middle" x="875" y="-14.3" font-family="Times,serif" font-size="14.00">smp_ldc</text>
</g>
<!-- smp_pics -->
<g id="node14" class="node">
<title>smp_pics</title>
<path fill="#ffffff" stroke="#000000" d="M1000,-36C1000,-36 956,-36 956,-36 950,-36 944,-30 944,-24 944,-24 944,-12 944,-12 944,-6 950,0 956,0 956,0 1000,0 1000,0 1006,0 1012,-6 1012,-12 1012,-12 1012,-24 1012,-24 1012,-30 1006,-36 1000,-36"/>
<text text-anchor="middle" x="978" y="-14.3" font-family="Times,serif" font-size="14.00">smp_pics</text>
</g>
<!-- smp_ldc&#45;&gt;smp_pics -->
<g id="edge17" class="edge">
<title>smp_ldc&#45;&gt;smp_pics</title>
<path fill="none" stroke="black" d="M906.58,-18C915.1,-18 924.52,-18 933.63,-18"/>
<polygon fill="black" stroke="black" points="933.71,-21.5 943.71,-18 933.71,-14.5 933.71,-21.5"/>
</g>
<!-- smp_manifest_generation&#45;&gt;smp_harmonisation -->
<g id="edge18" class="edge">
<title>smp_manifest_generation&#45;&gt;smp_harmonisation</title>
<path fill="none" stroke="black" d="M352.03,-39C365.54,-39 379.53,-39 392.86,-39"/>
<polygon fill="black" stroke="black" points="392.91,-42.5 402.91,-39 392.91,-35.5 392.91,-42.5"/>
</g>
<!-- smp_pqtl_to_study -->
<g id="node15" class="node">
<title>smp_pqtl_to_study</title>
<path fill="#ffffff" stroke="#000000" d="M1258,-36C1258,-36 1161,-36 1161,-36 1155,-36 1149,-30 1149,-24 1149,-24 1149,-12 1149,-12 1149,-6 1155,0 1161,0 1161,0 1258,0 1258,0 1264,0 1270,-6 1270,-12 1270,-12 1270,-24 1270,-24 1270,-30 1264,-36 1258,-36"/>
<text text-anchor="middle" x="1209.5" y="-14.3" font-family="Times,serif" font-size="14.00">smp_pqtl_to_study</text>
</g>
<!-- smp_pics&#45;&gt;smp_pqtl_to_study -->
<g id="edge19" class="edge">
<title>smp_pics&#45;&gt;smp_pqtl_to_study</title>
<path fill="none" stroke="black" d="M1012.37,-18C1045.33,-18 1096.75,-18 1138.67,-18"/>
<polygon fill="black" stroke="black" points="1138.83,-21.5 1148.83,-18 1138.83,-14.5 1138.83,-21.5"/>
</g>
<!-- smp_pqtl_to_study&#45;&gt;delete_cluster_otg&#45;decode -->
<g id="edge20" class="edge">
<title>smp_pqtl_to_study&#45;&gt;delete_cluster_otg&#45;decode</title>
<path fill="none" stroke="black" d="M1270.21,-27.29C1278.45,-28.57 1287.06,-29.91 1295.68,-31.26"/>
<polygon fill="black" stroke="black" points="1295.38,-34.75 1305.8,-32.83 1296.45,-27.83 1295.38,-34.75"/>
</g>
<!-- smp_qc&#45;&gt;smp_wbc -->
<g id="edge21" class="edge">
<title>smp_qc&#45;&gt;smp_wbc</title>
<path fill="none" stroke="black" d="M669.74,-34.34C686.46,-31.63 707.89,-28.15 726.68,-25.11"/>
<polygon fill="black" stroke="black" points="727.49,-28.52 736.8,-23.47 726.37,-21.61 727.49,-28.52"/>
</g>
<!-- smp_wbc&#45;&gt;smp_ldc -->
<g id="edge22" class="edge">
<title>smp_wbc&#45;&gt;smp_ldc</title>
<path fill="none" stroke="black" d="M806.02,-18C814.65,-18 824.04,-18 833,-18"/>
<polygon fill="black" stroke="black" points="833.26,-21.5 843.26,-18 833.26,-14.5 833.26,-21.5"/>
</g>
</g>
</svg>
