<?xml version="1.0" encoding="UTF-8" standalone="no"?>
<!DOCTYPE svg PUBLIC "-//W3C//DTD SVG 1.1//EN"
 "http://www.w3.org/Graphics/SVG/1.1/DTD/svg11.dtd">
<!-- Generated by graphviz version 2.43.0 (0)
 -->
<!-- Title: decode_ingestion Pages: 1 -->
<svg width="1568pt" height="245pt"
 viewBox="0.00 0.00 1568.00 245.00" xmlns="http://www.w3.org/2000/svg" xmlns:xlink="http://www.w3.org/1999/xlink">
<g id="graph0" class="graph" transform="scale(1 1) rotate(0) translate(4 241)">
<title>decode_ingestion</title>
<polygon fill="white" stroke="transparent" points="-4,4 -4,-241 1564,-241 1564,4 -4,4"/>
<text text-anchor="middle" x="780" y="-221.8" font-family="Times,serif" font-size="14.00">decode_ingestion</text>
<!-- create_cluster_otg&#45;decode -->
<g id="node1" class="node">
<title>create_cluster_otg&#45;decode</title>
<path fill="#ffffff" stroke="#000000" d="M146,-143C146,-143 12,-143 12,-143 6,-143 0,-137 0,-131 0,-131 0,-119 0,-119 0,-113 6,-107 12,-107 12,-107 146,-107 146,-107 152,-107 158,-113 158,-119 158,-119 158,-131 158,-131 158,-137 152,-143 146,-143"/>
<text text-anchor="middle" x="79" y="-121.3" font-family="Times,serif" font-size="14.00">create_cluster_otg&#45;decode</text>
</g>
<!-- molecular_complex -->
<g id="node3" class="node">
<title>molecular_complex</title>
<path fill="#ffffff" stroke="#000000" d="M307,-143C307,-143 206,-143 206,-143 200,-143 194,-137 194,-131 194,-131 194,-119 194,-119 194,-113 200,-107 206,-107 206,-107 307,-107 307,-107 313,-107 319,-113 319,-119 319,-119 319,-131 319,-131 319,-137 313,-143 307,-143"/>
<text text-anchor="middle" x="256.5" y="-121.3" font-family="Times,serif" font-size="14.00">molecular_complex</text>
</g>
<!-- create_cluster_otg&#45;decode&#45;&gt;molecular_complex -->
<g id="edge1" class="edge">
<title>create_cluster_otg&#45;decode&#45;&gt;molecular_complex</title>
<path fill="none" stroke="black" d="M158.25,-125C166.77,-125 175.4,-125 183.83,-125"/>
<polygon fill="black" stroke="black" points="183.99,-128.5 193.99,-125 183.99,-121.5 183.99,-128.5"/>
</g>
<!-- delete_cluster_otg&#45;decode -->
<g id="node2" class="node">
<title>delete_cluster_otg&#45;decode</title>
<path fill="#ffffff" stroke="#000000" d="M1548,-145C1548,-145 1414,-145 1414,-145 1408,-145 1402,-139 1402,-133 1402,-133 1402,-121 1402,-121 1402,-115 1408,-109 1414,-109 1414,-109 1548,-109 1548,-109 1554,-109 1560,-115 1560,-121 1560,-121 1560,-133 1560,-133 1560,-139 1554,-145 1548,-145"/>
<text text-anchor="middle" x="1481" y="-123.3" font-family="Times,serif" font-size="14.00">delete_cluster_otg&#45;decode</text>
</g>
<!-- raw_harmonisation -->
<g id="node4" class="node">
<title>raw_harmonisation</title>
<path fill="#ffffff" stroke="#000000" d="M792.5,-212C792.5,-212 694.5,-212 694.5,-212 688.5,-212 682.5,-206 682.5,-200 682.5,-200 682.5,-188 682.5,-188 682.5,-182 688.5,-176 694.5,-176 694.5,-176 792.5,-176 792.5,-176 798.5,-176 804.5,-182 804.5,-188 804.5,-188 804.5,-200 804.5,-200 804.5,-206 798.5,-212 792.5,-212"/>
<text text-anchor="middle" x="743.5" y="-190.3" font-family="Times,serif" font-size="14.00">raw_harmonisation</text>
</g>
<!-- molecular_complex&#45;&gt;raw_harmonisation -->
<g id="edge2" class="edge">
<title>molecular_complex&#45;&gt;raw_harmonisation</title>
<path fill="none" stroke="black" d="M285.74,-143.1C304.59,-154.25 330.36,-167.76 355,-175 462.15,-206.48 593.05,-205.15 671.99,-200.31"/>
<polygon fill="black" stroke="black" points="672.55,-203.78 682.31,-199.64 672.1,-196.79 672.55,-203.78"/>
</g>
<!-- raw_manifest_generation -->
<g id="node7" class="node">
<title>raw_manifest_generation</title>
<path fill="#ffffff" stroke="#000000" d="M499.5,-166C499.5,-166 368.5,-166 368.5,-166 362.5,-166 356.5,-160 356.5,-154 356.5,-154 356.5,-142 356.5,-142 356.5,-136 362.5,-130 368.5,-130 368.5,-130 499.5,-130 499.5,-130 505.5,-130 511.5,-136 511.5,-142 511.5,-142 511.5,-154 511.5,-154 511.5,-160 505.5,-166 499.5,-166"/>
<text text-anchor="middle" x="434" y="-144.3" font-family="Times,serif" font-size="14.00">raw_manifest_generation</text>
</g>
<!-- molecular_complex&#45;&gt;raw_manifest_generation -->
<g id="edge3" class="edge">
<title>molecular_complex&#45;&gt;raw_manifest_generation</title>
<path fill="none" stroke="black" d="M319.37,-133.11C328.05,-134.25 337.1,-135.43 346.13,-136.62"/>
<polygon fill="black" stroke="black" points="345.94,-140.12 356.31,-137.95 346.84,-133.18 345.94,-140.12"/>
</g>
<!-- smp_harmonisation -->
<g id="node12" class="node">
<title>smp_harmonisation</title>
<path fill="#ffffff" stroke="#000000" d="M794,-82C794,-82 693,-82 693,-82 687,-82 681,-76 681,-70 681,-70 681,-58 681,-58 681,-52 687,-46 693,-46 693,-46 794,-46 794,-46 800,-46 806,-52 806,-58 806,-58 806,-70 806,-70 806,-76 800,-82 794,-82"/>
<text text-anchor="middle" x="743.5" y="-60.3" font-family="Times,serif" font-size="14.00">smp_harmonisation</text>
</g>
<!-- molecular_complex&#45;&gt;smp_harmonisation -->
<g id="edge4" class="edge">
<title>molecular_complex&#45;&gt;smp_harmonisation</title>
<path fill="none" stroke="black" d="M319.42,-117.21C409.35,-105.9 575.73,-84.98 670.84,-73.01"/>
<polygon fill="black" stroke="black" points="671.47,-76.46 680.95,-71.74 670.59,-69.52 671.47,-76.46"/>
</g>
<!-- smp_manifest_generation -->
<g id="node15" class="node">
<title>smp_manifest_generation</title>
<path fill="#ffffff" stroke="#000000" d="M501,-74C501,-74 367,-74 367,-74 361,-74 355,-68 355,-62 355,-62 355,-50 355,-50 355,-44 361,-38 367,-38 367,-38 501,-38 501,-38 507,-38 513,-44 513,-50 513,-50 513,-62 513,-62 513,-68 507,-74 501,-74"/>
<text text-anchor="middle" x="434" y="-52.3" font-family="Times,serif" font-size="14.00">smp_manifest_generation</text>
</g>
<!-- molecular_complex&#45;&gt;smp_manifest_generation -->
<g id="edge5" class="edge">
<title>molecular_complex&#45;&gt;smp_manifest_generation</title>
<path fill="none" stroke="black" d="M303.61,-106.87C326.28,-97.96 353.78,-87.15 377.59,-77.79"/>
<polygon fill="black" stroke="black" points="379.17,-80.92 387.2,-74.01 376.61,-74.41 379.17,-80.92"/>
</g>
<!-- raw_qc -->
<g id="node10" class="node">
<title>raw_qc</title>
<path fill="#ffffff" stroke="#000000" d="M887.5,-214C887.5,-214 855.5,-214 855.5,-214 849.5,-214 843.5,-208 843.5,-202 843.5,-202 843.5,-190 843.5,-190 843.5,-184 849.5,-178 855.5,-178 855.5,-178 887.5,-178 887.5,-178 893.5,-178 899.5,-184 899.5,-190 899.5,-190 899.5,-202 899.5,-202 899.5,-208 893.5,-214 887.5,-214"/>
<text text-anchor="middle" x="871.5" y="-192.3" font-family="Times,serif" font-size="14.00">raw_qc</text>
</g>
<!-- raw_harmonisation&#45;&gt;raw_qc -->
<g id="edge6" class="edge">
<title>raw_harmonisation&#45;&gt;raw_qc</title>
<path fill="none" stroke="black" d="M804.55,-194.95C814.3,-195.11 824.14,-195.26 833.14,-195.41"/>
<polygon fill="black" stroke="black" points="833.21,-198.91 843.27,-195.57 833.32,-191.91 833.21,-198.91"/>
</g>
<!-- raw_wbc -->
<g id="node11" class="node">
<title>raw_wbc</title>
<path fill="#ffffff" stroke="#000000" d="M992.5,-172C992.5,-172 950.5,-172 950.5,-172 944.5,-172 938.5,-166 938.5,-160 938.5,-160 938.5,-148 938.5,-148 938.5,-142 944.5,-136 950.5,-136 950.5,-136 992.5,-136 992.5,-136 998.5,-136 1004.5,-142 1004.5,-148 1004.5,-148 1004.5,-160 1004.5,-160 1004.5,-166 998.5,-172 992.5,-172"/>
<text text-anchor="middle" x="971.5" y="-150.3" font-family="Times,serif" font-size="14.00">raw_wbc</text>
</g>
<!-- raw_harmonisation&#45;&gt;raw_wbc -->
<g id="edge7" class="edge">
<title>raw_harmonisation&#45;&gt;raw_wbc</title>
<path fill="none" stroke="black" d="M804.55,-177.25C816.87,-174.2 829.8,-171.27 842,-169 870.63,-163.68 903.21,-159.91 928.41,-157.47"/>
<polygon fill="black" stroke="black" points="928.74,-160.95 938.37,-156.54 928.09,-153.99 928.74,-160.95"/>
</g>
<!-- raw_ingestion -->
<g id="node5" class="node">
<title>raw_ingestion</title>
<path fill="#ffffff" stroke="#000000" d="M631.5,-166C631.5,-166 562.5,-166 562.5,-166 556.5,-166 550.5,-160 550.5,-154 550.5,-154 550.5,-142 550.5,-142 550.5,-136 556.5,-130 562.5,-130 562.5,-130 631.5,-130 631.5,-130 637.5,-130 643.5,-136 643.5,-142 643.5,-142 643.5,-154 643.5,-154 643.5,-160 637.5,-166 631.5,-166"/>
<text text-anchor="middle" x="597" y="-144.3" font-family="Times,serif" font-size="14.00">raw_ingestion</text>
</g>
<!-- raw_ingestion&#45;&gt;raw_harmonisation -->
<g id="edge8" class="edge">
<title>raw_ingestion&#45;&gt;raw_harmonisation</title>
<path fill="none" stroke="black" d="M643.72,-162.55C654.08,-165.85 665.29,-169.42 676.3,-172.93"/>
<polygon fill="black" stroke="black" points="675.32,-176.29 685.91,-175.98 677.44,-169.62 675.32,-176.29"/>
</g>
<!-- raw_ldc -->
<g id="node6" class="node">
<title>raw_ldc</title>
<path fill="#ffffff" stroke="#000000" d="M1091.5,-172C1091.5,-172 1055.5,-172 1055.5,-172 1049.5,-172 1043.5,-166 1043.5,-160 1043.5,-160 1043.5,-148 1043.5,-148 1043.5,-142 1049.5,-136 1055.5,-136 1055.5,-136 1091.5,-136 1091.5,-136 1097.5,-136 1103.5,-142 1103.5,-148 1103.5,-148 1103.5,-160 1103.5,-160 1103.5,-166 1097.5,-172 1091.5,-172"/>
<text text-anchor="middle" x="1073.5" y="-150.3" font-family="Times,serif" font-size="14.00">raw_ldc</text>
</g>
<!-- raw_pics -->
<g id="node8" class="node">
<title>raw_pics</title>
<path fill="#ffffff" stroke="#000000" d="M1195.5,-172C1195.5,-172 1154.5,-172 1154.5,-172 1148.5,-172 1142.5,-166 1142.5,-160 1142.5,-160 1142.5,-148 1142.5,-148 1142.5,-142 1148.5,-136 1154.5,-136 1154.5,-136 1195.5,-136 1195.5,-136 1201.5,-136 1207.5,-142 1207.5,-148 1207.5,-148 1207.5,-160 1207.5,-160 1207.5,-166 1201.5,-172 1195.5,-172"/>
<text text-anchor="middle" x="1175" y="-150.3" font-family="Times,serif" font-size="14.00">raw_pics</text>
</g>
<!-- raw_ldc&#45;&gt;raw_pics -->
<g id="edge9" class="edge">
<title>raw_ldc&#45;&gt;raw_pics</title>
<path fill="none" stroke="black" d="M1103.55,-154C1112.48,-154 1122.49,-154 1132.1,-154"/>
<polygon fill="black" stroke="black" points="1132.31,-157.5 1142.31,-154 1132.31,-150.5 1132.31,-157.5"/>
</g>
<!-- raw_manifest_generation&#45;&gt;raw_harmonisation -->
<g id="edge10" class="edge">
<title>raw_manifest_generation&#45;&gt;raw_harmonisation</title>
<path fill="none" stroke="black" d="M504.63,-166.06C519.22,-169.4 534.56,-172.59 549,-175 589.48,-181.75 635.15,-186.37 671.95,-189.37"/>
<polygon fill="black" stroke="black" points="671.84,-192.87 682.08,-190.17 672.39,-185.89 671.84,-192.87"/>
</g>
<!-- raw_manifest_generation&#45;&gt;raw_ingestion -->
<g id="edge11" class="edge">
<title>raw_manifest_generation&#45;&gt;raw_ingestion</title>
<path fill="none" stroke="black" d="M511.73,-148C521.26,-148 530.86,-148 540,-148"/>
<polygon fill="black" stroke="black" points="540.09,-151.5 550.09,-148 540.09,-144.5 540.09,-151.5"/>
</g>
<!-- raw_pqtl_to_study -->
<g id="node9" class="node">
<title>raw_pqtl_to_study</title>
<path fill="#ffffff" stroke="#000000" d="M1352.5,-172C1352.5,-172 1258.5,-172 1258.5,-172 1252.5,-172 1246.5,-166 1246.5,-160 1246.5,-160 1246.5,-148 1246.5,-148 1246.5,-142 1252.5,-136 1258.5,-136 1258.5,-136 1352.5,-136 1352.5,-136 1358.5,-136 1364.5,-142 1364.5,-148 1364.5,-148 1364.5,-160 1364.5,-160 1364.5,-166 1358.5,-172 1352.5,-172"/>
<text text-anchor="middle" x="1305.5" y="-150.3" font-family="Times,serif" font-size="14.00">raw_pqtl_to_study</text>
</g>
<!-- raw_pics&#45;&gt;raw_pqtl_to_study -->
<g id="edge12" class="edge">
<title>raw_pics&#45;&gt;raw_pqtl_to_study</title>
<path fill="none" stroke="black" d="M1207.76,-154C1216.42,-154 1226.15,-154 1236.02,-154"/>
<polygon fill="black" stroke="black" points="1236.3,-157.5 1246.3,-154 1236.3,-150.5 1236.3,-157.5"/>
</g>
<!-- raw_pqtl_to_study&#45;&gt;delete_cluster_otg&#45;decode -->
<g id="edge13" class="edge">
<title>raw_pqtl_to_study&#45;&gt;delete_cluster_otg&#45;decode</title>
<path fill="none" stroke="black" d="M1364.76,-144.93C1373.5,-143.57 1382.69,-142.14 1391.89,-140.71"/>
<polygon fill="black" stroke="black" points="1392.52,-144.16 1401.86,-139.16 1391.44,-137.24 1392.52,-144.16"/>
</g>
<!-- raw_qc&#45;&gt;raw_wbc -->
<g id="edge14" class="edge">
<title>raw_qc&#45;&gt;raw_wbc</title>
<path fill="none" stroke="black" d="M899.54,-184.41C908.64,-180.51 919.02,-176.06 928.97,-171.8"/>
<polygon fill="black" stroke="black" points="930.52,-174.94 938.33,-167.79 927.76,-168.51 930.52,-174.94"/>
</g>
<!-- raw_wbc&#45;&gt;raw_ldc -->
<g id="edge15" class="edge">
<title>raw_wbc&#45;&gt;raw_ldc</title>
<path fill="none" stroke="black" d="M1004.69,-154C1013.83,-154 1023.89,-154 1033.39,-154"/>
<polygon fill="black" stroke="black" points="1033.41,-157.5 1043.41,-154 1033.41,-150.5 1033.41,-157.5"/>
</g>
<!-- smp_qc -->
<g id="node18" class="node">
<title>smp_qc</title>
<path fill="#ffffff" stroke="#000000" d="M889,-120C889,-120 854,-120 854,-120 848,-120 842,-114 842,-108 842,-108 842,-96 842,-96 842,-90 848,-84 854,-84 854,-84 889,-84 889,-84 895,-84 901,-90 901,-96 901,-96 901,-108 901,-108 901,-114 895,-120 889,-120"/>
<text text-anchor="middle" x="871.5" y="-98.3" font-family="Times,serif" font-size="14.00">smp_qc</text>
</g>
<!-- smp_harmonisation&#45;&gt;smp_qc -->
<g id="edge16" class="edge">
<title>smp_harmonisation&#45;&gt;smp_qc</title>
<path fill="none" stroke="black" d="M804.55,-82.11C813.93,-84.94 823.4,-87.8 832.13,-90.43"/>
<polygon fill="black" stroke="black" points="831.39,-93.86 841.98,-93.4 833.41,-87.16 831.39,-93.86"/>
</g>
<!-- smp_wbc -->
<g id="node19" class="node">
<title>smp_wbc</title>
<path fill="#ffffff" stroke="#000000" d="M994,-118C994,-118 949,-118 949,-118 943,-118 937,-112 937,-106 937,-106 937,-94 937,-94 937,-88 943,-82 949,-82 949,-82 994,-82 994,-82 1000,-82 1006,-88 1006,-94 1006,-94 1006,-106 1006,-106 1006,-112 1000,-118 994,-118"/>
<text text-anchor="middle" x="971.5" y="-96.3" font-family="Times,serif" font-size="14.00">smp_wbc</text>
</g>
<!-- smp_harmonisation&#45;&gt;smp_wbc -->
<g id="edge17" class="edge">
<title>smp_harmonisation&#45;&gt;smp_wbc</title>
<path fill="none" stroke="black" d="M806.36,-64.44C835.35,-65.64 870.22,-68.51 901,-75 909.66,-76.83 918.7,-79.48 927.29,-82.39"/>
<polygon fill="black" stroke="black" points="926.16,-85.7 936.75,-85.75 928.5,-79.11 926.16,-85.7"/>
</g>
<!-- smp_ingestion -->
<g id="node13" class="node">
<title>smp_ingestion</title>
<path fill="#ffffff" stroke="#000000" d="M633,-36C633,-36 561,-36 561,-36 555,-36 549,-30 549,-24 549,-24 549,-12 549,-12 549,-6 555,0 561,0 561,0 633,0 633,0 639,0 645,-6 645,-12 645,-12 645,-24 645,-24 645,-30 639,-36 633,-36"/>
<text text-anchor="middle" x="597" y="-14.3" font-family="Times,serif" font-size="14.00">smp_ingestion</text>
</g>
<!-- smp_ingestion&#45;&gt;smp_harmonisation -->
<g id="edge18" class="edge">
<title>smp_ingestion&#45;&gt;smp_harmonisation</title>
<path fill="none" stroke="black" d="M645.31,-33.06C655.11,-36.18 665.6,-39.52 675.93,-42.81"/>
<polygon fill="black" stroke="black" points="675.17,-46.24 685.76,-45.94 677.3,-39.57 675.17,-46.24"/>
</g>
<!-- smp_ldc -->
<g id="node14" class="node">
<title>smp_ldc</title>
<path fill="#ffffff" stroke="#000000" d="M1093,-118C1093,-118 1054,-118 1054,-118 1048,-118 1042,-112 1042,-106 1042,-106 1042,-94 1042,-94 1042,-88 1048,-82 1054,-82 1054,-82 1093,-82 1093,-82 1099,-82 1105,-88 1105,-94 1105,-94 1105,-106 1105,-106 1105,-112 1099,-118 1093,-118"/>
<text text-anchor="middle" x="1073.5" y="-96.3" font-family="Times,serif" font-size="14.00">smp_ldc</text>
</g>
<!-- smp_pics -->
<g id="node16" class="node">
<title>smp_pics</title>
<path fill="#ffffff" stroke="#000000" d="M1197,-118C1197,-118 1153,-118 1153,-118 1147,-118 1141,-112 1141,-106 1141,-106 1141,-94 1141,-94 1141,-88 1147,-82 1153,-82 1153,-82 1197,-82 1197,-82 1203,-82 1209,-88 1209,-94 1209,-94 1209,-106 1209,-106 1209,-112 1203,-118 1197,-118"/>
<text text-anchor="middle" x="1175" y="-96.3" font-family="Times,serif" font-size="14.00">smp_pics</text>
</g>
<!-- smp_ldc&#45;&gt;smp_pics -->
<g id="edge19" class="edge">
<title>smp_ldc&#45;&gt;smp_pics</title>
<path fill="none" stroke="black" d="M1105.17,-100C1113.2,-100 1122.02,-100 1130.59,-100"/>
<polygon fill="black" stroke="black" points="1130.84,-103.5 1140.84,-100 1130.84,-96.5 1130.84,-103.5"/>
</g>
<!-- smp_manifest_generation&#45;&gt;smp_harmonisation -->
<g id="edge20" class="edge">
<title>smp_manifest_generation&#45;&gt;smp_harmonisation</title>
<path fill="none" stroke="black" d="M513.39,-58.04C561.8,-59.3 623.44,-60.9 670.6,-62.13"/>
<polygon fill="black" stroke="black" points="670.64,-65.63 680.73,-62.39 670.82,-58.63 670.64,-65.63"/>
</g>
<!-- smp_manifest_generation&#45;&gt;smp_ingestion -->
<g id="edge21" class="edge">
<title>smp_manifest_generation&#45;&gt;smp_ingestion</title>
<path fill="none" stroke="black" d="M511.73,-37.89C520.91,-35.72 530.15,-33.54 538.98,-31.46"/>
<polygon fill="black" stroke="black" points="539.83,-34.85 548.76,-29.15 538.22,-28.04 539.83,-34.85"/>
</g>
<!-- smp_pqtl_to_study -->
<g id="node17" class="node">
<title>smp_pqtl_to_study</title>
<path fill="#ffffff" stroke="#000000" d="M1354,-118C1354,-118 1257,-118 1257,-118 1251,-118 1245,-112 1245,-106 1245,-106 1245,-94 1245,-94 1245,-88 1251,-82 1257,-82 1257,-82 1354,-82 1354,-82 1360,-82 1366,-88 1366,-94 1366,-94 1366,-106 1366,-106 1366,-112 1360,-118 1354,-118"/>
<text text-anchor="middle" x="1305.5" y="-96.3" font-family="Times,serif" font-size="14.00">smp_pqtl_to_study</text>
</g>
<!-- smp_pics&#45;&gt;smp_pqtl_to_study -->
<g id="edge22" class="edge">
<title>smp_pics&#45;&gt;smp_pqtl_to_study</title>
<path fill="none" stroke="black" d="M1209.09,-100C1217.03,-100 1225.81,-100 1234.74,-100"/>
<polygon fill="black" stroke="black" points="1234.84,-103.5 1244.84,-100 1234.84,-96.5 1234.84,-103.5"/>
</g>
<!-- smp_pqtl_to_study&#45;&gt;delete_cluster_otg&#45;decode -->
<g id="edge23" class="edge">
<title>smp_pqtl_to_study&#45;&gt;delete_cluster_otg&#45;decode</title>
<path fill="none" stroke="black" d="M1366.21,-109.29C1374.45,-110.57 1383.06,-111.91 1391.68,-113.26"/>
<polygon fill="black" stroke="black" points="1391.38,-116.75 1401.8,-114.83 1392.45,-109.83 1391.38,-116.75"/>
</g>
<!-- smp_qc&#45;&gt;smp_wbc -->
<g id="edge24" class="edge">
<title>smp_qc&#45;&gt;smp_wbc</title>
<path fill="none" stroke="black" d="M901.11,-101.42C909.15,-101.25 918.08,-101.07 926.79,-100.89"/>
<polygon fill="black" stroke="black" points="926.91,-104.39 936.84,-100.69 926.77,-97.39 926.91,-104.39"/>
</g>
<!-- smp_wbc&#45;&gt;smp_ldc -->
<g id="edge25" class="edge">
<title>smp_wbc&#45;&gt;smp_ldc</title>
<path fill="none" stroke="black" d="M1006.08,-100C1014.31,-100 1023.2,-100 1031.73,-100"/>
<polygon fill="black" stroke="black" points="1031.87,-103.5 1041.87,-100 1031.87,-96.5 1031.87,-103.5"/>
</g>
</g>
</svg>
