<?xml version="1.0" encoding="UTF-8" standalone="no"?>
<!DOCTYPE svg PUBLIC "-//W3C//DTD SVG 1.1//EN"
 "http://www.w3.org/Graphics/SVG/1.1/DTD/svg11.dtd">
<!-- Generated by graphviz version 2.43.0 (0)
 -->
<!-- Title: finngen_ingestion Pages: 1 -->
<svg width="454pt" height="121pt"
 viewBox="0.00 0.00 454.00 121.00" xmlns="http://www.w3.org/2000/svg" xmlns:xlink="http://www.w3.org/1999/xlink">
<g id="graph0" class="graph" transform="scale(1 1) rotate(0) translate(4 117)">
<title>finngen_ingestion</title>
<polygon fill="white" stroke="transparent" points="-4,4 -4,-117 450,-117 450,4 -4,4"/>
<text text-anchor="middle" x="223" y="-97.8" font-family="Times,serif" font-size="14.00">finngen_ingestion</text>
<!-- create_cluster -->
<g id="node1" class="node">
<title>create_cluster</title>
<path fill="#ffffff" stroke="#000000" d="M80,-63C80,-63 12,-63 12,-63 6,-63 0,-57 0,-51 0,-51 0,-39 0,-39 0,-33 6,-27 12,-27 12,-27 80,-27 80,-27 86,-27 92,-33 92,-39 92,-39 92,-51 92,-51 92,-57 86,-63 80,-63"/>
<text text-anchor="middle" x="46" y="-41.3" font-family="Times,serif" font-size="14.00">create_cluster</text>
</g>
<!-- finngen_finemapping_ingestion -->
<g id="node3" class="node">
<title>finngen_finemapping_ingestion</title>
<path fill="#ffffff" stroke="#000000" d="M306,-90C306,-90 140,-90 140,-90 134,-90 128,-84 128,-78 128,-78 128,-66 128,-66 128,-60 134,-54 140,-54 140,-54 306,-54 306,-54 312,-54 318,-60 318,-66 318,-66 318,-78 318,-78 318,-84 312,-90 306,-90"/>
<text text-anchor="middle" x="223" y="-68.3" font-family="Times,serif" font-size="14.00">finngen_finemapping_ingestion</text>
</g>
<!-- create_cluster&#45;&gt;finngen_finemapping_ingestion -->
<g id="edge1" class="edge">
<title>create_cluster&#45;&gt;finngen_finemapping_ingestion</title>
<path fill="none" stroke="black" d="M92.07,-51.95C100.09,-53.19 108.73,-54.52 117.62,-55.9"/>
<polygon fill="black" stroke="black" points="117.33,-59.39 127.74,-57.46 118.39,-52.47 117.33,-59.39"/>
</g>
<!-- finngen_studies -->
<g id="node4" class="node">
<title>finngen_studies</title>
<path fill="#ffffff" stroke="#000000" d="M262,-36C262,-36 184,-36 184,-36 178,-36 172,-30 172,-24 172,-24 172,-12 172,-12 172,-6 178,0 184,0 184,0 262,0 262,0 268,0 274,-6 274,-12 274,-12 274,-24 274,-24 274,-30 268,-36 262,-36"/>
<text text-anchor="middle" x="223" y="-14.3" font-family="Times,serif" font-size="14.00">finngen_studies</text>
</g>
<!-- create_cluster&#45;&gt;finngen_studies -->
<g id="edge2" class="edge">
<title>create_cluster&#45;&gt;finngen_studies</title>
<path fill="none" stroke="black" d="M92.07,-38.05C113.33,-34.77 139,-30.81 161.89,-27.27"/>
<polygon fill="black" stroke="black" points="162.49,-30.72 171.84,-25.74 161.43,-23.8 162.49,-30.72"/>
</g>
<!-- delete_cluster -->
<g id="node2" class="node">
<title>delete_cluster</title>
<path fill="#ffffff" stroke="#000000" d="M434,-63C434,-63 366,-63 366,-63 360,-63 354,-57 354,-51 354,-51 354,-39 354,-39 354,-33 360,-27 366,-27 366,-27 434,-27 434,-27 440,-27 446,-33 446,-39 446,-39 446,-51 446,-51 446,-57 440,-63 434,-63"/>
<text text-anchor="middle" x="400" y="-41.3" font-family="Times,serif" font-size="14.00">delete_cluster</text>
</g>
<!-- finngen_finemapping_ingestion&#45;&gt;delete_cluster -->
<g id="edge3" class="edge">
<title>finngen_finemapping_ingestion&#45;&gt;delete_cluster</title>
<path fill="none" stroke="black" d="M318.16,-57.47C326.92,-56.12 335.59,-54.78 343.82,-53.51"/>
<polygon fill="black" stroke="black" points="344.62,-56.93 353.97,-51.95 343.56,-50.01 344.62,-56.93"/>
</g>
<!-- finngen_studies&#45;&gt;delete_cluster -->
<g id="edge4" class="edge">
<title>finngen_studies&#45;&gt;delete_cluster</title>
<path fill="none" stroke="black" d="M274.15,-25.74C295.96,-29.1 321.58,-33.05 343.91,-36.5"/>
<polygon fill="black" stroke="black" points="343.5,-39.98 353.92,-38.05 344.57,-33.06 343.5,-39.98"/>
</g>
</g>
</svg>
