<?xml version="1.0" encoding="UTF-8" standalone="no"?>
<!DOCTYPE svg PUBLIC "-//W3C//DTD SVG 1.1//EN"
 "http://www.w3.org/Graphics/SVG/1.1/DTD/svg11.dtd">
<!-- Generated by graphviz version 2.43.0 (0)
 -->
<!-- Title: finngen_ingestion Pages: 1 -->
<svg width="700pt" height="121pt"
 viewBox="0.00 0.00 700.00 121.00" xmlns="http://www.w3.org/2000/svg" xmlns:xlink="http://www.w3.org/1999/xlink">
<g id="graph0" class="graph" transform="scale(1 1) rotate(0) translate(4 117)">
<title>finngen_ingestion</title>
<polygon fill="white" stroke="transparent" points="-4,4 -4,-117 696,-117 696,4 -4,4"/>
<text text-anchor="middle" x="346" y="-97.8" font-family="Times,serif" font-size="14.00">finngen_ingestion</text>
<!-- create_cluster_otg&#45;ingestion&#45;finngen -->
<g id="node1" class="node">
<title>create_cluster_otg&#45;ingestion&#45;finngen</title>
<path fill="#ffffff" stroke="#000000" d="M203,-63C203,-63 12,-63 12,-63 6,-63 0,-57 0,-51 0,-51 0,-39 0,-39 0,-33 6,-27 12,-27 12,-27 203,-27 203,-27 209,-27 215,-33 215,-39 215,-39 215,-51 215,-51 215,-57 209,-63 203,-63"/>
<text text-anchor="middle" x="107.5" y="-41.3" font-family="Times,serif" font-size="14.00">create_cluster_otg&#45;ingestion&#45;finngen</text>
</g>
<!-- finngen_finemapping_ingestion -->
<g id="node3" class="node">
<title>finngen_finemapping_ingestion</title>
<path fill="#ffffff" stroke="#000000" d="M429,-90C429,-90 263,-90 263,-90 257,-90 251,-84 251,-78 251,-78 251,-66 251,-66 251,-60 257,-54 263,-54 263,-54 429,-54 429,-54 435,-54 441,-60 441,-66 441,-66 441,-78 441,-78 441,-84 435,-90 429,-90"/>
<text text-anchor="middle" x="346" y="-68.3" font-family="Times,serif" font-size="14.00">finngen_finemapping_ingestion</text>
</g>
<!-- create_cluster_otg&#45;ingestion&#45;finngen&#45;&gt;finngen_finemapping_ingestion -->
<g id="edge1" class="edge">
<title>create_cluster_otg&#45;ingestion&#45;finngen&#45;&gt;finngen_finemapping_ingestion</title>
<path fill="none" stroke="black" d="M215.33,-57.2C223.87,-58.17 232.48,-59.15 241,-60.13"/>
<polygon fill="black" stroke="black" points="240.6,-63.6 250.94,-61.26 241.4,-56.65 240.6,-63.6"/>
</g>
<!-- finngen_studies -->
<g id="node4" class="node">
<title>finngen_studies</title>
<path fill="#ffffff" stroke="#000000" d="M385,-36C385,-36 307,-36 307,-36 301,-36 295,-30 295,-24 295,-24 295,-12 295,-12 295,-6 301,0 307,0 307,0 385,0 385,0 391,0 397,-6 397,-12 397,-12 397,-24 397,-24 397,-30 391,-36 385,-36"/>
<text text-anchor="middle" x="346" y="-14.3" font-family="Times,serif" font-size="14.00">finngen_studies</text>
</g>
<!-- create_cluster_otg&#45;ingestion&#45;finngen&#45;&gt;finngen_studies -->
<g id="edge2" class="edge">
<title>create_cluster_otg&#45;ingestion&#45;finngen&#45;&gt;finngen_studies</title>
<path fill="none" stroke="black" d="M215.33,-32.8C239.11,-30.09 263.5,-27.3 284.63,-24.89"/>
<polygon fill="black" stroke="black" points="285.18,-28.35 294.72,-23.74 284.39,-21.4 285.18,-28.35"/>
</g>
<!-- delete_cluster_otg&#45;ingestion&#45;finngen -->
<g id="node2" class="node">
<title>delete_cluster_otg&#45;ingestion&#45;finngen</title>
<path fill="#ffffff" stroke="#000000" d="M680,-63C680,-63 489,-63 489,-63 483,-63 477,-57 477,-51 477,-51 477,-39 477,-39 477,-33 483,-27 489,-27 489,-27 680,-27 680,-27 686,-27 692,-33 692,-39 692,-39 692,-51 692,-51 692,-57 686,-63 680,-63"/>
<text text-anchor="middle" x="584.5" y="-41.3" font-family="Times,serif" font-size="14.00">delete_cluster_otg&#45;ingestion&#45;finngen</text>
</g>
<!-- finngen_finemapping_ingestion&#45;&gt;delete_cluster_otg&#45;ingestion&#45;finngen -->
<g id="edge3" class="edge">
<title>finngen_finemapping_ingestion&#45;&gt;delete_cluster_otg&#45;ingestion&#45;finngen</title>
<path fill="none" stroke="black" d="M441.15,-61.25C449.58,-60.29 458.17,-59.31 466.76,-58.33"/>
<polygon fill="black" stroke="black" points="467.28,-61.79 476.82,-57.18 466.49,-54.84 467.28,-61.79"/>
</g>
<!-- finngen_studies&#45;&gt;delete_cluster_otg&#45;ingestion&#45;finngen -->
<g id="edge4" class="edge">
<title>finngen_studies&#45;&gt;delete_cluster_otg&#45;ingestion&#45;finngen</title>
<path fill="none" stroke="black" d="M397.16,-23.73C417.65,-26.07 442.29,-28.88 466.84,-31.68"/>
<polygon fill="black" stroke="black" points="466.64,-35.18 476.97,-32.84 467.43,-28.23 466.64,-35.18"/>
</g>
</g>
</svg>
