<?xml version="1.0" encoding="UTF-8" standalone="no"?>
<!DOCTYPE svg PUBLIC "-//W3C//DTD SVG 1.1//EN"
 "http://www.w3.org/Graphics/SVG/1.1/DTD/svg11.dtd">
<!-- Generated by graphviz version 2.43.0 (0)
 -->
<!-- Title: finngen_ukb_mvp_meta Pages: 1 -->
<svg width="800pt" height="67pt"
 viewBox="0.00 0.00 800.00 67.00" xmlns="http://www.w3.org/2000/svg" xmlns:xlink="http://www.w3.org/1999/xlink">
<g id="graph0" class="graph" transform="scale(1 1) rotate(0) translate(4 63)">
<title>finngen_ukb_mvp_meta</title>
<polygon fill="white" stroke="transparent" points="-4,4 -4,-63 796,-63 796,4 -4,4"/>
<text text-anchor="middle" x="396" y="-43.8" font-family="Times,serif" font-size="14.00">finngen_ukb_mvp_meta</text>
<!-- create_cluster -->
<g id="node1" class="node">
<title>create_cluster</title>
<path fill="#ffffff" stroke="#000000" d="M80,-36C80,-36 12,-36 12,-36 6,-36 0,-30 0,-24 0,-24 0,-12 0,-12 0,-6 6,0 12,0 12,0 80,0 80,0 86,0 92,-6 92,-12 92,-12 92,-24 92,-24 92,-30 86,-36 80,-36"/>
<text text-anchor="middle" x="46" y="-14.3" font-family="Times,serif" font-size="14.00">create_cluster</text>
</g>
<!-- harmonisation -->
<g id="node3" class="node">
<title>harmonisation</title>
<path fill="#ffffff" stroke="#000000" d="M211,-36C211,-36 140,-36 140,-36 134,-36 128,-30 128,-24 128,-24 128,-12 128,-12 128,-6 134,0 140,0 140,0 211,0 211,0 217,0 223,-6 223,-12 223,-12 223,-24 223,-24 223,-30 217,-36 211,-36"/>
<text text-anchor="middle" x="175.5" y="-14.3" font-family="Times,serif" font-size="14.00">harmonisation</text>
</g>
<!-- create_cluster&#45;&gt;harmonisation -->
<g id="edge1" class="edge">
<title>create_cluster&#45;&gt;harmonisation</title>
<path fill="none" stroke="black" d="M92.31,-18C100.45,-18 109.03,-18 117.46,-18"/>
<polygon fill="black" stroke="black" points="117.61,-21.5 127.61,-18 117.61,-14.5 117.61,-21.5"/>
</g>
<!-- delete_cluster -->
<g id="node2" class="node">
<title>delete_cluster</title>
<path fill="#ffffff" stroke="#000000" d="M780,-36C780,-36 712,-36 712,-36 706,-36 700,-30 700,-24 700,-24 700,-12 700,-12 700,-6 706,0 712,0 712,0 780,0 780,0 786,0 792,-6 792,-12 792,-12 792,-24 792,-24 792,-30 786,-36 780,-36"/>
<text text-anchor="middle" x="746" y="-14.3" font-family="Times,serif" font-size="14.00">delete_cluster</text>
</g>
<!-- window_based_clumping -->
<g id="node6" class="node">
<title>window_based_clumping</title>
<path fill="#ffffff" stroke="#000000" d="M403,-36C403,-36 271,-36 271,-36 265,-36 259,-30 259,-24 259,-24 259,-12 259,-12 259,-6 265,0 271,0 271,0 403,0 403,0 409,0 415,-6 415,-12 415,-12 415,-24 415,-24 415,-30 409,-36 403,-36"/>
<text text-anchor="middle" x="337" y="-14.3" font-family="Times,serif" font-size="14.00">window_based_clumping</text>
</g>
<!-- harmonisation&#45;&gt;window_based_clumping -->
<g id="edge2" class="edge">
<title>harmonisation&#45;&gt;window_based_clumping</title>
<path fill="none" stroke="black" d="M223.06,-18C231.21,-18 239.93,-18 248.76,-18"/>
<polygon fill="black" stroke="black" points="248.77,-21.5 258.77,-18 248.77,-14.5 248.77,-21.5"/>
</g>
<!-- ld_based_clumping -->
<g id="node4" class="node">
<title>ld_based_clumping</title>
<path fill="#ffffff" stroke="#000000" d="M562,-36C562,-36 463,-36 463,-36 457,-36 451,-30 451,-24 451,-24 451,-12 451,-12 451,-6 457,0 463,0 463,0 562,0 562,0 568,0 574,-6 574,-12 574,-12 574,-24 574,-24 574,-30 568,-36 562,-36"/>
<text text-anchor="middle" x="512.5" y="-14.3" font-family="Times,serif" font-size="14.00">ld_based_clumping</text>
</g>
<!-- pics -->
<g id="node5" class="node">
<title>pics</title>
<path fill="#ffffff" stroke="#000000" d="M652,-36C652,-36 622,-36 622,-36 616,-36 610,-30 610,-24 610,-24 610,-12 610,-12 610,-6 616,0 622,0 622,0 652,0 652,0 658,0 664,-6 664,-12 664,-12 664,-24 664,-24 664,-30 658,-36 652,-36"/>
<text text-anchor="middle" x="637" y="-14.3" font-family="Times,serif" font-size="14.00">pics</text>
</g>
<!-- ld_based_clumping&#45;&gt;pics -->
<g id="edge3" class="edge">
<title>ld_based_clumping&#45;&gt;pics</title>
<path fill="none" stroke="black" d="M574.03,-18C582.83,-18 591.66,-18 599.77,-18"/>
<polygon fill="black" stroke="black" points="599.97,-21.5 609.97,-18 599.97,-14.5 599.97,-21.5"/>
</g>
<!-- pics&#45;&gt;delete_cluster -->
<g id="edge4" class="edge">
<title>pics&#45;&gt;delete_cluster</title>
<path fill="none" stroke="black" d="M664.18,-18C672,-18 680.88,-18 689.83,-18"/>
<polygon fill="black" stroke="black" points="689.91,-21.5 699.91,-18 689.91,-14.5 689.91,-21.5"/>
</g>
<!-- window_based_clumping&#45;&gt;ld_based_clumping -->
<g id="edge5" class="edge">
<title>window_based_clumping&#45;&gt;ld_based_clumping</title>
<path fill="none" stroke="black" d="M415.11,-18C423.6,-18 432.22,-18 440.63,-18"/>
<polygon fill="black" stroke="black" points="440.77,-21.5 450.77,-18 440.77,-14.5 440.77,-21.5"/>
</g>
</g>
</svg>
