<?xml version="1.0" encoding="UTF-8" standalone="no"?>
<!DOCTYPE svg PUBLIC "-//W3C//DTD SVG 1.1//EN"
 "http://www.w3.org/Graphics/SVG/1.1/DTD/svg11.dtd">
<!-- Generated by graphviz version 2.43.0 (0)
 -->
<!-- Title: finngen_ukb_mvp_meta Pages: 1 -->
<svg width="1052pt" height="67pt"
 viewBox="0.00 0.00 1052.00 67.00" xmlns="http://www.w3.org/2000/svg" xmlns:xlink="http://www.w3.org/1999/xlink">
<g id="graph0" class="graph" transform="scale(1 1) rotate(0) translate(4 63)">
<title>finngen_ukb_mvp_meta</title>
<polygon fill="white" stroke="transparent" points="-4,4 -4,-63 1048,-63 1048,4 -4,4"/>
<text text-anchor="middle" x="522" y="-43.8" font-family="Times,serif" font-size="14.00">finngen_ukb_mvp_meta</text>
<!-- create_cluster_otg&#45;finngen&#45;ukb&#45;meta -->
<g id="node1" class="node">
<title>create_cluster_otg&#45;finngen&#45;ukb&#45;meta</title>
<path fill="#ffffff" stroke="#000000" d="M206,-36C206,-36 12,-36 12,-36 6,-36 0,-30 0,-24 0,-24 0,-12 0,-12 0,-6 6,0 12,0 12,0 206,0 206,0 212,0 218,-6 218,-12 218,-12 218,-24 218,-24 218,-30 212,-36 206,-36"/>
<text text-anchor="middle" x="109" y="-14.3" font-family="Times,serif" font-size="14.00">create_cluster_otg&#45;finngen&#45;ukb&#45;meta</text>
</g>
<!-- harmonisation -->
<g id="node3" class="node">
<title>harmonisation</title>
<path fill="#ffffff" stroke="#000000" d="M337,-36C337,-36 266,-36 266,-36 260,-36 254,-30 254,-24 254,-24 254,-12 254,-12 254,-6 260,0 266,0 266,0 337,0 337,0 343,0 349,-6 349,-12 349,-12 349,-24 349,-24 349,-30 343,-36 337,-36"/>
<text text-anchor="middle" x="301.5" y="-14.3" font-family="Times,serif" font-size="14.00">harmonisation</text>
</g>
<!-- create_cluster_otg&#45;finngen&#45;ukb&#45;meta&#45;&gt;harmonisation -->
<g id="edge1" class="edge">
<title>create_cluster_otg&#45;finngen&#45;ukb&#45;meta&#45;&gt;harmonisation</title>
<path fill="none" stroke="black" d="M218.05,-18C226.79,-18 235.38,-18 243.53,-18"/>
<polygon fill="black" stroke="black" points="243.58,-21.5 253.58,-18 243.58,-14.5 243.58,-21.5"/>
</g>
<!-- delete_cluster_otg&#45;finngen&#45;ukb&#45;meta -->
<g id="node2" class="node">
<title>delete_cluster_otg&#45;finngen&#45;ukb&#45;meta</title>
<path fill="#ffffff" stroke="#000000" d="M1032,-36C1032,-36 838,-36 838,-36 832,-36 826,-30 826,-24 826,-24 826,-12 826,-12 826,-6 832,0 838,0 838,0 1032,0 1032,0 1038,0 1044,-6 1044,-12 1044,-12 1044,-24 1044,-24 1044,-30 1038,-36 1032,-36"/>
<text text-anchor="middle" x="935" y="-14.3" font-family="Times,serif" font-size="14.00">delete_cluster_otg&#45;finngen&#45;ukb&#45;meta</text>
</g>
<!-- window_based_clumping -->
<g id="node6" class="node">
<title>window_based_clumping</title>
<path fill="#ffffff" stroke="#000000" d="M529,-36C529,-36 397,-36 397,-36 391,-36 385,-30 385,-24 385,-24 385,-12 385,-12 385,-6 391,0 397,0 397,0 529,0 529,0 535,0 541,-6 541,-12 541,-12 541,-24 541,-24 541,-30 535,-36 529,-36"/>
<text text-anchor="middle" x="463" y="-14.3" font-family="Times,serif" font-size="14.00">window_based_clumping</text>
</g>
<!-- harmonisation&#45;&gt;window_based_clumping -->
<g id="edge2" class="edge">
<title>harmonisation&#45;&gt;window_based_clumping</title>
<path fill="none" stroke="black" d="M349.06,-18C357.21,-18 365.93,-18 374.76,-18"/>
<polygon fill="black" stroke="black" points="374.77,-21.5 384.77,-18 374.77,-14.5 374.77,-21.5"/>
</g>
<!-- ld_based_clumping -->
<g id="node4" class="node">
<title>ld_based_clumping</title>
<path fill="#ffffff" stroke="#000000" d="M688,-36C688,-36 589,-36 589,-36 583,-36 577,-30 577,-24 577,-24 577,-12 577,-12 577,-6 583,0 589,0 589,0 688,0 688,0 694,0 700,-6 700,-12 700,-12 700,-24 700,-24 700,-30 694,-36 688,-36"/>
<text text-anchor="middle" x="638.5" y="-14.3" font-family="Times,serif" font-size="14.00">ld_based_clumping</text>
</g>
<!-- pics -->
<g id="node5" class="node">
<title>pics</title>
<path fill="#ffffff" stroke="#000000" d="M778,-36C778,-36 748,-36 748,-36 742,-36 736,-30 736,-24 736,-24 736,-12 736,-12 736,-6 742,0 748,0 748,0 778,0 778,0 784,0 790,-6 790,-12 790,-12 790,-24 790,-24 790,-30 784,-36 778,-36"/>
<text text-anchor="middle" x="763" y="-14.3" font-family="Times,serif" font-size="14.00">pics</text>
</g>
<!-- ld_based_clumping&#45;&gt;pics -->
<g id="edge3" class="edge">
<title>ld_based_clumping&#45;&gt;pics</title>
<path fill="none" stroke="black" d="M700.03,-18C708.83,-18 717.66,-18 725.77,-18"/>
<polygon fill="black" stroke="black" points="725.97,-21.5 735.97,-18 725.97,-14.5 725.97,-21.5"/>
</g>
<!-- pics&#45;&gt;delete_cluster_otg&#45;finngen&#45;ukb&#45;meta -->
<g id="edge4" class="edge">
<title>pics&#45;&gt;delete_cluster_otg&#45;finngen&#45;ukb&#45;meta</title>
<path fill="none" stroke="black" d="M790.19,-18C797.65,-18 806.28,-18 815.56,-18"/>
<polygon fill="black" stroke="black" points="815.84,-21.5 825.84,-18 815.84,-14.5 815.84,-21.5"/>
</g>
<!-- window_based_clumping&#45;&gt;ld_based_clumping -->
<g id="edge5" class="edge">
<title>window_based_clumping&#45;&gt;ld_based_clumping</title>
<path fill="none" stroke="black" d="M541.11,-18C549.6,-18 558.22,-18 566.63,-18"/>
<polygon fill="black" stroke="black" points="566.77,-21.5 576.77,-18 566.77,-14.5 566.77,-21.5"/>
</g>
</g>
</svg>
