<?xml version="1.0" encoding="UTF-8" standalone="no"?>
<!DOCTYPE svg PUBLIC "-//W3C//DTD SVG 1.1//EN"
 "http://www.w3.org/Graphics/SVG/1.1/DTD/svg11.dtd">
<!-- Generated by graphviz version 12.2.1 (20241206.2353)
 -->
<!-- Title: finngen_ukb_mvp_meta Pages: 1 -->
<svg width="796pt" height="69pt"
 viewBox="0.00 0.00 796.00 68.50" xmlns="http://www.w3.org/2000/svg" xmlns:xlink="http://www.w3.org/1999/xlink">
<g id="graph0" class="graph" transform="scale(1 1) rotate(0) translate(4 64.5)">
<title>finngen_ukb_mvp_meta</title>
<polygon fill="white" stroke="none" points="-4,4 -4,-64.5 792,-64.5 792,4 -4,4"/>
<text text-anchor="middle" x="394" y="-43.2" font-family="Times,serif" font-size="14.00">finngen_ukb_mvp_meta</text>
<!-- create_cluster -->
<g id="node1" class="node">
<title>create_cluster</title>
<path fill="#ffffff" stroke="#000000" d="M79,-36C79,-36 12,-36 12,-36 6,-36 0,-30 0,-24 0,-24 0,-12 0,-12 0,-6 6,0 12,0 12,0 79,0 79,0 85,0 91,-6 91,-12 91,-12 91,-24 91,-24 91,-30 85,-36 79,-36"/>
<text text-anchor="middle" x="45.5" y="-12.95" font-family="Times,serif" font-size="14.00">create_cluster</text>
</g>
<!-- harmonisation -->
<g id="node3" class="node">
<title>harmonisation</title>
<path fill="#ffffff" stroke="#000000" d="M209,-36C209,-36 139,-36 139,-36 133,-36 127,-30 127,-24 127,-24 127,-12 127,-12 127,-6 133,0 139,0 139,0 209,0 209,0 215,0 221,-6 221,-12 221,-12 221,-24 221,-24 221,-30 215,-36 209,-36"/>
<text text-anchor="middle" x="174" y="-12.95" font-family="Times,serif" font-size="14.00">harmonisation</text>
</g>
<!-- create_cluster_otg&#45;finngen&#45;ukb&#45;meta&#45;&gt;harmonisation -->
<g id="edge1" class="edge">
<title>create_cluster_otg&#45;finngen&#45;ukb&#45;meta&#45;&gt;harmonisation</title>
<path fill="none" stroke="black" d="M218.05,-18C226.79,-18 235.38,-18 243.53,-18"/>
<polygon fill="black" stroke="black" points="243.58,-21.5 253.58,-18 243.58,-14.5 243.58,-21.5"/>
</g>
<!-- delete_cluster_otg&#45;finngen&#45;ukb&#45;meta -->
<g id="node2" class="node">
<title>delete_cluster</title>
<path fill="#ffffff" stroke="#000000" d="M776,-36C776,-36 709,-36 709,-36 703,-36 697,-30 697,-24 697,-24 697,-12 697,-12 697,-6 703,0 709,0 709,0 776,0 776,0 782,0 788,-6 788,-12 788,-12 788,-24 788,-24 788,-30 782,-36 776,-36"/>
<text text-anchor="middle" x="742.5" y="-12.95" font-family="Times,serif" font-size="14.00">delete_cluster</text>
</g>
<!-- window_based_clumping -->
<g id="node6" class="node">
<title>window_based_clumping</title>
<path fill="#ffffff" stroke="#000000" d="M400.5,-36C400.5,-36 269,-36 269,-36 263,-36 257,-30 257,-24 257,-24 257,-12 257,-12 257,-6 263,0 269,0 269,0 400.5,0 400.5,0 406.5,0 412.5,-6 412.5,-12 412.5,-12 412.5,-24 412.5,-24 412.5,-30 406.5,-36 400.5,-36"/>
<text text-anchor="middle" x="334.75" y="-12.95" font-family="Times,serif" font-size="14.00">window_based_clumping</text>
</g>
<!-- harmonisation&#45;&gt;window_based_clumping -->
<g id="edge2" class="edge">
<title>harmonisation&#45;&gt;window_based_clumping</title>
<path fill="none" stroke="black" d="M349.06,-18C357.21,-18 365.93,-18 374.76,-18"/>
<polygon fill="black" stroke="black" points="374.77,-21.5 384.77,-18 374.77,-14.5 374.77,-21.5"/>
</g>
<!-- ld_based_clumping -->
<g id="node4" class="node">
<title>ld_based_clumping</title>
<path fill="#ffffff" stroke="#000000" d="M559,-36C559,-36 460.5,-36 460.5,-36 454.5,-36 448.5,-30 448.5,-24 448.5,-24 448.5,-12 448.5,-12 448.5,-6 454.5,0 460.5,0 460.5,0 559,0 559,0 565,0 571,-6 571,-12 571,-12 571,-24 571,-24 571,-30 565,-36 559,-36"/>
<text text-anchor="middle" x="509.75" y="-12.95" font-family="Times,serif" font-size="14.00">ld_based_clumping</text>
</g>
<!-- pics -->
<g id="node5" class="node">
<title>pics</title>
<path fill="#ffffff" stroke="#000000" d="M649,-36C649,-36 619,-36 619,-36 613,-36 607,-30 607,-24 607,-24 607,-12 607,-12 607,-6 613,0 619,0 619,0 649,0 649,0 655,0 661,-6 661,-12 661,-12 661,-24 661,-24 661,-30 655,-36 649,-36"/>
<text text-anchor="middle" x="634" y="-12.95" font-family="Times,serif" font-size="14.00">pics</text>
</g>
<!-- ld_based_clumping&#45;&gt;pics -->
<g id="edge3" class="edge">
<title>ld_based_clumping&#45;&gt;pics</title>
<path fill="none" stroke="black" d="M700.03,-18C708.83,-18 717.66,-18 725.77,-18"/>
<polygon fill="black" stroke="black" points="725.97,-21.5 735.97,-18 725.97,-14.5 725.97,-21.5"/>
</g>
<!-- pics&#45;&gt;delete_cluster_otg&#45;finngen&#45;ukb&#45;meta -->
<g id="edge4" class="edge">
<title>pics&#45;&gt;delete_cluster_otg&#45;finngen&#45;ukb&#45;meta</title>
<path fill="none" stroke="black" d="M790.19,-18C797.65,-18 806.28,-18 815.56,-18"/>
<polygon fill="black" stroke="black" points="815.84,-21.5 825.84,-18 815.84,-14.5 815.84,-21.5"/>
</g>
<!-- window_based_clumping&#45;&gt;ld_based_clumping -->
<g id="edge5" class="edge">
<title>window_based_clumping&#45;&gt;ld_based_clumping</title>
<path fill="none" stroke="black" d="M541.11,-18C549.6,-18 558.22,-18 566.63,-18"/>
<polygon fill="black" stroke="black" points="566.77,-21.5 576.77,-18 566.77,-14.5 566.77,-21.5"/>
</g>
</g>
</svg>
