<?xml version="1.0" encoding="UTF-8" standalone="no"?>
<!DOCTYPE svg PUBLIC "-//W3C//DTD SVG 1.1//EN"
 "http://www.w3.org/Graphics/SVG/1.1/DTD/svg11.dtd">
<!-- Generated by graphviz version 2.43.0 (0)
 -->
<!-- Title: eqtl_catalogue_ingestion Pages: 1 -->
<svg width="627pt" height="121pt"
 viewBox="0.00 0.00 627.00 121.00" xmlns="http://www.w3.org/2000/svg" xmlns:xlink="http://www.w3.org/1999/xlink">
<g id="graph0" class="graph" transform="scale(1 1) rotate(0) translate(4 117)">
<title>eqtl_catalogue_ingestion</title>
<polygon fill="white" stroke="transparent" points="-4,4 -4,-117 623,-117 623,4 -4,4"/>
<text text-anchor="middle" x="309.5" y="-97.8" font-family="Times,serif" font-size="14.00">eqtl_catalogue_ingestion</text>
<!-- create_cluster -->
<g id="node1" class="node">
<title>create_cluster</title>
<path fill="#ffffff" stroke="#000000" d="M277,-63C277,-63 209,-63 209,-63 203,-63 197,-57 197,-51 197,-51 197,-39 197,-39 197,-33 203,-27 209,-27 209,-27 277,-27 277,-27 283,-27 289,-33 289,-39 289,-39 289,-51 289,-51 289,-57 283,-63 277,-63"/>
<text text-anchor="middle" x="243" y="-41.3" font-family="Times,serif" font-size="14.00">create_cluster</text>
</g>
<!-- eqtl_catalogue -->
<g id="node5" class="node">
<title>eqtl_catalogue</title>
<path fill="#ffffff" stroke="#000000" d="M408,-63C408,-63 337,-63 337,-63 331,-63 325,-57 325,-51 325,-51 325,-39 325,-39 325,-33 331,-27 337,-27 337,-27 408,-27 408,-27 414,-27 420,-33 420,-39 420,-39 420,-51 420,-51 420,-57 414,-63 408,-63"/>
<text text-anchor="middle" x="372.5" y="-41.3" font-family="Times,serif" font-size="14.00">eqtl_catalogue</text>
</g>
<!-- create_cluster&#45;&gt;eqtl_catalogue -->
<g id="edge1" class="edge">
<title>create_cluster&#45;&gt;eqtl_catalogue</title>
<path fill="none" stroke="black" d="M289.31,-45C297.45,-45 306.03,-45 314.46,-45"/>
<polygon fill="black" stroke="black" points="314.61,-48.5 324.61,-45 314.61,-41.5 314.61,-48.5"/>
</g>
<!-- decompress_susie_outputs -->
<g id="node2" class="node">
<title>decompress_susie_outputs</title>
<path fill="#0273d4" stroke="#000000" d="M149,-63C149,-63 12,-63 12,-63 6,-63 0,-57 0,-51 0,-51 0,-39 0,-39 0,-33 6,-27 12,-27 12,-27 149,-27 149,-27 155,-27 161,-33 161,-39 161,-39 161,-51 161,-51 161,-57 155,-63 149,-63"/>
<text text-anchor="middle" x="80.5" y="-41.3" font-family="Times,serif" font-size="14.00">decompress_susie_outputs</text>
</g>
<!-- decompress_susie_outputs&#45;&gt;create_cluster -->
<g id="edge2" class="edge">
<title>decompress_susie_outputs&#45;&gt;create_cluster</title>
<path fill="none" stroke="black" d="M161.28,-45C169.91,-45 178.55,-45 186.79,-45"/>
<polygon fill="black" stroke="black" points="186.99,-48.5 196.99,-45 186.99,-41.5 186.99,-48.5"/>
</g>
<!-- delete_cluster -->
<g id="node3" class="node">
<title>delete_cluster</title>
<path fill="#ffffff" stroke="#000000" d="M571.5,-90C571.5,-90 503.5,-90 503.5,-90 497.5,-90 491.5,-84 491.5,-78 491.5,-78 491.5,-66 491.5,-66 491.5,-60 497.5,-54 503.5,-54 503.5,-54 571.5,-54 571.5,-54 577.5,-54 583.5,-60 583.5,-66 583.5,-66 583.5,-78 583.5,-78 583.5,-84 577.5,-90 571.5,-90"/>
<text text-anchor="middle" x="537.5" y="-68.3" font-family="Times,serif" font-size="14.00">delete_cluster</text>
</g>
<!-- delete_decompressed_files -->
<g id="node4" class="node">
<title>delete_decompressed_files</title>
<path fill="#ffffff" stroke="#000000" d="M607,-36C607,-36 468,-36 468,-36 462,-36 456,-30 456,-24 456,-24 456,-12 456,-12 456,-6 462,0 468,0 468,0 607,0 607,0 613,0 619,-6 619,-12 619,-12 619,-24 619,-24 619,-30 613,-36 607,-36"/>
<text text-anchor="middle" x="537.5" y="-14.3" font-family="Times,serif" font-size="14.00">delete_decompressed_files</text>
</g>
<!-- eqtl_catalogue&#45;&gt;delete_cluster -->
<g id="edge3" class="edge">
<title>eqtl_catalogue&#45;&gt;delete_cluster</title>
<path fill="none" stroke="black" d="M420.21,-52.74C439.36,-55.91 461.67,-59.61 481.6,-62.91"/>
<polygon fill="black" stroke="black" points="481.03,-66.36 491.47,-64.54 482.18,-59.45 481.03,-66.36"/>
</g>
<!-- eqtl_catalogue&#45;&gt;delete_decompressed_files -->
<g id="edge4" class="edge">
<title>eqtl_catalogue&#45;&gt;delete_decompressed_files</title>
<path fill="none" stroke="black" d="M420.21,-37.26C428.34,-35.92 437.05,-34.47 445.89,-33.01"/>
<polygon fill="black" stroke="black" points="446.63,-36.43 455.92,-31.35 445.48,-29.53 446.63,-36.43"/>
</g>
</g>
</svg>
