<?xml version="1.0" encoding="UTF-8" standalone="no"?>
<!DOCTYPE svg PUBLIC "-//W3C//DTD SVG 1.1//EN"
 "http://www.w3.org/Graphics/SVG/1.1/DTD/svg11.dtd">
<!-- Generated by graphviz version 2.43.0 (0)
 -->
<!-- Title: eqtl_catalogue_ingestion Pages: 1 -->
<svg width="778pt" height="121pt"
 viewBox="0.00 0.00 778.00 121.00" xmlns="http://www.w3.org/2000/svg" xmlns:xlink="http://www.w3.org/1999/xlink">
<g id="graph0" class="graph" transform="scale(1 1) rotate(0) translate(4 117)">
<title>eqtl_catalogue_ingestion</title>
<polygon fill="white" stroke="transparent" points="-4,4 -4,-117 774,-117 774,4 -4,4"/>
<text text-anchor="middle" x="385" y="-97.8" font-family="Times,serif" font-size="14.00">eqtl_catalogue_ingestion</text>
<!-- create_cluster_otg&#45;preprocess&#45;eqtl -->
<g id="node1" class="node">
<title>create_cluster_otg&#45;preprocess&#45;eqtl</title>
<path fill="#ffffff" stroke="#000000" d="M388,-63C388,-63 209,-63 209,-63 203,-63 197,-57 197,-51 197,-51 197,-39 197,-39 197,-33 203,-27 209,-27 209,-27 388,-27 388,-27 394,-27 400,-33 400,-39 400,-39 400,-51 400,-51 400,-57 394,-63 388,-63"/>
<text text-anchor="middle" x="298.5" y="-41.3" font-family="Times,serif" font-size="14.00">create_cluster_otg&#45;preprocess&#45;eqtl</text>
</g>
<!-- eqtl_catalogue -->
<g id="node5" class="node">
<title>eqtl_catalogue</title>
<path fill="#ffffff" stroke="#000000" d="M519,-63C519,-63 448,-63 448,-63 442,-63 436,-57 436,-51 436,-51 436,-39 436,-39 436,-33 442,-27 448,-27 448,-27 519,-27 519,-27 525,-27 531,-33 531,-39 531,-39 531,-51 531,-51 531,-57 525,-63 519,-63"/>
<text text-anchor="middle" x="483.5" y="-41.3" font-family="Times,serif" font-size="14.00">eqtl_catalogue</text>
</g>
<!-- create_cluster_otg&#45;preprocess&#45;eqtl&#45;&gt;eqtl_catalogue -->
<g id="edge1" class="edge">
<title>create_cluster_otg&#45;preprocess&#45;eqtl&#45;&gt;eqtl_catalogue</title>
<path fill="none" stroke="black" d="M400.1,-45C408.86,-45 417.51,-45 425.72,-45"/>
<polygon fill="black" stroke="black" points="425.86,-48.5 435.86,-45 425.86,-41.5 425.86,-48.5"/>
</g>
<!-- decompress_susie_outputs -->
<g id="node2" class="node">
<title>decompress_susie_outputs</title>
<path fill="#0273d4" stroke="#000000" d="M149,-63C149,-63 12,-63 12,-63 6,-63 0,-57 0,-51 0,-51 0,-39 0,-39 0,-33 6,-27 12,-27 12,-27 149,-27 149,-27 155,-27 161,-33 161,-39 161,-39 161,-51 161,-51 161,-57 155,-63 149,-63"/>
<text text-anchor="middle" x="80.5" y="-41.3" font-family="Times,serif" font-size="14.00">decompress_susie_outputs</text>
</g>
<!-- decompress_susie_outputs&#45;&gt;create_cluster_otg&#45;preprocess&#45;eqtl -->
<g id="edge2" class="edge">
<title>decompress_susie_outputs&#45;&gt;create_cluster_otg&#45;preprocess&#45;eqtl</title>
<path fill="none" stroke="black" d="M161.01,-45C169.4,-45 178.03,-45 186.69,-45"/>
<polygon fill="black" stroke="black" points="186.85,-48.5 196.85,-45 186.85,-41.5 186.85,-48.5"/>
</g>
<!-- delete_cluster_otg&#45;preprocess&#45;eqtl -->
<g id="node3" class="node">
<title>delete_cluster_otg&#45;preprocess&#45;eqtl</title>
<path fill="#ffffff" stroke="#000000" d="M758,-90C758,-90 579,-90 579,-90 573,-90 567,-84 567,-78 567,-78 567,-66 567,-66 567,-60 573,-54 579,-54 579,-54 758,-54 758,-54 764,-54 770,-60 770,-66 770,-66 770,-78 770,-78 770,-84 764,-90 758,-90"/>
<text text-anchor="middle" x="668.5" y="-68.3" font-family="Times,serif" font-size="14.00">delete_cluster_otg&#45;preprocess&#45;eqtl</text>
</g>
<!-- delete_decompressed_files -->
<g id="node4" class="node">
<title>delete_decompressed_files</title>
<path fill="#ffffff" stroke="#000000" d="M738,-36C738,-36 599,-36 599,-36 593,-36 587,-30 587,-24 587,-24 587,-12 587,-12 587,-6 593,0 599,0 599,0 738,0 738,0 744,0 750,-6 750,-12 750,-12 750,-24 750,-24 750,-30 744,-36 738,-36"/>
<text text-anchor="middle" x="668.5" y="-14.3" font-family="Times,serif" font-size="14.00">delete_decompressed_files</text>
</g>
<!-- eqtl_catalogue&#45;&gt;delete_cluster_otg&#45;preprocess&#45;eqtl -->
<g id="edge3" class="edge">
<title>eqtl_catalogue&#45;&gt;delete_cluster_otg&#45;preprocess&#45;eqtl</title>
<path fill="none" stroke="black" d="M531.15,-51.88C539.15,-53.06 547.76,-54.33 556.63,-55.64"/>
<polygon fill="black" stroke="black" points="556.32,-59.13 566.72,-57.13 557.34,-52.21 556.32,-59.13"/>
</g>
<!-- eqtl_catalogue&#45;&gt;delete_decompressed_files -->
<g id="edge4" class="edge">
<title>eqtl_catalogue&#45;&gt;delete_decompressed_files</title>
<path fill="none" stroke="black" d="M531.15,-38.12C545.05,-36.07 560.78,-33.75 576.5,-31.43"/>
<polygon fill="black" stroke="black" points="577.42,-34.83 586.8,-29.91 576.4,-27.9 577.42,-34.83"/>
</g>
</g>
</svg>
