<?xml version="1.0" encoding="UTF-8" standalone="no"?>
<!DOCTYPE svg PUBLIC "-//W3C//DTD SVG 1.1//EN"
 "http://www.w3.org/Graphics/SVG/1.1/DTD/svg11.dtd">
<!-- Generated by graphviz version 12.2.1 (20241206.2353)
 -->
<!-- Title: credible_set_qc Pages: 1 -->
<svg width="531pt" height="123pt"
 viewBox="0.00 0.00 530.75 122.50" xmlns="http://www.w3.org/2000/svg" xmlns:xlink="http://www.w3.org/1999/xlink">
<g id="graph0" class="graph" transform="scale(1 1) rotate(0) translate(4 118.5)">
<title>credible_set_qc</title>
<polygon fill="white" stroke="none" points="-4,4 -4,-118.5 526.75,-118.5 526.75,4 -4,4"/>
<text text-anchor="middle" x="261.38" y="-97.2" font-family="Times,serif" font-size="14.00">credible_set_qc</text>
<!-- create_cluster -->
<g id="node1" class="node">
<title>create_cluster</title>
<path fill="#ffffff" stroke="#000000" d="M79,-63C79,-63 12,-63 12,-63 6,-63 0,-57 0,-51 0,-51 0,-39 0,-39 0,-33 6,-27 12,-27 12,-27 79,-27 79,-27 85,-27 91,-33 91,-39 91,-39 91,-51 91,-51 91,-57 85,-63 79,-63"/>
<text text-anchor="middle" x="45.5" y="-39.95" font-family="Times,serif" font-size="14.00">create_cluster</text>
</g>
<!-- gwas_catalog_sumstats_susie_credible_set_qc -->
<g id="node3" class="node">
<title>gwas_catalog_sumstats_susie_credible_set_qc</title>
<path fill="#ffffff" stroke="#000000" d="M383.75,-90C383.75,-90 139,-90 139,-90 133,-90 127,-84 127,-78 127,-78 127,-66 127,-66 127,-60 133,-54 139,-54 139,-54 383.75,-54 383.75,-54 389.75,-54 395.75,-60 395.75,-66 395.75,-66 395.75,-78 395.75,-78 395.75,-84 389.75,-90 383.75,-90"/>
<text text-anchor="middle" x="261.38" y="-66.95" font-family="Times,serif" font-size="14.00">gwas_catalog_sumstats_susie_credible_set_qc</text>
</g>
<!-- create_cluster_otg&#45;credible&#45;set&#45;qc&#45;&gt;gwas_catalog_sumstats_susie_credible_set_qc -->
<g id="edge1" class="edge">
<title>create_cluster_otg&#45;credible&#45;set&#45;qc&#45;&gt;gwas_catalog_sumstats_susie_credible_set_qc</title>
<path fill="none" stroke="black" d="M200.22,-54.98C208.59,-55.82 217.16,-56.68 225.78,-57.55"/>
<polygon fill="black" stroke="black" points="225.62,-61.05 235.92,-58.57 226.32,-54.08 225.62,-61.05"/>
</g>
<!-- ukb_ppp_eur_data_credible_set_qc -->
<g id="node4" class="node">
<title>ukb_ppp_eur_data_credible_set_qc</title>
<path fill="#ffffff" stroke="#000000" d="M353.38,-36C353.38,-36 169.38,-36 169.38,-36 163.38,-36 157.38,-30 157.38,-24 157.38,-24 157.38,-12 157.38,-12 157.38,-6 163.38,0 169.38,0 169.38,0 353.38,0 353.38,0 359.38,0 365.38,-6 365.38,-12 365.38,-12 365.38,-24 365.38,-24 365.38,-30 359.38,-36 353.38,-36"/>
<text text-anchor="middle" x="261.38" y="-12.95" font-family="Times,serif" font-size="14.00">ukb_ppp_eur_data_credible_set_qc</text>
</g>
<!-- create_cluster_otg&#45;credible&#45;set&#45;qc&#45;&gt;ukb_ppp_eur_data_credible_set_qc -->
<g id="edge2" class="edge">
<title>create_cluster_otg&#45;credible&#45;set&#45;qc&#45;&gt;ukb_ppp_eur_data_credible_set_qc</title>
<path fill="none" stroke="black" d="M200.22,-35.02C218.24,-33.21 237.17,-31.31 255.58,-29.46"/>
<polygon fill="black" stroke="black" points="256.14,-32.92 265.74,-28.43 255.44,-25.95 256.14,-32.92"/>
</g>
<!-- delete_cluster_otg&#45;credible&#45;set&#45;qc -->
<g id="node2" class="node">
<title>delete_cluster</title>
<path fill="#ffffff" stroke="#000000" d="M510.75,-63C510.75,-63 443.75,-63 443.75,-63 437.75,-63 431.75,-57 431.75,-51 431.75,-51 431.75,-39 431.75,-39 431.75,-33 437.75,-27 443.75,-27 443.75,-27 510.75,-27 510.75,-27 516.75,-27 522.75,-33 522.75,-39 522.75,-39 522.75,-51 522.75,-51 522.75,-57 516.75,-63 510.75,-63"/>
<text text-anchor="middle" x="477.25" y="-39.95" font-family="Times,serif" font-size="14.00">delete_cluster</text>
</g>
<!-- gwas_catalog_sumstats_susie_credible_set_qc&#45;&gt;delete_cluster_otg&#45;credible&#45;set&#45;qc -->
<g id="edge3" class="edge">
<title>gwas_catalog_sumstats_susie_credible_set_qc&#45;&gt;delete_cluster_otg&#45;credible&#45;set&#45;qc</title>
<path fill="none" stroke="black" d="M505.36,-58.54C513.86,-57.68 522.36,-56.83 530.72,-55.99"/>
<polygon fill="black" stroke="black" points="531.25,-59.45 540.85,-54.97 530.55,-52.49 531.25,-59.45"/>
</g>
<!-- ukb_ppp_eur_data_credible_set_qc&#45;&gt;delete_cluster_otg&#45;credible&#45;set&#45;qc -->
<g id="edge4" class="edge">
<title>ukb_ppp_eur_data_credible_set_qc&#45;&gt;delete_cluster_otg&#45;credible&#45;set&#45;qc</title>
<path fill="none" stroke="black" d="M475.31,-28.44C493.49,-30.27 512.45,-32.17 530.77,-34.02"/>
<polygon fill="black" stroke="black" points="530.58,-37.51 540.88,-35.03 531.28,-30.55 530.58,-37.51"/>
</g>
</g>
</svg>
