<?xml version="1.0" encoding="UTF-8" standalone="no"?>
<!DOCTYPE svg PUBLIC "-//W3C//DTD SVG 1.1//EN"
 "http://www.w3.org/Graphics/SVG/1.1/DTD/svg11.dtd">
<!-- Generated by graphviz version 2.43.0 (0)
 -->
<!-- Title: credible_set_qc Pages: 1 -->
<svg width="533pt" height="121pt"
 viewBox="0.00 0.00 533.00 121.00" xmlns="http://www.w3.org/2000/svg" xmlns:xlink="http://www.w3.org/1999/xlink">
<g id="graph0" class="graph" transform="scale(1 1) rotate(0) translate(4 117)">
<title>credible_set_qc</title>
<polygon fill="white" stroke="transparent" points="-4,4 -4,-117 529,-117 529,4 -4,4"/>
<text text-anchor="middle" x="262.5" y="-97.8" font-family="Times,serif" font-size="14.00">credible_set_qc</text>
<!-- create_cluster -->
<g id="node1" class="node">
<title>create_cluster</title>
<path fill="#ffffff" stroke="#000000" d="M80,-63C80,-63 12,-63 12,-63 6,-63 0,-57 0,-51 0,-51 0,-39 0,-39 0,-33 6,-27 12,-27 12,-27 80,-27 80,-27 86,-27 92,-33 92,-39 92,-39 92,-51 92,-51 92,-57 86,-63 80,-63"/>
<text text-anchor="middle" x="46" y="-41.3" font-family="Times,serif" font-size="14.00">create_cluster</text>
</g>
<!-- gwas_catalog_sumstats_susie_credible_set_qc -->
<g id="node3" class="node">
<title>gwas_catalog_sumstats_susie_credible_set_qc</title>
<path fill="#ffffff" stroke="#000000" d="M385,-90C385,-90 140,-90 140,-90 134,-90 128,-84 128,-78 128,-78 128,-66 128,-66 128,-60 134,-54 140,-54 140,-54 385,-54 385,-54 391,-54 397,-60 397,-66 397,-66 397,-78 397,-78 397,-84 391,-90 385,-90"/>
<text text-anchor="middle" x="262.5" y="-68.3" font-family="Times,serif" font-size="14.00">gwas_catalog_sumstats_susie_credible_set_qc</text>
</g>
<!-- create_cluster&#45;&gt;gwas_catalog_sumstats_susie_credible_set_qc -->
<g id="edge1" class="edge">
<title>create_cluster&#45;&gt;gwas_catalog_sumstats_susie_credible_set_qc</title>
<path fill="none" stroke="black" d="M92.23,-50.69C100.17,-51.69 108.81,-52.78 117.83,-53.92"/>
<polygon fill="black" stroke="black" points="117.4,-57.39 127.76,-55.17 118.28,-50.44 117.4,-57.39"/>
</g>
<!-- ukb_ppp_eur_data_credible_set_qc -->
<g id="node4" class="node">
<title>ukb_ppp_eur_data_credible_set_qc</title>
<path fill="#ffffff" stroke="#000000" d="M355,-36C355,-36 170,-36 170,-36 164,-36 158,-30 158,-24 158,-24 158,-12 158,-12 158,-6 164,0 170,0 170,0 355,0 355,0 361,0 367,-6 367,-12 367,-12 367,-24 367,-24 367,-30 361,-36 355,-36"/>
<text text-anchor="middle" x="262.5" y="-14.3" font-family="Times,serif" font-size="14.00">ukb_ppp_eur_data_credible_set_qc</text>
</g>
<!-- create_cluster&#45;&gt;ukb_ppp_eur_data_credible_set_qc -->
<g id="edge2" class="edge">
<title>create_cluster&#45;&gt;ukb_ppp_eur_data_credible_set_qc</title>
<path fill="none" stroke="black" d="M92.23,-39.31C108.63,-37.24 127.98,-34.81 147.63,-32.33"/>
<polygon fill="black" stroke="black" points="148.12,-35.8 157.61,-31.08 147.25,-28.85 148.12,-35.8"/>
</g>
<!-- delete_cluster -->
<g id="node2" class="node">
<title>delete_cluster</title>
<path fill="#ffffff" stroke="#000000" d="M513,-63C513,-63 445,-63 445,-63 439,-63 433,-57 433,-51 433,-51 433,-39 433,-39 433,-33 439,-27 445,-27 445,-27 513,-27 513,-27 519,-27 525,-33 525,-39 525,-39 525,-51 525,-51 525,-57 519,-63 513,-63"/>
<text text-anchor="middle" x="479" y="-41.3" font-family="Times,serif" font-size="14.00">delete_cluster</text>
</g>
<!-- gwas_catalog_sumstats_susie_credible_set_qc&#45;&gt;delete_cluster -->
<g id="edge3" class="edge">
<title>gwas_catalog_sumstats_susie_credible_set_qc&#45;&gt;delete_cluster</title>
<path fill="none" stroke="black" d="M397.21,-55.17C405.95,-54.07 414.44,-53 422.43,-51.99"/>
<polygon fill="black" stroke="black" points="423.14,-55.43 432.62,-50.71 422.26,-48.49 423.14,-55.43"/>
</g>
<!-- ukb_ppp_eur_data_credible_set_qc&#45;&gt;delete_cluster -->
<g id="edge4" class="edge">
<title>ukb_ppp_eur_data_credible_set_qc&#45;&gt;delete_cluster</title>
<path fill="none" stroke="black" d="M367.29,-31.07C386.42,-33.47 405.7,-35.9 422.68,-38.04"/>
<polygon fill="black" stroke="black" points="422.58,-41.55 432.94,-39.33 423.46,-34.61 422.58,-41.55"/>
</g>
</g>
</svg>
