<?xml version="1.0" encoding="UTF-8" standalone="no"?>
<!DOCTYPE svg PUBLIC "-//W3C//DTD SVG 1.1//EN"
 "http://www.w3.org/Graphics/SVG/1.1/DTD/svg11.dtd">
<!-- Generated by graphviz version 2.43.0 (0)
 -->
<!-- Title: credible_set_qc Pages: 1 -->
<svg width="749pt" height="121pt"
 viewBox="0.00 0.00 749.00 121.00" xmlns="http://www.w3.org/2000/svg" xmlns:xlink="http://www.w3.org/1999/xlink">
<g id="graph0" class="graph" transform="scale(1 1) rotate(0) translate(4 117)">
<title>credible_set_qc</title>
<polygon fill="white" stroke="transparent" points="-4,4 -4,-117 745,-117 745,4 -4,4"/>
<text text-anchor="middle" x="370.5" y="-97.8" font-family="Times,serif" font-size="14.00">credible_set_qc</text>
<!-- create_cluster_otg&#45;credible&#45;set&#45;qc -->
<g id="node1" class="node">
<title>create_cluster_otg&#45;credible&#45;set&#45;qc</title>
<path fill="#ffffff" stroke="#000000" d="M188,-63C188,-63 12,-63 12,-63 6,-63 0,-57 0,-51 0,-51 0,-39 0,-39 0,-33 6,-27 12,-27 12,-27 188,-27 188,-27 194,-27 200,-33 200,-39 200,-39 200,-51 200,-51 200,-57 194,-63 188,-63"/>
<text text-anchor="middle" x="100" y="-41.3" font-family="Times,serif" font-size="14.00">create_cluster_otg&#45;credible&#45;set&#45;qc</text>
</g>
<!-- gwas_catalog_sumstats_susie_credible_set_qc -->
<g id="node3" class="node">
<title>gwas_catalog_sumstats_susie_credible_set_qc</title>
<path fill="#ffffff" stroke="#000000" d="M493,-90C493,-90 248,-90 248,-90 242,-90 236,-84 236,-78 236,-78 236,-66 236,-66 236,-60 242,-54 248,-54 248,-54 493,-54 493,-54 499,-54 505,-60 505,-66 505,-66 505,-78 505,-78 505,-84 499,-90 493,-90"/>
<text text-anchor="middle" x="370.5" y="-68.3" font-family="Times,serif" font-size="14.00">gwas_catalog_sumstats_susie_credible_set_qc</text>
</g>
<!-- create_cluster_otg&#45;credible&#45;set&#45;qc&#45;&gt;gwas_catalog_sumstats_susie_credible_set_qc -->
<g id="edge1" class="edge">
<title>create_cluster_otg&#45;credible&#45;set&#45;qc&#45;&gt;gwas_catalog_sumstats_susie_credible_set_qc</title>
<path fill="none" stroke="black" d="M200.22,-54.98C208.59,-55.82 217.16,-56.68 225.78,-57.55"/>
<polygon fill="black" stroke="black" points="225.62,-61.05 235.92,-58.57 226.32,-54.08 225.62,-61.05"/>
</g>
<!-- ukb_ppp_eur_data_credible_set_qc -->
<g id="node4" class="node">
<title>ukb_ppp_eur_data_credible_set_qc</title>
<path fill="#ffffff" stroke="#000000" d="M463,-36C463,-36 278,-36 278,-36 272,-36 266,-30 266,-24 266,-24 266,-12 266,-12 266,-6 272,0 278,0 278,0 463,0 463,0 469,0 475,-6 475,-12 475,-12 475,-24 475,-24 475,-30 469,-36 463,-36"/>
<text text-anchor="middle" x="370.5" y="-14.3" font-family="Times,serif" font-size="14.00">ukb_ppp_eur_data_credible_set_qc</text>
</g>
<!-- create_cluster_otg&#45;credible&#45;set&#45;qc&#45;&gt;ukb_ppp_eur_data_credible_set_qc -->
<g id="edge2" class="edge">
<title>create_cluster_otg&#45;credible&#45;set&#45;qc&#45;&gt;ukb_ppp_eur_data_credible_set_qc</title>
<path fill="none" stroke="black" d="M200.22,-35.02C218.24,-33.21 237.17,-31.31 255.58,-29.46"/>
<polygon fill="black" stroke="black" points="256.14,-32.92 265.74,-28.43 255.44,-25.95 256.14,-32.92"/>
</g>
<!-- delete_cluster_otg&#45;credible&#45;set&#45;qc -->
<g id="node2" class="node">
<title>delete_cluster_otg&#45;credible&#45;set&#45;qc</title>
<path fill="#ffffff" stroke="#000000" d="M729,-63C729,-63 553,-63 553,-63 547,-63 541,-57 541,-51 541,-51 541,-39 541,-39 541,-33 547,-27 553,-27 553,-27 729,-27 729,-27 735,-27 741,-33 741,-39 741,-39 741,-51 741,-51 741,-57 735,-63 729,-63"/>
<text text-anchor="middle" x="641" y="-41.3" font-family="Times,serif" font-size="14.00">delete_cluster_otg&#45;credible&#45;set&#45;qc</text>
</g>
<!-- gwas_catalog_sumstats_susie_credible_set_qc&#45;&gt;delete_cluster_otg&#45;credible&#45;set&#45;qc -->
<g id="edge3" class="edge">
<title>gwas_catalog_sumstats_susie_credible_set_qc&#45;&gt;delete_cluster_otg&#45;credible&#45;set&#45;qc</title>
<path fill="none" stroke="black" d="M505.36,-58.54C513.86,-57.68 522.36,-56.83 530.72,-55.99"/>
<polygon fill="black" stroke="black" points="531.25,-59.45 540.85,-54.97 530.55,-52.49 531.25,-59.45"/>
</g>
<!-- ukb_ppp_eur_data_credible_set_qc&#45;&gt;delete_cluster_otg&#45;credible&#45;set&#45;qc -->
<g id="edge4" class="edge">
<title>ukb_ppp_eur_data_credible_set_qc&#45;&gt;delete_cluster_otg&#45;credible&#45;set&#45;qc</title>
<path fill="none" stroke="black" d="M475.31,-28.44C493.49,-30.27 512.45,-32.17 530.77,-34.02"/>
<polygon fill="black" stroke="black" points="530.58,-37.51 540.88,-35.03 531.28,-30.55 530.58,-37.51"/>
</g>
</g>
</svg>
