<?xml version="1.0" encoding="UTF-8" standalone="no"?>
<!DOCTYPE svg PUBLIC "-//W3C//DTD SVG 1.1//EN"
 "http://www.w3.org/Graphics/SVG/1.1/DTD/svg11.dtd">
<!-- Generated by graphviz version 11.0.0 (20240428.1522)
 -->
<!-- Title: credible_set_qc Pages: 1 -->
<svg width="531pt" height="123pt"
 viewBox="0.00 0.00 530.75 122.50" xmlns="http://www.w3.org/2000/svg" xmlns:xlink="http://www.w3.org/1999/xlink">
<g id="graph0" class="graph" transform="scale(1 1) rotate(0) translate(4 118.5)">
<title>credible_set_qc</title>
<polygon fill="white" stroke="none" points="-4,4 -4,-118.5 526.75,-118.5 526.75,4 -4,4"/>
<text text-anchor="middle" x="261.38" y="-97.2" font-family="Times,serif" font-size="14.00">credible_set_qc</text>
<!-- create_cluster -->
<g id="node1" class="node">
<title>create_cluster</title>
<path fill="#ffffff" stroke="#000000" d="M79,-63C79,-63 12,-63 12,-63 6,-63 0,-57 0,-51 0,-51 0,-39 0,-39 0,-33 6,-27 12,-27 12,-27 79,-27 79,-27 85,-27 91,-33 91,-39 91,-39 91,-51 91,-51 91,-57 85,-63 79,-63"/>
<text text-anchor="middle" x="45.5" y="-39.95" font-family="Times,serif" font-size="14.00">create_cluster</text>
</g>
<!-- gwas_catalog_sumstats_susie_credible_set_qc -->
<g id="node3" class="node">
<title>gwas_catalog_sumstats_susie_credible_set_qc</title>
<path fill="#ffffff" stroke="#000000" d="M383.75,-90C383.75,-90 139,-90 139,-90 133,-90 127,-84 127,-78 127,-78 127,-66 127,-66 127,-60 133,-54 139,-54 139,-54 383.75,-54 383.75,-54 389.75,-54 395.75,-60 395.75,-66 395.75,-66 395.75,-78 395.75,-78 395.75,-84 389.75,-90 383.75,-90"/>
<text text-anchor="middle" x="261.38" y="-66.95" font-family="Times,serif" font-size="14.00">gwas_catalog_sumstats_susie_credible_set_qc</text>
</g>
<!-- create_cluster&#45;&gt;gwas_catalog_sumstats_susie_credible_set_qc -->
<g id="edge1" class="edge">
<title>create_cluster&#45;&gt;gwas_catalog_sumstats_susie_credible_set_qc</title>
<path fill="none" stroke="black" d="M91.34,-50.66C98.83,-51.61 106.95,-52.63 115.43,-53.7"/>
<polygon fill="black" stroke="black" points="114.91,-57.16 125.27,-54.94 115.79,-50.22 114.91,-57.16"/>
</g>
<!-- ukb_ppp_eur_data_credible_set_qc -->
<g id="node4" class="node">
<title>ukb_ppp_eur_data_credible_set_qc</title>
<path fill="#ffffff" stroke="#000000" d="M353.38,-36C353.38,-36 169.38,-36 169.38,-36 163.38,-36 157.38,-30 157.38,-24 157.38,-24 157.38,-12 157.38,-12 157.38,-6 163.38,0 169.38,0 169.38,0 353.38,0 353.38,0 359.38,0 365.38,-6 365.38,-12 365.38,-12 365.38,-24 365.38,-24 365.38,-30 359.38,-36 353.38,-36"/>
<text text-anchor="middle" x="261.38" y="-12.95" font-family="Times,serif" font-size="14.00">ukb_ppp_eur_data_credible_set_qc</text>
</g>
<!-- create_cluster&#45;&gt;ukb_ppp_eur_data_credible_set_qc -->
<g id="edge2" class="edge">
<title>create_cluster&#45;&gt;ukb_ppp_eur_data_credible_set_qc</title>
<path fill="none" stroke="black" d="M91.34,-39.34C107.41,-37.31 126.35,-34.92 145.63,-32.49"/>
<polygon fill="black" stroke="black" points="146.02,-35.96 155.51,-31.24 145.15,-29.02 146.02,-35.96"/>
</g>
<!-- delete_cluster -->
<g id="node2" class="node">
<title>delete_cluster</title>
<path fill="#ffffff" stroke="#000000" d="M510.75,-63C510.75,-63 443.75,-63 443.75,-63 437.75,-63 431.75,-57 431.75,-51 431.75,-51 431.75,-39 431.75,-39 431.75,-33 437.75,-27 443.75,-27 443.75,-27 510.75,-27 510.75,-27 516.75,-27 522.75,-33 522.75,-39 522.75,-39 522.75,-51 522.75,-51 522.75,-57 516.75,-63 510.75,-63"/>
<text text-anchor="middle" x="477.25" y="-39.95" font-family="Times,serif" font-size="14.00">delete_cluster</text>
</g>
<!-- gwas_catalog_sumstats_susie_credible_set_qc&#45;&gt;delete_cluster -->
<g id="edge3" class="edge">
<title>gwas_catalog_sumstats_susie_credible_set_qc&#45;&gt;delete_cluster</title>
<path fill="none" stroke="black" d="M396,-55.13C404.41,-54.07 412.59,-53.04 420.3,-52.06"/>
<polygon fill="black" stroke="black" points="420.64,-55.55 430.12,-50.82 419.76,-48.6 420.64,-55.55"/>
</g>
<!-- ukb_ppp_eur_data_credible_set_qc&#45;&gt;delete_cluster -->
<g id="edge4" class="edge">
<title>ukb_ppp_eur_data_credible_set_qc&#45;&gt;delete_cluster</title>
<path fill="none" stroke="black" d="M365.87,-31.07C384.58,-33.43 403.43,-35.81 420.13,-37.92"/>
<polygon fill="black" stroke="black" points="419.46,-41.36 429.82,-39.14 420.34,-34.41 419.46,-41.36"/>
</g>
</g>
</svg>
