<?xml version="1.0" encoding="UTF-8" standalone="no"?>
<!DOCTYPE svg PUBLIC "-//W3C//DTD SVG 1.1//EN"
 "http://www.w3.org/Graphics/SVG/1.1/DTD/svg11.dtd">
<!-- Generated by graphviz version 14.0.0 (20250921.2048)
 -->
<!-- Title: gnomad_ingestion Pages: 1 -->
<svg width="471pt" height="69pt"
 viewBox="0.00 0.00 471.00 69.00" xmlns="http://www.w3.org/2000/svg" xmlns:xlink="http://www.w3.org/1999/xlink">
<g id="graph0" class="graph" transform="scale(1 1) rotate(0) translate(4 64.5)">
<title>gnomad_ingestion</title>
<polygon fill="white" stroke="none" points="-4,4 -4,-64.5 467,-64.5 467,4 -4,4"/>
<text xml:space="preserve" text-anchor="middle" x="231.5" y="-43.2" font-family="Times,serif" font-size="14.00">gnomad_ingestion</text>
<!-- create_cluster -->
<g id="node1" class="node">
<title>create_cluster</title>
<path fill="#ffffff" stroke="#000000" d="M79,-36C79,-36 12,-36 12,-36 6,-36 0,-30 0,-24 0,-24 0,-12 0,-12 0,-6 6,0 12,0 12,0 79,0 79,0 85,0 91,-6 91,-12 91,-12 91,-24 91,-24 91,-30 85,-36 79,-36"/>
<text xml:space="preserve" text-anchor="middle" x="45.5" y="-12.95" font-family="Times,serif" font-size="14.00">create_cluster</text>
</g>
<!-- ld_index -->
<g id="node4" class="node">
<title>ld_index</title>
<path fill="#ffffff" stroke="#000000" d="M178.25,-36C178.25,-36 139,-36 139,-36 133,-36 127,-30 127,-24 127,-24 127,-12 127,-12 127,-6 133,0 139,0 139,0 178.25,0 178.25,0 184.25,0 190.25,-6 190.25,-12 190.25,-12 190.25,-24 190.25,-24 190.25,-30 184.25,-36 178.25,-36"/>
<text xml:space="preserve" text-anchor="middle" x="158.62" y="-12.95" font-family="Times,serif" font-size="14.00">ld_index</text>
</g>
<!-- create_cluster&#45;&gt;ld_index -->
<g id="edge1" class="edge">
<title>create_cluster&#45;&gt;ld_index</title>
<path fill="none" stroke="black" d="M91.38,-18C99.22,-18 107.35,-18 115.13,-18"/>
<polygon fill="black" stroke="black" points="115.05,-21.5 125.05,-18 115.05,-14.5 115.05,-21.5"/>
</g>
<!-- delete_cluster -->
<g id="node2" class="node">
<title>delete_cluster</title>
<path fill="#ffffff" stroke="#000000" d="M451,-36C451,-36 384,-36 384,-36 378,-36 372,-30 372,-24 372,-24 372,-12 372,-12 372,-6 378,0 384,0 384,0 451,0 451,0 457,0 463,-6 463,-12 463,-12 463,-24 463,-24 463,-30 457,-36 451,-36"/>
<text xml:space="preserve" text-anchor="middle" x="417.5" y="-12.95" font-family="Times,serif" font-size="14.00">delete_cluster</text>
</g>
<!-- gnomad_variants -->
<g id="node3" class="node">
<title>gnomad_variants</title>
<path fill="#ffffff" stroke="#000000" d="M324,-36C324,-36 238.25,-36 238.25,-36 232.25,-36 226.25,-30 226.25,-24 226.25,-24 226.25,-12 226.25,-12 226.25,-6 232.25,0 238.25,0 238.25,0 324,0 324,0 330,0 336,-6 336,-12 336,-12 336,-24 336,-24 336,-30 330,-36 324,-36"/>
<text xml:space="preserve" text-anchor="middle" x="281.12" y="-12.95" font-family="Times,serif" font-size="14.00">gnomad_variants</text>
</g>
<!-- gnomad_variants&#45;&gt;delete_cluster -->
<g id="edge2" class="edge">
<title>gnomad_variants&#45;&gt;delete_cluster</title>
<path fill="none" stroke="black" d="M336.39,-18C344.32,-18 352.5,-18 360.46,-18"/>
<polygon fill="black" stroke="black" points="360.41,-21.5 370.41,-18 360.41,-14.5 360.41,-21.5"/>
</g>
<!-- ld_index&#45;&gt;gnomad_variants -->
<g id="edge3" class="edge">
<title>ld_index&#45;&gt;gnomad_variants</title>
<path fill="none" stroke="black" d="M190.66,-18C198.04,-18 206.2,-18 214.49,-18"/>
<polygon fill="black" stroke="black" points="214.31,-21.5 224.31,-18 214.31,-14.5 214.31,-21.5"/>
</g>
</g>
</svg>
