<?xml version="1.0" encoding="UTF-8" standalone="no"?>
<!DOCTYPE svg PUBLIC "-//W3C//DTD SVG 1.1//EN"
 "http://www.w3.org/Graphics/SVG/1.1/DTD/svg11.dtd">
<!-- Generated by graphviz version 2.43.0 (0)
 -->
<!-- Title: gnomad_ingestion Pages: 1 -->
<svg width="700pt" height="67pt"
 viewBox="0.00 0.00 700.00 67.00" xmlns="http://www.w3.org/2000/svg" xmlns:xlink="http://www.w3.org/1999/xlink">
<g id="graph0" class="graph" transform="scale(1 1) rotate(0) translate(4 63)">
<title>gnomad_ingestion</title>
<polygon fill="white" stroke="transparent" points="-4,4 -4,-63 696,-63 696,4 -4,4"/>
<text text-anchor="middle" x="346" y="-43.8" font-family="Times,serif" font-size="14.00">gnomad_ingestion</text>
<!-- create_cluster_gnomad&#45;preprocess -->
<g id="node1" class="node">
<title>create_cluster_gnomad&#45;preprocess</title>
<path fill="#ffffff" stroke="#000000" d="M193,-36C193,-36 12,-36 12,-36 6,-36 0,-30 0,-24 0,-24 0,-12 0,-12 0,-6 6,0 12,0 12,0 193,0 193,0 199,0 205,-6 205,-12 205,-12 205,-24 205,-24 205,-30 199,-36 193,-36"/>
<text text-anchor="middle" x="102.5" y="-14.3" font-family="Times,serif" font-size="14.00">create_cluster_gnomad&#45;preprocess</text>
</g>
<!-- ld_index -->
<g id="node4" class="node">
<title>ld_index</title>
<path fill="#ffffff" stroke="#000000" d="M293,-36C293,-36 253,-36 253,-36 247,-36 241,-30 241,-24 241,-24 241,-12 241,-12 241,-6 247,0 253,0 253,0 293,0 293,0 299,0 305,-6 305,-12 305,-12 305,-24 305,-24 305,-30 299,-36 293,-36"/>
<text text-anchor="middle" x="273" y="-14.3" font-family="Times,serif" font-size="14.00">ld_index</text>
</g>
<!-- create_cluster_gnomad&#45;preprocess&#45;&gt;ld_index -->
<g id="edge1" class="edge">
<title>create_cluster_gnomad&#45;preprocess&#45;&gt;ld_index</title>
<path fill="none" stroke="black" d="M205.4,-18C214.17,-18 222.67,-18 230.5,-18"/>
<polygon fill="black" stroke="black" points="230.73,-21.5 240.73,-18 230.73,-14.5 230.73,-21.5"/>
</g>
<!-- delete_cluster_gnomad&#45;preprocess -->
<g id="node2" class="node">
<title>delete_cluster_gnomad&#45;preprocess</title>
<path fill="#ffffff" stroke="#000000" d="M680,-36C680,-36 499,-36 499,-36 493,-36 487,-30 487,-24 487,-24 487,-12 487,-12 487,-6 493,0 499,0 499,0 680,0 680,0 686,0 692,-6 692,-12 692,-12 692,-24 692,-24 692,-30 686,-36 680,-36"/>
<text text-anchor="middle" x="589.5" y="-14.3" font-family="Times,serif" font-size="14.00">delete_cluster_gnomad&#45;preprocess</text>
</g>
<!-- gnomad_variants -->
<g id="node3" class="node">
<title>gnomad_variants</title>
<path fill="#ffffff" stroke="#000000" d="M439,-36C439,-36 353,-36 353,-36 347,-36 341,-30 341,-24 341,-24 341,-12 341,-12 341,-6 347,0 353,0 353,0 439,0 439,0 445,0 451,-6 451,-12 451,-12 451,-24 451,-24 451,-30 445,-36 439,-36"/>
<text text-anchor="middle" x="396" y="-14.3" font-family="Times,serif" font-size="14.00">gnomad_variants</text>
</g>
<!-- gnomad_variants&#45;&gt;delete_cluster_gnomad&#45;preprocess -->
<g id="edge2" class="edge">
<title>gnomad_variants&#45;&gt;delete_cluster_gnomad&#45;preprocess</title>
<path fill="none" stroke="black" d="M451.11,-18C459.31,-18 468.01,-18 476.9,-18"/>
<polygon fill="black" stroke="black" points="477,-21.5 487,-18 477,-14.5 477,-21.5"/>
</g>
<!-- ld_index&#45;&gt;gnomad_variants -->
<g id="edge3" class="edge">
<title>ld_index&#45;&gt;gnomad_variants</title>
<path fill="none" stroke="black" d="M305.16,-18C313.1,-18 321.92,-18 330.85,-18"/>
<polygon fill="black" stroke="black" points="330.94,-21.5 340.94,-18 330.94,-14.5 330.94,-21.5"/>
</g>
</g>
</svg>
