<?xml version="1.0" encoding="UTF-8" standalone="no"?>
<!DOCTYPE svg PUBLIC "-//W3C//DTD SVG 1.1//EN"
 "http://www.w3.org/Graphics/SVG/1.1/DTD/svg11.dtd">
<!-- Generated by graphviz version 2.43.0 (0)
 -->
<!-- Title: gnomad_ingestion Pages: 1 -->
<svg width="474pt" height="67pt"
 viewBox="0.00 0.00 474.00 67.00" xmlns="http://www.w3.org/2000/svg" xmlns:xlink="http://www.w3.org/1999/xlink">
<g id="graph0" class="graph" transform="scale(1 1) rotate(0) translate(4 63)">
<title>gnomad_ingestion</title>
<polygon fill="white" stroke="transparent" points="-4,4 -4,-63 470,-63 470,4 -4,4"/>
<text text-anchor="middle" x="233" y="-43.8" font-family="Times,serif" font-size="14.00">gnomad_ingestion</text>
<!-- create_cluster -->
<g id="node1" class="node">
<title>create_cluster</title>
<path fill="#ffffff" stroke="#000000" d="M80,-36C80,-36 12,-36 12,-36 6,-36 0,-30 0,-24 0,-24 0,-12 0,-12 0,-6 6,0 12,0 12,0 80,0 80,0 86,0 92,-6 92,-12 92,-12 92,-24 92,-24 92,-30 86,-36 80,-36"/>
<text text-anchor="middle" x="46" y="-14.3" font-family="Times,serif" font-size="14.00">create_cluster</text>
</g>
<!-- ld_index -->
<g id="node4" class="node">
<title>ld_index</title>
<path fill="#ffffff" stroke="#000000" d="M180,-36C180,-36 140,-36 140,-36 134,-36 128,-30 128,-24 128,-24 128,-12 128,-12 128,-6 134,0 140,0 140,0 180,0 180,0 186,0 192,-6 192,-12 192,-12 192,-24 192,-24 192,-30 186,-36 180,-36"/>
<text text-anchor="middle" x="160" y="-14.3" font-family="Times,serif" font-size="14.00">ld_index</text>
</g>
<!-- create_cluster&#45;&gt;ld_index -->
<g id="edge1" class="edge">
<title>create_cluster&#45;&gt;ld_index</title>
<path fill="none" stroke="black" d="M92.23,-18C100.6,-18 109.3,-18 117.55,-18"/>
<polygon fill="black" stroke="black" points="117.69,-21.5 127.69,-18 117.69,-14.5 117.69,-21.5"/>
</g>
<!-- delete_cluster -->
<g id="node2" class="node">
<title>delete_cluster</title>
<path fill="#ffffff" stroke="#000000" d="M454,-36C454,-36 386,-36 386,-36 380,-36 374,-30 374,-24 374,-24 374,-12 374,-12 374,-6 380,0 386,0 386,0 454,0 454,0 460,0 466,-6 466,-12 466,-12 466,-24 466,-24 466,-30 460,-36 454,-36"/>
<text text-anchor="middle" x="420" y="-14.3" font-family="Times,serif" font-size="14.00">delete_cluster</text>
</g>
<!-- gnomad_variants -->
<g id="node3" class="node">
<title>gnomad_variants</title>
<path fill="#ffffff" stroke="#000000" d="M326,-36C326,-36 240,-36 240,-36 234,-36 228,-30 228,-24 228,-24 228,-12 228,-12 228,-6 234,0 240,0 240,0 326,0 326,0 332,0 338,-6 338,-12 338,-12 338,-24 338,-24 338,-30 332,-36 326,-36"/>
<text text-anchor="middle" x="283" y="-14.3" font-family="Times,serif" font-size="14.00">gnomad_variants</text>
</g>
<!-- gnomad_variants&#45;&gt;delete_cluster -->
<g id="edge2" class="edge">
<title>gnomad_variants&#45;&gt;delete_cluster</title>
<path fill="none" stroke="black" d="M338.13,-18C346.58,-18 355.32,-18 363.79,-18"/>
<polygon fill="black" stroke="black" points="363.96,-21.5 373.96,-18 363.96,-14.5 363.96,-21.5"/>
</g>
<!-- ld_index&#45;&gt;gnomad_variants -->
<g id="edge3" class="edge">
<title>ld_index&#45;&gt;gnomad_variants</title>
<path fill="none" stroke="black" d="M192.16,-18C200.1,-18 208.92,-18 217.85,-18"/>
<polygon fill="black" stroke="black" points="217.94,-21.5 227.94,-18 217.94,-14.5 217.94,-21.5"/>
</g>
</g>
</svg>
